<svg width="40" height="40" viewBox="0 0 40 40" fill="none" xmlns="http://www.w3.org/2000/svg">
<rect width="40" height="40" rx="5" fill="url(#paint0_linear_2_17477)"/>
<g clip-path="url(#clip0_2_17477)">
<path d="M16.3833 28.5348C16.6454 28.1644 17.0128 27.8813 17.4378 27.7224C17.8628 27.5635 18.3258 27.5361 18.7666 27.6438C19.3042 27.7706 19.7762 28.0912 20.0921 28.5443C20.4081 28.9974 20.5458 29.5512 20.479 30.0995C20.4121 30.6478 20.1454 31.1522 19.7298 31.5161C19.3142 31.88 18.7791 32.0778 18.2267 32.0717C17.8655 32.0719 17.5095 31.9853 17.1887 31.8193C16.8679 31.6532 16.5917 31.4125 16.3833 31.1174V36.167H27.7155C28.0749 36.1665 28.4194 36.0234 28.6733 35.7691C28.9272 35.5148 29.0698 35.1701 29.0698 34.8107V23.4851H23.9944C24.3904 23.2147 24.6893 22.8246 24.8474 22.372C25.0055 21.9193 25.0144 21.4279 24.8729 20.9698C24.7314 20.5117 24.4469 20.1109 24.0611 19.8263C23.6752 19.5416 23.2084 19.3881 22.7289 19.3881C22.2494 19.3881 21.7826 19.5416 21.3967 19.8263C21.0109 20.1109 20.7264 20.5117 20.5849 20.9698C20.4433 21.4279 20.4523 21.9193 20.6104 22.372C20.7685 22.8246 21.0674 23.2147 21.4633 23.4851H16.3813L16.3833 28.5348Z" fill="#464948"/>
<path d="M26.9334 23.4852V34.8108C26.9334 35.1705 26.7906 35.5155 26.5362 35.7699C26.2818 36.0242 25.9369 36.1671 25.5771 36.1671H27.7155C28.0749 36.1666 28.4194 36.0235 28.6733 35.7692C28.9272 35.5149 29.0699 35.1702 29.0699 34.8108V23.4852H26.9334Z" fill="#525655"/>
<path d="M11.3271 23.4852C11.717 23.7596 12.0094 24.151 12.1619 24.6028C12.3144 25.0545 12.319 25.5431 12.1751 25.9977C12.0313 26.4523 11.7463 26.8492 11.3616 27.1309C10.977 27.4126 10.5126 27.5645 10.0358 27.5645C9.55898 27.5645 9.09458 27.4126 8.70991 27.1309C8.32524 26.8492 8.0403 26.4523 7.8964 25.9977C7.75251 25.5431 7.75714 25.0545 7.90963 24.6028C8.06212 24.151 8.35454 23.7596 8.74448 23.4852H3.69482V34.8108C3.69482 35.1705 3.83772 35.5155 4.09208 35.7699C4.34643 36.0242 4.69141 36.1671 5.05112 36.1671H16.3833V31.0911C16.6129 31.4302 16.9314 31.6997 17.3039 31.87C17.6764 32.0403 18.0886 32.1049 18.4953 32.0566C19.0709 31.9979 19.6015 31.7192 19.9765 31.2786C20.3514 30.838 20.5417 30.2697 20.5077 29.6921C20.4736 29.1146 20.2178 28.5725 19.7937 28.1791C19.3695 27.7856 18.8098 27.5712 18.2313 27.5805C17.8667 27.5805 17.5076 27.6698 17.1854 27.8407C16.8633 28.0116 16.5879 28.2587 16.3833 28.5606V23.4852H11.3271Z" fill="#5D615F"/>
<path d="M27.7143 17.4455C27.326 17.1725 27.0348 16.783 26.8828 16.3333C26.7309 15.8837 26.7261 15.3973 26.8692 14.9447C27.0124 14.4922 27.296 14.097 27.6789 13.8165C28.0618 13.536 28.5241 13.3848 28.9987 13.3848C29.4733 13.3848 29.9356 13.536 30.3185 13.8165C30.7014 14.097 30.985 14.4922 31.1282 14.9447C31.2713 15.3973 31.2665 15.8837 31.1146 16.3333C30.9626 16.783 30.6714 17.1725 30.2831 17.4455H35.305V6.24396C35.305 5.8706 35.1567 5.51252 34.8927 5.24851C34.6287 4.9845 34.2706 4.83618 33.8972 4.83618H22.6858V9.88056C22.4573 9.54317 22.1404 9.27516 21.7697 9.1059C21.3991 8.93663 20.989 8.87264 20.5844 8.92092C20.0181 8.98728 19.4986 9.26769 19.1324 9.70471C18.7662 10.1417 18.581 10.7022 18.6148 11.2714C18.6485 11.8406 18.8987 12.3753 19.3139 12.7659C19.7292 13.1566 20.2782 13.3737 20.8484 13.3726C21.2111 13.3727 21.5683 13.2839 21.8887 13.1139C22.2091 12.944 22.483 12.6981 22.6865 12.3978V17.4455H27.7143Z" fill="#5D615F"/>
<path d="M33.8972 4.83289H31.7588C31.9439 4.83289 32.1273 4.86941 32.2983 4.94036C32.4693 5.01132 32.6246 5.11531 32.7554 5.24638C32.8862 5.37746 32.9898 5.53304 33.0604 5.70422C33.1309 5.8754 33.167 6.05882 33.1666 6.24397V17.4455H35.305V6.24397C35.3054 6.05882 35.2693 5.8754 35.1988 5.70422C35.1282 5.53304 35.0246 5.37746 34.8938 5.24638C34.763 5.11531 34.6077 5.01132 34.4367 4.94036C34.2657 4.86941 34.0823 4.83289 33.8972 4.83289Z" fill="#707573"/>
<path d="M16.3833 18.4355C16.1213 18.8059 15.7539 19.089 15.3289 19.2479C14.9038 19.4067 14.4409 19.4341 14.0001 19.3265C13.4624 19.1997 12.9905 18.879 12.6745 18.4259C12.3586 17.9728 12.2208 17.4191 12.2877 16.8708C12.3545 16.3225 12.6213 15.8181 13.0368 15.4542C13.4524 15.0903 13.9876 14.8924 14.5399 14.8985C14.9012 14.8983 15.2572 14.9849 15.578 15.151C15.8988 15.3171 16.175 15.5578 16.3833 15.8529V10.8032H5.05112C4.69153 10.8032 4.34665 10.946 4.09231 11.2002C3.83797 11.4545 3.695 11.7993 3.69482 12.1589V23.4851H8.77088C8.37486 23.7555 8.07586 24.1456 7.91769 24.5983C7.75953 25.0509 7.75052 25.5424 7.892 26.0005C8.03348 26.4587 8.31799 26.8595 8.70385 27.1442C9.0897 27.4288 9.5566 27.5824 10.0361 27.5824C10.5156 27.5824 10.9825 27.4288 11.3684 27.1442C11.7542 26.8595 12.0387 26.4587 12.1802 26.0005C12.3217 25.5424 12.3127 25.0509 12.1545 24.5983C11.9964 24.1456 11.6973 23.7555 11.3013 23.4851H16.3833V18.4355Z" fill="#464948"/>
</g>
<defs>
<linearGradient id="paint0_linear_2_17477" x1="20" y1="0" x2="20" y2="40" gradientUnits="userSpaceOnUse">
<stop stop-color="#303130"/>
<stop offset="1" stop-color="#222322"/>
</linearGradient>
<clipPath id="clip0_2_17477">
<rect width="33" height="33" fill="white" transform="translate(3 4)"/>
</clipPath>
</defs>
</svg>
