<svg width="40" height="40" viewBox="0 0 40 40" fill="none" xmlns="http://www.w3.org/2000/svg">
<rect width="40" height="40" rx="5" fill="url(#paint0_linear_2_17503)"/>
<path d="M17.781 17.75C17.781 16.8008 18.5505 16.0312 19.4997 16.0312C20.4489 16.0312 21.2185 16.8008 21.2185 17.75C21.2185 18.6992 20.4489 19.4688 19.4997 19.4688C18.5505 19.4688 17.781 18.6992 17.781 17.75Z" fill="#5D615F"/>
<path fill-rule="evenodd" clip-rule="evenodd" d="M12.3102 9.55729C12.3102 7.43732 14.0288 5.71875 16.1488 5.71875H23.252C25.1505 5.71875 26.6895 7.25777 26.6895 9.15625C26.6895 9.91564 27.3051 10.5312 28.0645 10.5312H28.8749C31.054 10.5312 32.9707 12.2225 32.8819 14.5402C32.768 17.5117 32.1909 22.278 29.8763 26.4961C29.2489 27.6395 28.411 28.7626 27.5052 29.8092L27.437 29.888C26.134 31.3936 25.0475 32.649 23.8795 33.5047C22.6232 34.425 21.2823 34.8835 19.4999 34.8835C17.7175 34.8835 16.3766 34.425 15.1203 33.5047C13.9523 32.649 12.8658 31.3936 11.5628 29.888L11.4946 29.8092C10.5888 28.7626 9.75085 27.6395 9.12345 26.4961C6.88336 22.4137 6.26921 18.1041 6.12962 15.3389C6.01205 13.01 7.94243 11.3333 10.1095 11.3333H10.5342C11.5151 11.3333 12.3102 10.5382 12.3102 9.55729ZM19.4997 13.9688C17.4114 13.9688 15.7185 15.6617 15.7185 17.75C15.7185 19.4808 16.8814 20.94 18.4685 21.3889V26C18.4685 26.5695 18.9302 27.0312 19.4997 27.0312C20.0693 27.0312 20.531 26.5695 20.531 26V21.3889C22.1181 20.94 23.281 19.4808 23.281 17.75C23.281 15.6617 21.588 13.9688 19.4997 13.9688Z" fill="#5D615F"/>
<defs>
<linearGradient id="paint0_linear_2_17503" x1="20" y1="0" x2="20" y2="40" gradientUnits="userSpaceOnUse">
<stop stop-color="#303130"/>
<stop offset="1" stop-color="#222322"/>
</linearGradient>
</defs>
</svg>
