<svg width="40" height="40" viewBox="0 0 40 40" fill="none" xmlns="http://www.w3.org/2000/svg">
<rect width="40" height="40" rx="5" fill="url(#paint0_linear_2_17529)"/>
<path d="M33.7854 6.46604C33.7736 6.40903 33.7459 6.35656 33.7053 6.31478C33.6648 6.273 33.6132 6.24364 33.5566 6.23014C29.7816 5.30717 21.0591 8.59621 16.3334 13.32C15.4906 14.156 14.7222 15.064 14.037 16.0335C12.5797 15.9046 11.1224 16.0122 9.88039 16.5536C6.37608 18.096 5.35579 22.1204 5.07155 23.8516C5.05542 23.9464 5.06151 24.0436 5.08931 24.1356C5.11712 24.2276 5.16589 24.3119 5.2318 24.3819C5.2977 24.4518 5.37894 24.5056 5.46913 24.5388C5.55931 24.5721 5.65598 24.5839 5.75153 24.5735L11.3789 23.9528C11.3829 24.3771 11.4085 24.8009 11.4556 25.2225C11.4839 25.5154 11.6139 25.789 11.823 25.996L14.0022 28.17C14.2093 28.3788 14.4829 28.5087 14.7756 28.5374C15.1949 28.5843 15.6163 28.6099 16.0382 28.6141L15.4208 34.2344C15.4105 34.3299 15.4225 34.4265 15.4558 34.5166C15.4891 34.6067 15.5428 34.6879 15.6127 34.7538C15.6826 34.8197 15.7669 34.8685 15.8588 34.8963C15.9508 34.9242 16.0479 34.9303 16.1427 34.9144C17.8706 34.6372 21.9022 33.6169 23.4355 30.1126C23.9769 28.8706 24.0878 27.4204 23.9628 25.9702C24.9346 25.285 25.8449 24.5163 26.6833 23.6731C31.4239 18.9564 34.6942 10.4286 33.7854 6.46604ZM21.9538 18.0463C21.5209 17.6137 21.226 17.0625 21.1065 16.4623C20.987 15.8621 21.0481 15.24 21.2822 14.6745C21.5163 14.1091 21.9128 13.6258 22.4216 13.2858C22.9305 12.9457 23.5287 12.7643 24.1406 12.7643C24.7526 12.7643 25.3508 12.9457 25.8597 13.2858C26.3685 13.6258 26.765 14.1091 26.9991 14.6745C27.2332 15.24 27.2943 15.8621 27.1748 16.4623C27.0553 17.0625 26.7604 17.6137 26.3275 18.0463C26.0405 18.3338 25.6996 18.5618 25.3244 18.7174C24.9491 18.873 24.5469 18.9531 24.1406 18.9531C23.7344 18.9531 23.3322 18.873 22.9569 18.7174C22.5817 18.5618 22.2408 18.3338 21.9538 18.0463Z" fill="#5D615F"/>
<path d="M13.8539 29.7445C13.5007 30.0984 12.9342 30.2363 12.2522 30.3542C10.7202 30.6153 9.36732 29.2914 9.64254 27.7426C9.7476 27.1554 10.0583 26.3324 10.2516 26.139C10.2939 26.0976 10.322 26.0438 10.332 25.9855C10.342 25.9272 10.3334 25.8671 10.3073 25.814C10.2813 25.7608 10.2392 25.7172 10.1869 25.6894C10.1347 25.6615 10.075 25.6508 10.0164 25.6588C9.15963 25.7637 8.36259 26.1521 7.75213 26.7623C6.23684 28.2789 6.09375 33.9063 6.09375 33.9063C6.09375 33.9063 11.7244 33.7632 13.2397 32.2466C13.8518 31.6366 14.2407 30.8384 14.3438 29.9804C14.3676 29.711 14.0395 29.5505 13.8539 29.7445Z" fill="#5D615F"/>
<defs>
<linearGradient id="paint0_linear_2_17529" x1="20" y1="0" x2="20" y2="40" gradientUnits="userSpaceOnUse">
<stop stop-color="#303130"/>
<stop offset="1" stop-color="#222322"/>
</linearGradient>
</defs>
</svg>
