<svg width="40" height="40" viewBox="0 0 40 40" fill="none" xmlns="http://www.w3.org/2000/svg">
<rect width="40" height="40" rx="5" fill="url(#paint0_linear_2_17542)"/>
<path d="M25 6.75H14C9.1875 6.75 7.125 9.5 7.125 13.625V19.7713C7.125 20.2525 7.5925 20.5825 8.0325 20.4175C9.545 19.8262 11.2638 19.6337 13.0375 19.9913C16.6125 20.7063 19.4587 23.6488 20.05 27.2375C20.4075 29.4237 19.9675 31.5 18.9637 33.2188C18.6887 33.6725 19.0188 34.25 19.555 34.25H25C29.8125 34.25 31.875 31.5 31.875 27.375V13.625C31.875 9.5 29.8125 6.75 25 6.75ZM28.4375 16.7188H25.6875C23.5975 16.7188 21.9062 15.0275 21.9062 12.9375V10.1875C21.9062 9.62375 22.3737 9.15625 22.9375 9.15625C23.5012 9.15625 23.9688 9.62375 23.9688 10.1875V12.9375C23.9688 13.8863 24.7388 14.6562 25.6875 14.6562H28.4375C29.0012 14.6562 29.4688 15.1237 29.4688 15.6875C29.4688 16.2513 29.0012 16.7188 28.4375 16.7188Z" fill="#5D615F"/>
<path d="M11.25 21.875C7.455 21.875 4.375 24.955 4.375 28.75C4.375 32.545 7.455 35.625 11.25 35.625C15.045 35.625 18.125 32.545 18.125 28.75C18.125 24.955 15.045 21.875 11.25 21.875ZM10.095 30.4963C10.4387 30.84 10.4387 31.4038 10.095 31.7613C9.91625 31.94 9.69625 32.0225 9.4625 32.0225C9.22875 32.0225 9.00875 31.94 8.83 31.7613L6.45125 29.3825C6.1075 29.0387 6.1075 28.475 6.45125 28.1175L8.83 25.7388C9.17375 25.395 9.7375 25.395 10.095 25.7388C10.4387 26.0825 10.4387 26.6462 10.095 27.0037L8.34875 28.75L10.095 30.4963ZM16.035 29.3825L13.6562 31.7613C13.4775 31.94 13.2575 32.0225 13.0238 32.0225C12.79 32.0225 12.57 31.94 12.3912 31.7613C12.0475 31.4175 12.0475 30.8538 12.3912 30.4963L14.1512 28.75L12.405 27.0037C12.0613 26.66 12.0613 26.0963 12.405 25.7388C12.7488 25.395 13.3125 25.395 13.67 25.7388L16.0487 28.1175C16.3787 28.475 16.3787 29.025 16.035 29.3825Z" fill="#5D615F"/>
<defs>
<linearGradient id="paint0_linear_2_17542" x1="20" y1="0" x2="20" y2="40" gradientUnits="userSpaceOnUse">
<stop stop-color="#303130"/>
<stop offset="1" stop-color="#222322"/>
</linearGradient>
</defs>
</svg>
