<svg width="199" height="125" viewBox="0 0 199 125" fill="none" xmlns="http://www.w3.org/2000/svg">
<g filter="url(#filter0_d_2_23688)">
<path d="M67.0893 48H57.516C52.2605 48 48 52.2605 48 57.516V67.0894C48 72.3449 52.2605 76.6054 57.516 76.6054H67.0893C72.3449 76.6054 76.6054 72.3449 76.6054 67.0894V57.516C76.6054 52.2605 72.3449 48 67.0893 48Z" fill="#070707" stroke="url(#paint0_linear_2_23688)" stroke-width="0.114881"/>
<mask id="mask0_2_23688" style="mask-type:luminance" maskUnits="userSpaceOnUse" x="59" y="59" width="6" height="6">
<path d="M62.3026 59.6221H62.3026C60.8222 59.6221 59.6221 60.8222 59.6221 62.3026V62.3026C59.6221 63.7831 60.8222 64.9832 62.3026 64.9832H62.3026C63.7831 64.9832 64.9832 63.7831 64.9832 62.3026V62.3026C64.9832 60.8222 63.7831 59.6221 62.3026 59.6221Z" fill="white"/>
</mask>
<g mask="url(#mask0_2_23688)">
<path d="M62.3026 64.9832C63.783 64.9832 64.9832 63.7831 64.9832 62.3026C64.9832 60.8222 63.783 59.6221 62.3026 59.6221C60.8222 59.6221 59.6221 60.8222 59.6221 62.3026C59.6221 63.7831 60.8222 64.9832 62.3026 64.9832Z" fill="#3A3A3A"/>
<path d="M66.414 60.6767C66.414 61.9691 65.3854 62.6871 64.1165 62.6871C62.8475 62.6871 61.8188 61.6584 61.8188 60.3895C61.8188 59.1205 63.1347 57.9482 64.4036 57.9482C65.6726 57.9482 66.414 59.4077 66.414 60.6767Z" fill="#70FF00"/>
</g>
<g filter="url(#filter1_d_2_23688)">
<path d="M75.0345 62.2068C75.0347 62.2388 75.0349 62.2709 75.0349 62.303H65.5503C65.5503 61.8764 65.4663 61.4541 65.3031 61.0599C65.1398 60.6659 64.9006 60.3078 64.599 60.0062C64.2974 59.7046 63.9393 59.4654 63.5452 59.3021C63.1511 59.1389 62.7288 59.0549 62.3022 59.0549V49.5703C62.3343 49.5703 62.3663 49.5704 62.3983 49.5706L66.4188 49.5703C71.1773 49.5703 75.0349 53.4279 75.0349 58.1864L75.0345 62.2068Z" fill="#70FF00"/>
</g>
</g>
<path d="M85.6055 55.9076H90.2584C91.5214 55.9076 92.492 56.2268 93.1685 56.865C93.8575 57.4905 94.2021 58.3457 94.2021 59.4307C94.2021 60.1965 94.0105 60.8093 93.6281 61.2688C93.2575 61.7283 92.7281 62.0602 92.0382 62.2644V62.3601C92.8424 62.5516 93.4744 62.9026 93.934 63.4132C94.4063 63.911 94.6424 64.6194 94.6424 65.5385C94.6424 66.1002 94.5466 66.6108 94.355 67.0703C94.1769 67.517 93.9147 67.9063 93.5702 68.2383C93.2382 68.5701 92.8298 68.8254 92.3449 69.0041C91.8727 69.1828 91.3365 69.2721 90.7365 69.2721H85.6055V55.9076ZM89.971 67.4532C90.6727 67.4532 91.1962 67.3256 91.5407 67.0703C91.8979 66.8022 92.0769 66.3491 92.0769 65.7109V65.079C92.0769 64.4536 91.8979 64.0131 91.5407 63.7579C91.1962 63.4898 90.6727 63.3558 89.971 63.3558H88.0559V67.4532H89.971ZM89.645 61.6134C90.3214 61.6134 90.8197 61.4921 91.1391 61.2496C91.471 61.0071 91.6365 60.5858 91.6365 59.9859V59.3541C91.6365 58.7542 91.471 58.3329 91.1391 58.0904C90.8197 57.8479 90.3214 57.7266 89.645 57.7266H88.0559V61.6134H89.645ZM96.9332 67.3383H100.073V57.0373H96.9332V55.1035H102.524V67.3383H105.683V69.2721H96.9332V67.3383ZM112.778 69.5019C112.026 69.5019 111.349 69.3807 110.749 69.1382C110.163 68.8956 109.658 68.5509 109.236 68.1042C108.828 67.6574 108.509 67.115 108.279 66.4768C108.063 65.8385 107.954 65.1237 107.954 64.3323C107.954 63.5409 108.063 62.8261 108.279 62.1879C108.509 61.5496 108.828 61.0071 109.236 60.5604C109.658 60.1136 110.163 59.769 110.749 59.5264C111.349 59.2839 112.026 59.1627 112.778 59.1627C113.519 59.1627 114.189 59.2839 114.789 59.5264C115.389 59.769 115.894 60.1136 116.302 60.5604C116.723 61.0071 117.042 61.5496 117.259 62.1879C117.489 62.8261 117.604 63.5409 117.604 64.3323C117.604 65.1237 117.489 65.8385 117.259 66.4768C117.042 67.115 116.723 67.6574 116.302 68.1042C115.894 68.5509 115.389 68.8956 114.789 69.1382C114.189 69.3807 113.519 69.5019 112.778 69.5019ZM112.778 67.6256C113.481 67.6256 114.036 67.4149 114.445 66.9937C114.853 66.5597 115.057 65.9278 115.057 65.0982V63.5664C115.057 62.7367 114.853 62.1112 114.445 61.69C114.036 61.256 113.481 61.039 112.778 61.039C112.077 61.039 111.521 61.256 111.113 61.69C110.705 62.1112 110.5 62.7367 110.5 63.5664V65.0982C110.5 65.9278 110.705 66.5597 111.113 66.9937C111.521 67.4149 112.077 67.6256 112.778 67.6256ZM124.642 69.5019C123.889 69.5019 123.213 69.3807 122.613 69.1382C122.013 68.8956 121.502 68.5509 121.081 68.1042C120.673 67.6574 120.353 67.115 120.124 66.4768C119.907 65.8385 119.799 65.1237 119.799 64.3323C119.799 63.5409 119.907 62.8261 120.124 62.1879C120.353 61.5496 120.673 61.0071 121.081 60.5604C121.502 60.1136 122.006 59.769 122.594 59.5264C123.194 59.2839 123.87 59.1627 124.623 59.1627C125.67 59.1627 126.512 59.3796 127.151 59.8136C127.789 60.2476 128.274 60.822 128.606 61.5368L126.71 62.5708C126.531 62.1495 126.276 61.8113 125.944 61.556C125.626 61.2879 125.185 61.1539 124.623 61.1539C123.896 61.1539 123.334 61.3645 122.938 61.7858C122.556 62.2069 122.364 62.7814 122.364 63.5089V65.1556C122.364 65.8704 122.556 66.4448 122.938 66.8788C123.334 67.3 123.909 67.5106 124.662 67.5106C125.249 67.5106 125.715 67.3766 126.059 67.1086C126.417 66.8405 126.704 66.4831 126.921 66.0363L128.759 67.1277C128.427 67.8298 127.923 68.4041 127.247 68.8509C126.583 69.2849 125.715 69.5019 124.642 69.5019ZM131.47 55.1035H133.921V63.4132H134.036L135.472 61.8432L137.904 59.3924H140.757L136.831 63.2792L141.178 69.2721H138.248L135.089 64.6769L133.921 65.7874V69.2721H131.47V55.1035ZM142.913 67.3383H145.363V61.3262H142.913V59.3924H147.815V62.0921H147.967C148.057 61.7474 148.178 61.4156 148.331 61.0964C148.497 60.7646 148.701 60.4774 148.944 60.2348C149.199 59.9795 149.505 59.7753 149.863 59.6222C150.22 59.469 150.648 59.3924 151.146 59.3924H152.218V61.69H150.188C149.448 61.69 148.867 61.907 148.446 62.341C148.025 62.775 147.815 63.3303 147.815 64.0068V67.3383H151.241V69.2721H142.913V67.3383ZM162.339 69.2721C161.74 69.2721 161.273 69.1254 160.941 68.8318C160.622 68.5254 160.431 68.1042 160.367 67.5681H160.272C160.093 68.1808 159.741 68.6594 159.219 69.0041C158.695 69.336 158.051 69.5019 157.284 69.5019C156.288 69.5019 155.498 69.2403 154.91 68.7169C154.323 68.1936 154.03 67.466 154.03 66.5341C154.03 64.5429 155.491 63.5473 158.414 63.5473H160.156V62.8963C160.156 62.2708 160.004 61.7985 159.697 61.4794C159.391 61.1603 158.893 61.0007 158.204 61.0007C157.578 61.0007 157.074 61.122 156.691 61.3645C156.308 61.607 155.983 61.9198 155.714 62.3027L154.317 61.1156C154.623 60.5668 155.114 60.1072 155.791 59.737C156.48 59.3541 157.367 59.1627 158.452 59.1627C159.755 59.1627 160.769 59.469 161.497 60.0816C162.237 60.6816 162.607 61.5815 162.607 62.7814V67.4341H163.775V69.2721H162.339ZM158.108 67.817C158.695 67.817 159.18 67.683 159.563 67.4149C159.959 67.1341 160.156 66.7575 160.156 66.2852V64.9642H158.472C157.131 64.9642 156.462 65.3853 156.462 66.2278V66.6108C156.462 67.0064 156.608 67.3064 156.902 67.5106C157.195 67.7149 157.597 67.817 158.108 67.817ZM172.154 67.5298H172.02C171.752 68.1298 171.382 68.6084 170.909 68.9658C170.45 69.3232 169.837 69.5019 169.072 69.5019C168.509 69.5019 167.993 69.3998 167.52 69.1956C167.061 68.9786 166.666 68.6594 166.334 68.2383C166.002 67.8042 165.746 67.2617 165.567 66.6108C165.389 65.9598 165.299 65.2003 165.299 64.3323C165.299 62.5963 165.644 61.3007 166.334 60.4454C167.023 59.5902 167.935 59.1627 169.072 59.1627C169.837 59.1627 170.45 59.3413 170.909 59.6987C171.382 60.0562 171.752 60.5348 172.02 61.1348H172.154V55.1035H174.605V69.2721H172.154V67.5298ZM170.105 67.5489C170.386 67.5489 170.648 67.517 170.89 67.4532C171.146 67.3766 171.362 67.2745 171.541 67.1468C171.733 67.0064 171.88 66.8341 171.982 66.6299C172.097 66.4129 172.154 66.164 172.154 65.8831V62.7814C172.154 62.5005 172.097 62.258 171.982 62.0538C171.88 61.8368 171.733 61.6645 171.541 61.5368C171.362 61.3964 171.146 61.2943 170.89 61.2305C170.648 61.1539 170.386 61.1156 170.105 61.1156C169.391 61.1156 168.835 61.3326 168.44 61.7666C168.056 62.2006 167.865 62.7942 167.865 63.5473V65.1173C167.865 65.8704 168.056 66.464 168.44 66.8979C168.835 67.332 169.391 67.5489 170.105 67.5489ZM185.3 69.2721C184.701 69.2721 184.235 69.1254 183.903 68.8318C183.583 68.5254 183.393 68.1042 183.329 67.5681H183.233C183.054 68.1808 182.703 68.6594 182.18 69.0041C181.656 69.336 181.012 69.5019 180.245 69.5019C179.25 69.5019 178.459 69.2403 177.872 68.7169C177.284 68.1936 176.991 67.466 176.991 66.5341C176.991 64.5429 178.452 63.5473 181.376 63.5473H183.118V62.8963C183.118 62.2708 182.965 61.7985 182.658 61.4794C182.352 61.1603 181.854 61.0007 181.165 61.0007C180.54 61.0007 180.035 61.122 179.652 61.3645C179.269 61.607 178.944 61.9198 178.676 62.3027L177.278 61.1156C177.584 60.5668 178.076 60.1072 178.752 59.737C179.441 59.3541 180.329 59.1627 181.414 59.1627C182.716 59.1627 183.73 59.469 184.458 60.0816C185.198 60.6816 185.568 61.5815 185.568 62.7814V67.4341H186.736V69.2721H185.3ZM181.069 67.817C181.656 67.817 182.141 67.683 182.524 67.4149C182.92 67.1341 183.118 66.7575 183.118 66.2852V64.9642H181.433C180.093 64.9642 179.423 65.3853 179.423 66.2278V66.6108C179.423 67.0064 179.569 67.3064 179.863 67.5106C180.156 67.7149 180.558 67.817 181.069 67.817ZM188.835 67.3383H191.286V61.3262H188.835V59.3924H193.737V62.0921H193.89C193.979 61.7474 194.101 61.4156 194.254 61.0964C194.419 60.7646 194.624 60.4774 194.866 60.2348C195.122 59.9795 195.428 59.7753 195.786 59.6222C196.143 59.469 196.571 59.3924 197.068 59.3924H198.14V61.69H196.111C195.371 61.69 194.79 61.907 194.369 62.341C193.947 62.775 193.737 63.3303 193.737 64.0068V67.3383H197.164V69.2721H188.835V67.3383Z" fill="#8E8E8E"/>
<defs>
<filter id="filter0_d_2_23688" x="0.0753136" y="0.0753136" width="124.454" height="124.454" filterUnits="userSpaceOnUse" color-interpolation-filters="sRGB">
<feFlood flood-opacity="0" result="BackgroundImageFix"/>
<feColorMatrix in="SourceAlpha" type="matrix" values="0 0 0 0 0 0 0 0 0 0 0 0 0 0 0 0 0 0 127 0" result="hardAlpha"/>
<feOffset/>
<feGaussianBlur stdDeviation="23.9335"/>
<feComposite in2="hardAlpha" operator="out"/>
<feColorMatrix type="matrix" values="0 0 0 0 0.730518 0 0 0 0 0.730518 0 0 0 0 0.730518 0 0 0 0.3 0"/>
<feBlend mode="normal" in2="BackgroundImageFix" result="effect1_dropShadow_2_23688"/>
<feBlend mode="normal" in="SourceGraphic" in2="effect1_dropShadow_2_23688" result="shape"/>
</filter>
<filter id="filter1_d_2_23688" x="61.1563" y="48.4244" width="15.0243" height="15.0243" filterUnits="userSpaceOnUse" color-interpolation-filters="sRGB">
<feFlood flood-opacity="0" result="BackgroundImageFix"/>
<feColorMatrix in="SourceAlpha" type="matrix" values="0 0 0 0 0 0 0 0 0 0 0 0 0 0 0 0 0 0 127 0" result="hardAlpha"/>
<feOffset/>
<feGaussianBlur stdDeviation="0.57297"/>
<feColorMatrix type="matrix" values="0 0 0 0 0.443137 0 0 0 0 1 0 0 0 0 0.0117647 0 0 0 1 0"/>
<feBlend mode="normal" in2="BackgroundImageFix" result="effect1_dropShadow_2_23688"/>
<feBlend mode="normal" in="SourceGraphic" in2="effect1_dropShadow_2_23688" result="shape"/>
</filter>
<linearGradient id="paint0_linear_2_23688" x1="80.3539" y1="31.669" x2="62.3026" y2="76.6628" gradientUnits="userSpaceOnUse">
<stop stop-color="#777777"/>
<stop offset="1" stop-opacity="0"/>
</linearGradient>
</defs>
</svg>
