<svg width="646" height="600" viewBox="0 0 646 600" fill="none" xmlns="http://www.w3.org/2000/svg">
<g clip-path="url(#clip0_2_17568)">
<rect width="646" height="600" rx="10" fill="#191919"/>
<g filter="url(#filter0_b_2_17568)">
<rect x="19" y="34" width="608" height="509" rx="6.12595" fill="#222322" fill-opacity="0.5"/>
<rect x="19.6126" y="34.6126" width="606.775" height="507.775" rx="5.51336" stroke="#FEFEFE" stroke-opacity="0.05" stroke-width="1.22519"/>
<rect x="175" y="49" width="296" height="35" rx="6.12595" fill="#292A29"/>
<rect x="175.613" y="49.6126" width="294.775" height="33.7748" rx="5.51336" stroke="#FEFEFE" stroke-opacity="0.05" stroke-width="1.22519"/>
<path d="M221.474 63.3938C221.421 62.9231 221.202 62.5585 220.817 62.3C220.433 62.0382 219.949 61.9073 219.366 61.9073C218.948 61.9073 218.587 61.9736 218.282 62.1061C217.977 62.2354 217.74 62.4144 217.571 62.6431C217.405 62.8684 217.322 63.1253 217.322 63.4137C217.322 63.6556 217.379 63.8644 217.491 64.0401C217.607 64.2157 217.758 64.3632 217.944 64.4826C218.133 64.5986 218.335 64.6963 218.55 64.7759C218.766 64.8521 218.973 64.9151 219.172 64.9648L220.166 65.2233C220.491 65.3029 220.824 65.4106 221.165 65.5465C221.507 65.6824 221.823 65.8613 222.115 66.0834C222.407 66.3055 222.642 66.5806 222.821 66.9087C223.003 67.2368 223.094 67.6296 223.094 68.087C223.094 68.6637 222.945 69.1757 222.647 69.6232C222.352 70.0706 221.923 70.4236 221.359 70.6821C220.799 70.9407 220.121 71.0699 219.326 71.0699C218.564 71.0699 217.904 70.9489 217.347 70.707C216.79 70.465 216.355 70.122 216.04 69.6779C215.725 69.2304 215.551 68.7001 215.518 68.087H217.059C217.089 68.4549 217.208 68.7614 217.417 69.0067C217.629 69.2487 217.899 69.4293 218.227 69.5486C218.559 69.6646 218.922 69.7226 219.316 69.7226C219.75 69.7226 220.136 69.6547 220.474 69.5188C220.816 69.3796 221.084 69.1873 221.28 68.9421C221.475 68.6935 221.573 68.4035 221.573 68.072C221.573 67.7704 221.487 67.5235 221.315 67.3313C221.146 67.139 220.915 66.98 220.623 66.854C220.335 66.7281 220.009 66.617 219.644 66.5209L218.441 66.1928C217.626 65.9707 216.979 65.6442 216.502 65.2134C216.028 64.7825 215.791 64.2124 215.791 63.5032C215.791 62.9165 215.95 62.4044 216.268 61.9669C216.587 61.5294 217.017 61.1897 217.561 60.9478C218.105 60.7025 218.718 60.5799 219.4 60.5799C220.09 60.5799 220.698 60.7008 221.225 60.9428C221.755 61.1847 222.173 61.5178 222.478 61.9421C222.783 62.363 222.942 62.8469 222.955 63.3938H221.474ZM228.102 71.055C227.35 71.055 226.702 70.8943 226.158 70.5728C225.618 70.2479 225.2 69.7922 224.905 69.2056C224.614 68.6156 224.468 67.9246 224.468 67.1324C224.468 66.3502 224.614 65.6608 224.905 65.0642C225.2 64.4676 225.611 64.002 226.138 63.6672C226.669 63.3325 227.288 63.1651 227.998 63.1651C228.428 63.1651 228.846 63.2363 229.25 63.3789C229.655 63.5214 230.018 63.7451 230.339 64.05C230.661 64.355 230.914 64.751 231.1 65.2382C231.285 65.7221 231.378 66.3104 231.378 67.0032V67.5301H225.308V66.4165H229.922C229.922 66.0254 229.842 65.6791 229.683 65.3774C229.524 65.0725 229.3 64.8322 229.012 64.6566C228.727 64.4809 228.392 64.3931 228.008 64.3931C227.59 64.3931 227.225 64.4958 226.914 64.7013C226.606 64.9035 226.367 65.1686 226.198 65.4968C226.032 65.8216 225.949 66.1746 225.949 66.5557V67.4257C225.949 67.9362 226.039 68.3703 226.218 68.7283C226.4 69.0862 226.654 69.3597 226.978 69.5486C227.303 69.7342 227.683 69.827 228.117 69.827C228.399 69.827 228.656 69.7872 228.888 69.7077C229.12 69.6248 229.32 69.5022 229.489 69.3398C229.658 69.1774 229.787 68.9769 229.877 68.7382L231.284 68.9918C231.171 69.4061 230.969 69.769 230.677 70.0806C230.389 70.3888 230.026 70.6291 229.589 70.8014C229.154 70.9705 228.659 71.055 228.102 71.055ZM235.25 71.0699C234.766 71.0699 234.329 70.9804 233.937 70.8014C233.546 70.6192 233.236 70.3557 233.008 70.011C232.782 69.6663 232.67 69.2437 232.67 68.7432C232.67 68.3123 232.753 67.9577 232.918 67.6793C233.084 67.4009 233.308 67.1805 233.589 67.0181C233.871 66.8557 234.186 66.733 234.534 66.6502C234.882 66.5673 235.237 66.5043 235.598 66.4612C236.055 66.4082 236.427 66.3651 236.712 66.332C236.997 66.2955 237.204 66.2375 237.333 66.158C237.462 66.0784 237.527 65.9492 237.527 65.7702V65.7354C237.527 65.3012 237.404 64.9648 237.159 64.7262C236.917 64.4875 236.556 64.3682 236.075 64.3682C235.575 64.3682 235.18 64.4792 234.892 64.7013C234.607 64.9201 234.41 65.1637 234.3 65.4321L232.903 65.1139C233.069 64.6499 233.311 64.2754 233.629 63.9904C233.951 63.702 234.32 63.4932 234.738 63.3639C235.155 63.2314 235.595 63.1651 236.055 63.1651C236.36 63.1651 236.683 63.2015 237.025 63.2745C237.369 63.3441 237.691 63.4733 237.989 63.6622C238.291 63.8512 238.538 64.1213 238.73 64.4726C238.922 64.8206 239.018 65.273 239.018 65.8299V70.9009H237.567V69.8568H237.507C237.411 70.0491 237.267 70.238 237.074 70.4236C236.882 70.6092 236.635 70.7633 236.334 70.886C236.032 71.0086 235.671 71.0699 235.25 71.0699ZM235.573 69.8767C235.984 69.8767 236.335 69.7955 236.627 69.6331C236.922 69.4707 237.146 69.2586 237.298 68.9968C237.454 68.7316 237.532 68.4482 237.532 68.1466V67.1622C237.479 67.2153 237.376 67.265 237.224 67.3114C237.074 67.3545 236.904 67.3926 236.712 67.4257C236.519 67.4556 236.332 67.4837 236.15 67.5103C235.967 67.5335 235.815 67.5533 235.692 67.5699C235.404 67.6064 235.141 67.6677 234.902 67.7539C234.667 67.84 234.478 67.9643 234.335 68.1267C234.196 68.2858 234.126 68.4979 234.126 68.7631C234.126 69.131 234.262 69.4094 234.534 69.5983C234.806 69.7839 235.152 69.8767 235.573 69.8767ZM240.998 70.9009V63.2645H242.435V64.4776H242.515C242.654 64.0666 242.899 63.7434 243.25 63.5081C243.605 63.2695 244.006 63.1502 244.454 63.1502C244.546 63.1502 244.656 63.1535 244.782 63.1601C244.911 63.1667 245.012 63.175 245.085 63.185V64.6068C245.025 64.5903 244.919 64.572 244.767 64.5522C244.614 64.529 244.462 64.5174 244.309 64.5174C243.958 64.5174 243.645 64.5919 243.37 64.7411C243.098 64.8869 242.883 65.0907 242.723 65.3526C242.564 65.6111 242.485 65.9061 242.485 66.2375V70.9009H240.998ZM249.315 71.055C248.575 71.055 247.939 70.8876 247.405 70.5529C246.875 70.2148 246.467 69.7491 246.182 69.1559C245.897 68.5626 245.755 67.8831 245.755 67.1175C245.755 66.3419 245.901 65.6575 246.192 65.0642C246.484 64.4676 246.895 64.002 247.425 63.6672C247.956 63.3325 248.58 63.1651 249.3 63.1651C249.88 63.1651 250.397 63.2728 250.851 63.4882C251.305 63.7004 251.671 63.9987 251.949 64.3831C252.231 64.7676 252.399 65.2167 252.452 65.7304H251.005C250.925 65.3725 250.743 65.0642 250.458 64.8057C250.176 64.5472 249.798 64.4179 249.324 64.4179C248.91 64.4179 248.547 64.5273 248.236 64.746C247.927 64.9615 247.687 65.2697 247.515 65.6708C247.342 66.0685 247.256 66.5391 247.256 67.0827C247.256 67.6395 247.341 68.1201 247.51 68.5245C247.679 68.9288 247.918 69.242 248.226 69.4641C248.537 69.6862 248.904 69.7972 249.324 69.7972C249.606 69.7972 249.861 69.7458 250.09 69.6431C250.322 69.537 250.516 69.3862 250.672 69.1907C250.831 68.9951 250.942 68.7598 251.005 68.4847H252.452C252.399 68.9785 252.238 69.4193 251.969 69.8071C251.701 70.1949 251.341 70.4998 250.891 70.7219C250.443 70.944 249.918 71.055 249.315 71.055ZM255.528 66.3668V70.9009H254.041V60.7191H255.508V64.5074H255.602C255.781 64.0964 256.055 63.77 256.423 63.528C256.791 63.2861 257.271 63.1651 257.864 63.1651C258.388 63.1651 258.845 63.2728 259.237 63.4882C259.631 63.7037 259.936 64.0252 260.151 64.4527C260.37 64.877 260.479 65.4073 260.479 66.0436V70.9009H258.993V66.2226C258.993 65.6625 258.849 65.2283 258.56 64.9201C258.272 64.6085 257.871 64.4527 257.357 64.4527C257.006 64.4527 256.691 64.5273 256.413 64.6764C256.138 64.8256 255.921 65.0443 255.761 65.3327C255.606 65.6177 255.528 65.9624 255.528 66.3668Z" fill="#696969"/>
<path d="M193.052 72.5625C189.017 72.5625 185.739 69.285 185.739 65.25C185.739 61.215 189.017 57.9375 193.052 57.9375C197.087 57.9375 200.364 61.215 200.364 65.25C200.364 69.285 197.087 72.5625 193.052 72.5625ZM193.052 59.0625C189.639 59.0625 186.864 61.8375 186.864 65.25C186.864 68.6625 189.639 71.4375 193.052 71.4375C196.464 71.4375 199.239 68.6625 199.239 65.25C199.239 61.8375 196.464 59.0625 193.052 59.0625Z" fill="#FEFEFE"/>
<path d="M199.922 74.0925C199.862 74.0925 199.802 74.085 199.749 74.0775C199.397 74.0325 198.759 73.7925 198.399 72.72C198.212 72.1575 198.279 71.595 198.587 71.1675C198.894 70.74 199.412 70.5 200.004 70.5C200.769 70.5 201.369 70.7925 201.639 71.31C201.909 71.8275 201.834 72.4875 201.407 73.125C200.874 73.9275 200.297 74.0925 199.922 74.0925ZM199.472 72.3675C199.599 72.7575 199.779 72.9525 199.899 72.9675C200.019 72.9825 200.244 72.84 200.477 72.5025C200.694 72.18 200.709 71.9475 200.657 71.8425C200.604 71.7375 200.394 71.625 200.004 71.625C199.772 71.625 199.599 71.7 199.502 71.8275C199.412 71.955 199.397 72.15 199.472 72.3675Z" fill="#FEFEFE"/>
<path d="M47.8016 131H44.7409V121.545H47.8985C48.8249 121.545 49.6205 121.735 50.2852 122.113C50.95 122.489 51.4594 123.029 51.8133 123.734C52.1703 124.435 52.3488 125.277 52.3488 126.259C52.3488 127.244 52.1688 128.09 51.8087 128.798C51.4517 129.506 50.9346 130.051 50.2575 130.432C49.5805 130.811 48.7618 131 47.8016 131ZM46.1673 129.754H47.7231C48.4433 129.754 49.0419 129.618 49.5189 129.347C49.9959 129.073 50.353 128.678 50.5899 128.161C50.8269 127.641 50.9454 127.007 50.9454 126.259C50.9454 125.517 50.8269 124.888 50.5899 124.371C50.356 123.854 50.0067 123.461 49.542 123.194C49.0773 122.926 48.5002 122.792 47.8108 122.792H46.1673V129.754ZM56.9988 131.143C56.334 131.143 55.7538 130.991 55.2583 130.686C54.7628 130.381 54.3781 129.955 54.1042 129.407C53.8303 128.859 53.6934 128.219 53.6934 127.487C53.6934 126.751 53.8303 126.108 54.1042 125.557C54.3781 125.006 54.7628 124.578 55.2583 124.274C55.7538 123.969 56.334 123.817 56.9988 123.817C57.6635 123.817 58.2437 123.969 58.7392 124.274C59.2347 124.578 59.6194 125.006 59.8933 125.557C60.1672 126.108 60.3042 126.751 60.3042 127.487C60.3042 128.219 60.1672 128.859 59.8933 129.407C59.6194 129.955 59.2347 130.381 58.7392 130.686C58.2437 130.991 57.6635 131.143 56.9988 131.143ZM57.0034 129.984C57.4342 129.984 57.7913 129.871 58.0744 129.643C58.3575 129.415 58.5668 129.112 58.7022 128.733C58.8407 128.355 58.91 127.938 58.91 127.482C58.91 127.03 58.8407 126.614 58.7022 126.236C58.5668 125.854 58.3575 125.548 58.0744 125.317C57.7913 125.086 57.4342 124.971 57.0034 124.971C56.5694 124.971 56.2093 125.086 55.9231 125.317C55.64 125.548 55.4292 125.854 55.2907 126.236C55.1552 126.614 55.0875 127.03 55.0875 127.482C55.0875 127.938 55.1552 128.355 55.2907 128.733C55.4292 129.112 55.64 129.415 55.9231 129.643C56.2093 129.871 56.5694 129.984 57.0034 129.984ZM64.8318 131.143C64.1454 131.143 63.5545 130.988 63.059 130.677C62.5666 130.363 62.1881 129.931 61.9234 129.38C61.6587 128.829 61.5264 128.198 61.5264 127.487C61.5264 126.767 61.6618 126.131 61.9326 125.58C62.2035 125.026 62.5851 124.594 63.0775 124.283C63.5699 123.972 64.1501 123.817 64.8179 123.817C65.3565 123.817 65.8366 123.917 66.2583 124.117C66.6799 124.314 67.02 124.591 67.2785 124.948C67.5401 125.305 67.6955 125.722 67.7448 126.199H66.4014C66.3275 125.866 66.1582 125.58 65.8936 125.34C65.632 125.1 65.2811 124.98 64.841 124.98C64.4563 124.98 64.1193 125.082 63.83 125.285C63.5438 125.485 63.3206 125.771 63.1606 126.143C63.0006 126.513 62.9205 126.95 62.9205 127.455C62.9205 127.972 62.999 128.418 63.156 128.793C63.3129 129.169 63.5345 129.46 63.8208 129.666C64.1101 129.872 64.4501 129.975 64.841 129.975C65.1026 129.975 65.3396 129.927 65.5519 129.832C65.7674 129.734 65.9474 129.594 66.0921 129.412C66.2398 129.23 66.3429 129.012 66.4014 128.756H67.7448C67.6955 129.215 67.5463 129.624 67.297 129.984C67.0477 130.344 66.7137 130.628 66.2952 130.834C65.8797 131.04 65.3919 131.143 64.8318 131.143ZM73.7127 128.059V123.909H75.0977V131H73.7404V129.772H73.6665C73.5034 130.151 73.2418 130.466 72.8817 130.718C72.5247 130.968 72.08 131.092 71.5476 131.092C71.0921 131.092 70.6889 130.992 70.3381 130.792C69.9903 130.589 69.7164 130.289 69.5163 129.892C69.3194 129.495 69.2209 129.004 69.2209 128.419V123.909H70.6012V128.253C70.6012 128.736 70.7351 129.121 71.0028 129.407C71.2706 129.694 71.6184 129.837 72.0462 129.837C72.3047 129.837 72.5617 129.772 72.8171 129.643C73.0756 129.513 73.2895 129.318 73.4588 129.056C73.6312 128.795 73.7158 128.462 73.7127 128.059ZM76.9523 131V123.909H78.2773V125.063H78.365C78.5127 124.672 78.7543 124.368 79.0898 124.149C79.4252 123.928 79.8269 123.817 80.2947 123.817C80.7686 123.817 81.1656 123.928 81.4857 124.149C81.8089 124.371 82.0474 124.675 82.2013 125.063H82.2751C82.4444 124.685 82.7137 124.383 83.083 124.158C83.4523 123.931 83.8924 123.817 84.4033 123.817C85.0465 123.817 85.5713 124.018 85.9775 124.422C86.3869 124.825 86.5915 125.433 86.5915 126.245V131H85.2112V126.374C85.2112 125.894 85.0804 125.546 84.8188 125.331C84.5572 125.116 84.2448 125.008 83.8817 125.008C83.4323 125.008 83.083 125.146 82.8337 125.423C82.5844 125.697 82.4598 126.05 82.4598 126.48V131H81.0841V126.287C81.0841 125.902 80.964 125.593 80.724 125.359C80.4839 125.125 80.1715 125.008 79.7868 125.008C79.5252 125.008 79.2836 125.077 79.0621 125.216C78.8435 125.351 78.6666 125.54 78.5312 125.783C78.3988 126.027 78.3327 126.308 78.3327 126.628V131H76.9523ZM91.4977 131.143C90.7991 131.143 90.1974 130.994 89.6926 130.695C89.191 130.394 88.8032 129.971 88.5293 129.426C88.2585 128.878 88.123 128.236 88.123 127.501C88.123 126.774 88.2585 126.134 88.5293 125.58C88.8032 125.026 89.1848 124.594 89.6742 124.283C90.1666 123.972 90.7421 123.817 91.4007 123.817C91.8008 123.817 92.1886 123.883 92.5641 124.015C92.9396 124.148 93.2766 124.355 93.5751 124.638C93.8736 124.922 94.1091 125.289 94.2814 125.742C94.4538 126.191 94.54 126.737 94.54 127.381V127.87H88.9032V126.836H93.1873C93.1873 126.473 93.1135 126.151 92.9657 125.871C92.818 125.588 92.6103 125.365 92.3425 125.202C92.0778 125.039 91.767 124.957 91.41 124.957C91.0222 124.957 90.6837 125.052 90.3944 125.243C90.1081 125.431 89.8865 125.677 89.7296 125.982C89.5757 126.283 89.4988 126.611 89.4988 126.965V127.773C89.4988 128.247 89.5819 128.65 89.748 128.983C89.9173 129.315 90.1528 129.569 90.4544 129.744C90.756 129.917 91.1084 130.003 91.5115 130.003C91.7731 130.003 92.0117 129.966 92.2271 129.892C92.4425 129.815 92.6287 129.701 92.7857 129.55C92.9426 129.4 93.0627 129.213 93.1458 128.992L94.4522 129.227C94.3476 129.612 94.1599 129.949 93.889 130.238C93.6213 130.525 93.2843 130.748 92.878 130.908C92.4748 131.065 92.0147 131.143 91.4977 131.143ZM97.4518 126.79V131H96.0715V123.909H97.3964V125.063H97.4841C97.6472 124.688 97.9027 124.386 98.2504 124.158C98.6013 123.931 99.0429 123.817 99.5754 123.817C100.059 123.817 100.482 123.918 100.845 124.121C101.208 124.321 101.49 124.62 101.69 125.017C101.89 125.414 101.99 125.905 101.99 126.49V131H100.609V126.656C100.609 126.142 100.476 125.74 100.208 125.451C99.9401 125.159 99.5723 125.012 99.1045 125.012C98.7844 125.012 98.4997 125.082 98.2504 125.22C98.0042 125.359 97.8088 125.562 97.6642 125.83C97.5226 126.094 97.4518 126.414 97.4518 126.79ZM107.151 123.909V125.017H103.278V123.909H107.151ZM104.316 122.21H105.697V128.918C105.697 129.186 105.737 129.387 105.817 129.523C105.897 129.655 106 129.746 106.126 129.795C106.255 129.841 106.395 129.864 106.546 129.864C106.657 129.864 106.754 129.857 106.837 129.841C106.92 129.826 106.985 129.814 107.031 129.804L107.28 130.945C107.2 130.975 107.086 131.006 106.939 131.037C106.791 131.071 106.606 131.089 106.385 131.092C106.022 131.098 105.683 131.034 105.369 130.898C105.055 130.763 104.801 130.554 104.607 130.271C104.413 129.987 104.316 129.632 104.316 129.204V122.21ZM110.741 131.157C110.292 131.157 109.886 131.074 109.523 130.908C109.16 130.738 108.872 130.494 108.659 130.174C108.45 129.854 108.346 129.461 108.346 128.996C108.346 128.596 108.422 128.267 108.576 128.009C108.73 127.75 108.938 127.545 109.2 127.395C109.461 127.244 109.754 127.13 110.077 127.053C110.4 126.976 110.729 126.917 111.065 126.877C111.489 126.828 111.834 126.788 112.099 126.757C112.363 126.724 112.556 126.67 112.676 126.596C112.796 126.522 112.856 126.402 112.856 126.236V126.203C112.856 125.8 112.742 125.488 112.514 125.266C112.29 125.045 111.954 124.934 111.508 124.934C111.043 124.934 110.677 125.037 110.409 125.243C110.144 125.446 109.961 125.673 109.86 125.922L108.562 125.626C108.716 125.196 108.941 124.848 109.237 124.583C109.535 124.315 109.878 124.121 110.266 124.001C110.654 123.878 111.062 123.817 111.489 123.817C111.772 123.817 112.073 123.851 112.39 123.918C112.71 123.983 113.008 124.103 113.285 124.278C113.565 124.454 113.795 124.705 113.973 125.031C114.152 125.354 114.241 125.774 114.241 126.291V131H112.893V130.031H112.837C112.748 130.209 112.614 130.384 112.436 130.557C112.257 130.729 112.028 130.872 111.748 130.986C111.468 131.1 111.132 131.157 110.741 131.157ZM111.042 130.049C111.423 130.049 111.749 129.974 112.02 129.823C112.294 129.672 112.502 129.475 112.643 129.232C112.788 128.986 112.86 128.723 112.86 128.442V127.528C112.811 127.578 112.716 127.624 112.574 127.667C112.436 127.707 112.277 127.742 112.099 127.773C111.92 127.801 111.746 127.827 111.577 127.852C111.408 127.873 111.266 127.892 111.152 127.907C110.885 127.941 110.64 127.998 110.418 128.078C110.2 128.158 110.024 128.273 109.892 128.424C109.763 128.572 109.698 128.769 109.698 129.015C109.698 129.357 109.824 129.615 110.077 129.79C110.329 129.963 110.651 130.049 111.042 130.049ZM119.389 123.909V125.017H115.516V123.909H119.389ZM116.555 122.21H117.935V128.918C117.935 129.186 117.975 129.387 118.055 129.523C118.135 129.655 118.238 129.746 118.364 129.795C118.494 129.841 118.634 129.864 118.785 129.864C118.895 129.864 118.992 129.857 119.075 129.841C119.158 129.826 119.223 129.814 119.269 129.804L119.519 130.945C119.439 130.975 119.325 131.006 119.177 131.037C119.029 131.071 118.845 131.089 118.623 131.092C118.26 131.098 117.921 131.034 117.607 130.898C117.293 130.763 117.04 130.554 116.846 130.271C116.652 129.987 116.555 129.632 116.555 129.204V122.21ZM120.916 131V123.909H122.297V131H120.916ZM121.613 122.815C121.373 122.815 121.167 122.735 120.995 122.575C120.825 122.412 120.741 122.218 120.741 121.993C120.741 121.766 120.825 121.572 120.995 121.412C121.167 121.248 121.373 121.167 121.613 121.167C121.853 121.167 122.058 121.248 122.227 121.412C122.4 121.572 122.486 121.766 122.486 121.993C122.486 122.218 122.4 122.412 122.227 122.575C122.058 122.735 121.853 122.815 121.613 122.815ZM127.14 131.143C126.476 131.143 125.895 130.991 125.4 130.686C124.904 130.381 124.52 129.955 124.246 129.407C123.972 128.859 123.835 128.219 123.835 127.487C123.835 126.751 123.972 126.108 124.246 125.557C124.52 125.006 124.904 124.578 125.4 124.274C125.895 123.969 126.476 123.817 127.14 123.817C127.805 123.817 128.385 123.969 128.881 124.274C129.376 124.578 129.761 125.006 130.035 125.557C130.309 126.108 130.446 126.751 130.446 127.487C130.446 128.219 130.309 128.859 130.035 129.407C129.761 129.955 129.376 130.381 128.881 130.686C128.385 130.991 127.805 131.143 127.14 131.143ZM127.145 129.984C127.576 129.984 127.933 129.871 128.216 129.643C128.499 129.415 128.708 129.112 128.844 128.733C128.982 128.355 129.052 127.938 129.052 127.482C129.052 127.03 128.982 126.614 128.844 126.236C128.708 125.854 128.499 125.548 128.216 125.317C127.933 125.086 127.576 124.971 127.145 124.971C126.711 124.971 126.351 125.086 126.065 125.317C125.782 125.548 125.571 125.854 125.432 126.236C125.297 126.614 125.229 127.03 125.229 127.482C125.229 127.938 125.297 128.355 125.432 128.733C125.571 129.112 125.782 129.415 126.065 129.643C126.351 129.871 126.711 129.984 127.145 129.984ZM133.367 126.79V131H131.987V123.909H133.311V125.063H133.399C133.562 124.688 133.818 124.386 134.165 124.158C134.516 123.931 134.958 123.817 135.49 123.817C135.974 123.817 136.397 123.918 136.76 124.121C137.123 124.321 137.405 124.62 137.605 125.017C137.805 125.414 137.905 125.905 137.905 126.49V131H136.525V126.656C136.525 126.142 136.391 125.74 136.123 125.451C135.855 125.159 135.487 125.012 135.02 125.012C134.699 125.012 134.415 125.082 134.165 125.22C133.919 125.359 133.724 125.562 133.579 125.83C133.438 126.094 133.367 126.414 133.367 126.79Z" fill="#FEFEFE"/>
<line x1="20" y1="97.3874" x2="627" y2="97.3874" stroke="#FEFEFE" stroke-opacity="0.05" stroke-width="1.22519"/>
<line x1="20" y1="154.387" x2="627" y2="154.387" stroke="#FEFEFE" stroke-opacity="0.05" stroke-width="1.22519"/>
<line x1="30" y1="153.885" x2="155" y2="153.885" stroke="#7AF63D" stroke-width="2.23"/>
<rect x="164" y="119" width="111" height="16" rx="8" fill="#292A29"/>
<rect x="33" y="187" width="376" height="22" rx="11" fill="#292A29"/>
<rect x="33" y="223" width="513" height="22" rx="11" fill="#292A29"/>
<rect x="33" y="259" width="455" height="22" rx="11" fill="#292A29"/>
<rect x="33" y="295" width="318" height="22" rx="11" fill="#292A29"/>
<rect x="33" y="331" width="391" height="22" rx="11" fill="#292A29"/>
<rect x="289" y="119" width="111" height="16" rx="8" fill="#292A29"/>
</g>
<rect width="646" height="600" fill="url(#paint0_linear_2_17568)"/>
</g>
<defs>
<filter id="filter0_b_2_17568" x="-31" y="-16" width="708" height="609" filterUnits="userSpaceOnUse" color-interpolation-filters="sRGB">
<feFlood flood-opacity="0" result="BackgroundImageFix"/>
<feGaussianBlur in="BackgroundImageFix" stdDeviation="25"/>
<feComposite in2="SourceAlpha" operator="in" result="effect1_backgroundBlur_2_17568"/>
<feBlend mode="normal" in="SourceGraphic" in2="effect1_backgroundBlur_2_17568" result="shape"/>
</filter>
<linearGradient id="paint0_linear_2_17568" x1="323" y1="0" x2="323" y2="600" gradientUnits="userSpaceOnUse">
<stop offset="0.230945" stop-color="#191919" stop-opacity="0"/>
<stop offset="0.851908" stop-color="#191919"/>
</linearGradient>
<clipPath id="clip0_2_17568">
<rect width="646" height="600" rx="10" fill="white"/>
</clipPath>
</defs>
</svg>
