<svg width="388" height="438" viewBox="0 0 388 438" fill="none" xmlns="http://www.w3.org/2000/svg">
<rect y="69.2974" width="131.855" height="131.855" rx="65.9273" transform="rotate(-13.9573 0 69.2974)" fill="url(#paint0_linear_28_61)"/>
<g clip-path="url(#clip0_28_61)">
<path fill-rule="evenodd" clip-rule="evenodd" d="M42.3389 85.832L34.6068 123.834C34.5766 123.976 34.5926 124.123 34.6523 124.255C34.7121 124.387 34.8125 124.497 34.9389 124.567L89.0364 155.576C89.1901 155.664 89.3719 155.689 89.5439 155.647C89.7158 155.604 89.8646 155.496 89.9591 155.346L123.246 102.623C123.325 102.501 123.362 102.357 123.353 102.213C123.344 102.068 123.289 101.93 123.196 101.819L98.5731 71.8586C98.4926 71.7574 98.3846 71.6816 98.2621 71.6402C98.1395 71.5988 98.0077 71.5936 97.8823 71.6251L42.8459 85.3036C42.7194 85.3334 42.6042 85.3991 42.5142 85.4929C42.4243 85.5866 42.3634 85.7044 42.3389 85.832Z" fill="#50AF95"/>
<path fill-rule="evenodd" clip-rule="evenodd" d="M85.3815 114.92C85.0737 115.021 83.4771 115.521 79.862 116.419C76.9867 117.134 74.9237 117.555 74.1991 117.699C62.9657 119.972 54.191 120.099 53.6154 117.783C53.0398 115.467 60.8537 111.474 71.8421 108.216L73.7203 115.773C74.4599 115.644 76.5712 115.25 79.4465 114.535C82.8969 113.678 84.589 113.105 84.8929 112.999L83.0154 105.444C94.2265 103.183 102.983 103.06 103.557 105.371C104.132 107.681 96.3392 111.672 85.3704 114.92L85.3815 114.92ZM82.8316 104.66L81.1509 97.8979L96.6254 94.052L94.0625 83.74L51.9311 94.2112L54.494 104.523L69.9659 100.678L71.6459 107.437C59.2138 111.141 50.3757 115.982 51.1176 118.967C51.8595 121.952 61.9352 122.09 74.6551 119.545L80.0408 141.215L91.2232 138.436L85.8356 116.758C98.2389 113.062 107.062 108.227 106.321 105.245C105.579 102.262 95.5273 102.118 82.8283 104.658L82.8316 104.66Z" fill="white"/>
</g>
<g clip-path="url(#clip1_28_61)">
<rect x="273.014" y="214.376" width="123.397" height="123.397" rx="61.6986" transform="rotate(21.2774 273.014 214.376)" fill="url(#paint1_linear_28_61)"/>
<path d="M290.461 338.753C315.34 348.442 343.145 336.223 352.834 311.344C362.522 286.465 350.303 258.66 325.425 248.971C300.546 239.283 272.74 251.502 263.052 276.38C253.363 301.259 265.582 329.065 290.461 338.753Z" fill="#2775CA"/>
<path d="M317.521 305.776C320.07 299.231 317.016 295.457 309.525 291.459C304.206 288.524 303.666 286.592 304.685 283.975C305.704 281.358 308.232 280.404 311.971 281.86C315.338 283.171 316.773 285.022 316.614 288.191C316.584 288.826 317 289.417 317.561 289.636L320.555 290.802C321.305 291.094 322.085 290.751 322.377 290.001L322.45 289.813C323.303 285.404 321.174 280.915 317.019 278.868L318.767 274.378C319.059 273.629 318.716 272.849 317.854 272.301L315.049 271.209C314.299 270.917 313.519 271.26 312.972 272.122L311.297 276.422C305.394 274.987 300.382 277.341 298.56 282.019C296.157 288.192 298.949 292.081 306.441 296.074C311.316 299.048 312.562 300.826 311.396 303.82C310.23 306.814 306.812 307.851 303.257 306.466C298.395 304.573 297.513 301.862 298.044 298.837C298.148 298.014 297.731 297.423 297.17 297.205L293.992 295.967C293.242 295.675 292.463 296.018 292.171 296.767L292.097 296.956C291.025 301.925 292.704 306.457 298.513 309.794L296.765 314.283C296.473 315.033 296.815 315.812 297.677 316.36L300.483 317.453C301.233 317.745 302.012 317.402 302.56 316.54L304.308 312.051C310.281 313.296 315.554 310.826 317.521 305.776Z" fill="white"/>
<path d="M287.988 316.893C275.438 305.973 274.292 286.785 285.328 274.498C291.193 267.735 299.696 264.154 308.456 264.334C309.35 264.254 309.942 263.838 310.307 262.9L311.326 260.282C311.618 259.533 311.464 258.827 310.786 258.351C310.597 258.277 310.225 258.132 309.963 258.247C290.01 256.939 272.925 272.041 271.616 291.999C270.904 303.783 275.816 314.96 284.978 322.405C285.582 323.07 286.473 322.988 286.953 322.311C287.215 322.196 287.287 322.012 287.434 321.635L288.453 319.018C288.673 318.452 288.402 317.489 287.988 316.893ZM330.538 266.255C329.934 265.59 329.043 265.672 328.563 266.349C328.301 266.464 328.229 266.648 328.082 267.025L327.063 269.642C326.771 270.392 327.042 271.355 327.456 271.951C340.006 282.871 341.152 302.059 330.116 314.346C324.251 321.11 315.749 324.69 306.989 324.51C306.094 324.59 305.503 325.006 305.137 325.944L304.118 328.562C303.826 329.311 303.98 330.018 304.658 330.494C304.847 330.567 305.219 330.712 305.481 330.597C325.434 331.905 342.519 316.803 343.828 296.845C344.612 284.877 339.516 273.628 330.538 266.255Z" fill="white"/>
</g>
<g clip-path="url(#clip2_28_61)">
<rect x="12.553" y="332.109" width="125.529" height="125.529" rx="62.7647" transform="rotate(-15.3764 12.553 332.109)" fill="url(#paint2_linear_28_61)"/>
<g clip-path="url(#clip3_28_61)">
<path d="M102.562 421.536C127.477 414.682 142.119 388.929 135.266 364.014C128.412 339.099 102.659 324.457 77.7438 331.311C52.8287 338.164 38.1869 363.917 45.0403 388.832C51.8936 413.747 77.647 428.389 102.562 421.536Z" fill="#1B5AFE"/>
<path fill-rule="evenodd" clip-rule="evenodd" d="M61.2432 360.928L65.4712 376.299C73.9596 373.964 78.9489 365.188 76.6149 356.703L61.2432 360.928Z" fill="white"/>
<path fill-rule="evenodd" clip-rule="evenodd" d="M89.3127 402.867L80.801 371.923C80.7653 371.793 80.7296 371.663 80.6974 371.532C80.6653 371.401 80.6332 371.27 80.6046 371.139C80.5761 371.007 80.5476 370.875 80.5237 370.745C80.4988 370.613 80.4749 370.483 80.4545 370.353C80.4342 370.223 80.4129 370.089 80.3926 369.958C80.3723 369.828 80.3556 369.697 80.3425 369.565C80.3258 369.433 80.3127 369.301 80.3006 369.172C80.2875 369.04 80.2791 368.91 80.2706 368.781C80.2621 368.651 80.2536 368.522 80.2487 368.391C80.2438 368.26 80.2389 368.13 80.2387 368.002C80.2384 367.874 80.2371 367.742 80.2368 367.614C80.2366 367.486 80.2399 367.357 80.2468 367.227C80.2502 367.098 80.2571 366.968 80.265 366.841C80.272 366.711 80.2799 366.585 80.2914 366.457C80.303 366.33 80.3145 366.203 80.3297 366.074C80.3448 365.946 80.361 365.821 80.3761 365.693C80.3913 365.564 80.411 365.439 80.4308 365.313C80.4505 365.187 80.4739 365.06 80.4936 364.934C80.517 364.808 80.5413 364.685 80.5683 364.557C80.5963 364.433 80.6242 364.308 80.6522 364.184C80.6802 364.06 80.7117 363.935 80.7443 363.813C80.7769 363.692 80.8084 363.567 80.8446 363.444C80.8808 363.322 80.9169 363.199 80.9541 363.08C80.9913 362.961 81.0311 362.838 81.0718 362.718C81.1126 362.598 81.1534 362.478 81.1988 362.361C81.2431 362.24 81.2885 362.123 81.3339 362.005C81.3793 361.888 81.4283 361.77 81.4782 361.655C81.5272 361.537 81.5772 361.422 81.6308 361.306C81.6844 361.191 81.7344 361.076 81.7925 360.963C81.8471 360.851 81.9043 360.734 81.9589 360.622C82.0171 360.509 82.0753 360.396 82.1345 360.287C82.1936 360.177 82.2554 360.063 82.3192 359.956C82.382 359.846 82.4448 359.735 82.5086 359.629C82.5724 359.522 82.6398 359.414 82.7072 359.306C82.7745 359.198 82.8429 359.094 82.9149 358.989C82.9869 358.884 83.0553 358.779 83.1283 358.678C83.2003 358.573 83.2733 358.471 83.3499 358.368C83.4265 358.266 83.4995 358.164 83.5807 358.064C83.6582 357.965 83.7358 357.866 83.817 357.766C83.8982 357.666 83.9768 357.571 84.059 357.475C84.1412 357.378 84.2234 357.282 84.3102 357.188C84.3934 357.095 84.4801 357.002 84.5669 356.908C84.6537 356.814 84.7415 356.724 84.8329 356.633C84.9207 356.543 85.0121 356.451 85.1045 356.364C85.1969 356.276 85.2892 356.189 85.3816 356.101C85.474 356.014 85.571 355.929 85.668 355.844C85.765 355.759 85.863 355.678 85.9609 355.596C86.0589 355.515 86.1569 355.434 86.2595 355.355C86.3621 355.277 86.461 355.199 86.5636 355.12C86.6662 355.041 86.7698 354.966 86.8734 354.891C86.9769 354.816 87.0851 354.744 87.1897 354.672C87.2943 354.601 87.4024 354.528 87.5116 354.46C87.6208 354.391 87.7299 354.322 87.8391 354.253C87.9483 354.184 88.0621 354.118 88.1732 354.056C88.287 353.99 88.3981 353.928 88.5129 353.866C88.6277 353.803 88.7434 353.744 88.8592 353.685C88.9749 353.626 89.0943 353.566 89.2111 353.511C89.3278 353.455 89.4482 353.399 89.5695 353.346C89.6909 353.293 89.8122 353.241 89.9336 353.188C90.0549 353.135 90.1773 353.086 90.3042 353.039C90.4266 352.99 90.5535 352.943 90.6768 352.898C90.8038 352.851 90.9281 352.809 91.0561 352.766C91.184 352.723 91.3129 352.684 91.4419 352.645C91.5708 352.605 91.7007 352.57 91.8306 352.534L107.064 348.344L111.252 363.566L96.018 367.757L104.53 398.7L89.3127 402.867Z" fill="white"/>
</g>
</g>
<g clip-path="url(#clip4_28_61)">
<rect x="228.235" y="18.2852" width="125.529" height="125.529" rx="62.7647" transform="rotate(-15.3764 228.235 18.2852)" fill="url(#paint3_linear_28_61)"/>
<g clip-path="url(#clip5_28_61)">
<path d="M293.808 19.3312C317.535 12.8062 342.055 26.7521 348.579 50.4751C355.104 74.202 341.162 98.7209 317.435 105.246C293.712 111.77 269.188 97.8268 262.664 74.1019C256.14 50.3789 270.085 25.855 293.808 19.3312Z" fill="#F5AC37"/>
<path d="M308.039 64.8862L324.362 60.3973C324.71 60.3017 324.874 60.2565 324.774 59.7934C324.451 58.0961 323.991 56.4259 323.401 54.8002C323.312 54.4773 323.115 54.3881 322.765 54.4843L290.279 63.4179C289.877 63.5285 289.805 63.6917 289.909 64.0686L291.223 68.8472C291.393 69.4639 291.393 69.4639 292.037 69.2869L308.039 64.8862ZM319.916 49.2605C319.929 49.126 319.893 48.9926 319.813 48.8855C319.378 48.367 318.899 47.8894 318.378 47.4609C317.563 46.7076 316.668 46.0534 315.704 45.5098C315.221 45.1539 314.695 44.8598 314.136 44.6413C311.269 43.3028 308.121 42.6629 304.959 42.7758C303.368 42.8514 301.793 43.112 300.262 43.5476L285.845 47.5123C285.443 47.6229 285.433 47.7983 285.529 48.1481L288.15 57.6783C288.26 58.0804 288.29 58.1887 288.8 58.0483L319.782 49.5283C319.782 49.5283 320.036 49.4002 320.046 49.2249L319.915 49.2611L319.916 49.2605ZM324.612 66.3356C324.142 66.4108 323.682 66.5373 323.24 66.713L293.466 74.9008C293.064 75.0114 292.929 75.0486 293.076 75.586L295.639 84.9036C295.757 85.3327 295.787 85.441 296.324 85.2932L310.07 81.5129C310.741 81.3824 311.386 81.1553 311.992 80.841C313.947 80.1494 315.79 79.1768 317.465 77.9489C318.081 77.5259 318.654 77.0378 319.173 76.4979L319.36 76.4464C322.122 73.8842 324.015 70.5315 324.777 66.8453C324.777 66.8453 324.853 66.3878 324.613 66.3395L324.612 66.3356ZM291.72 91.7555L291.676 91.5951L289.955 85.3395L289.372 83.2189L287.637 76.9093C287.541 76.5594 287.526 76.5072 287.097 76.6252L281.271 78.2275C280.948 78.3163 280.815 78.353 280.697 77.9238L279.294 72.8224L285.522 71.1095C285.87 71.0138 286.006 70.9766 285.88 70.5204L284.492 65.4731C284.403 65.1503 284.381 65.071 283.952 65.189L278.126 66.7913C277.803 66.8801 277.67 66.9167 277.552 66.4876L276.252 61.7631C276.171 61.4673 276.149 61.3881 276.578 61.2701L282.351 59.6827C282.753 59.5721 282.861 59.5423 282.721 59.032L278.741 44.5608C278.623 44.1317 278.593 44.0234 279.131 43.8756L299.266 38.3384C300.743 37.9945 302.239 37.7557 303.748 37.6256C306.858 37.3587 309.993 37.6341 313.008 38.4289C315.011 38.9696 316.935 39.7587 318.737 40.7813C320.103 41.5927 321.391 42.5237 322.591 43.5617C323.79 44.6188 324.871 45.8041 325.818 47.0928C325.989 47.4492 326.418 47.6035 326.776 47.4366L331.581 46.115C332.198 45.9455 332.198 45.9455 332.388 46.5296L333.599 50.9332C333.717 51.3623 333.586 51.5147 333.155 51.6332L329.449 52.6523C329.074 52.7554 328.966 52.7852 329.126 53.2611C329.723 54.8561 330.174 56.4973 330.477 58.1731C330.602 58.6293 330.617 58.6834 331.129 58.5425L335.369 57.3767C335.623 57.5668 335.501 57.86 335.568 58.1036C335.681 58.4073 335.768 58.7224 335.826 59.0411L336.72 62.2906C336.845 62.7469 336.749 62.9189 336.345 63.03L331.271 64.4254C330.898 64.4551 330.617 64.7759 330.632 65.15C330.288 68.6235 329.129 71.9717 327.253 74.9164C326.566 75.9889 325.82 77.0258 325.015 78.0145C324.11 78.9286 323.241 79.86 322.28 80.6733C320.503 82.1434 318.561 83.4009 316.496 84.4283C314.526 85.3693 312.471 86.1153 310.354 86.6663L291.721 91.7905L291.714 91.7634L291.72 91.7555Z" fill="#FEFEFD"/>
</g>
</g>
<defs>
<linearGradient id="paint0_linear_28_61" x1="65.9273" y1="69.2974" x2="65.9273" y2="201.152" gradientUnits="userSpaceOnUse">
<stop stop-color="#3F413F"/>
<stop offset="1" stop-color="#222322"/>
</linearGradient>
<linearGradient id="paint1_linear_28_61" x1="334.713" y1="214.376" x2="334.713" y2="337.774" gradientUnits="userSpaceOnUse">
<stop stop-color="#3F413F"/>
<stop offset="1" stop-color="#222322"/>
</linearGradient>
<linearGradient id="paint2_linear_28_61" x1="75.3177" y1="332.109" x2="75.3177" y2="457.638" gradientUnits="userSpaceOnUse">
<stop stop-color="#3F413F"/>
<stop offset="1" stop-color="#222322"/>
</linearGradient>
<linearGradient id="paint3_linear_28_61" x1="291" y1="18.2852" x2="291" y2="143.815" gradientUnits="userSpaceOnUse">
<stop stop-color="#3F413F"/>
<stop offset="1" stop-color="#222322"/>
</linearGradient>
<clipPath id="clip0_28_61">
<rect width="91.4241" height="79.5297" fill="white" transform="translate(25.9985 89.4907) rotate(-13.9573)"/>
</clipPath>
<clipPath id="clip1_28_61">
<rect x="273.014" y="214.376" width="123.397" height="123.397" rx="61.6986" transform="rotate(21.2774 273.014 214.376)" fill="white"/>
</clipPath>
<clipPath id="clip2_28_61">
<rect x="12.553" y="332.109" width="125.529" height="125.529" rx="62.7647" transform="rotate(-15.3764 12.553 332.109)" fill="white"/>
</clipPath>
<clipPath id="clip3_28_61">
<rect width="93.5765" height="93.5765" fill="white" transform="translate(32.6311 343.72) rotate(-15.38)"/>
</clipPath>
<clipPath id="clip4_28_61">
<rect x="228.235" y="18.2852" width="125.529" height="125.529" rx="62.7647" transform="rotate(-15.3764 228.235 18.2852)" fill="white"/>
</clipPath>
<clipPath id="clip5_28_61">
<rect width="89.1042" height="89.1042" fill="white" transform="translate(250.851 31.1445) rotate(-15.3764)"/>
</clipPath>
</defs>
</svg>
