<svg width="114" height="16" viewBox="0 0 114 16" fill="none" xmlns="http://www.w3.org/2000/svg">
<path d="M0.605469 1.60489H5.2584C6.52142 1.60489 7.492 1.92405 8.16847 2.56229C8.85754 3.18775 9.20208 4.04295 9.20208 5.12799C9.20208 5.89379 9.01049 6.50655 8.62813 6.96605C8.25755 7.42554 7.72813 7.75748 7.03822 7.96168V8.05739C7.84242 8.24891 8.47435 8.59991 8.93402 9.1105C9.40628 9.60831 9.64241 10.3167 9.64241 11.2358C9.64241 11.7975 9.54662 12.308 9.35502 12.7675C9.17687 13.2143 8.91469 13.6036 8.57015 13.9355C8.23822 14.2674 7.82982 14.5227 7.34495 14.7014C6.87268 14.8801 6.33654 14.9694 5.73655 14.9694H0.605469V1.60489ZM4.971 13.1505C5.67268 13.1505 6.19621 13.0228 6.54075 12.7675C6.89789 12.4995 7.07688 12.0464 7.07688 11.4081V10.7763C7.07688 10.1508 6.89789 9.71041 6.54075 9.45512C6.19621 9.18705 5.67268 9.05302 4.971 9.05302H3.05588V13.1505H4.971ZM4.64495 7.31067C5.32142 7.31067 5.81974 7.18941 6.13906 6.94689C6.47099 6.70437 6.63654 6.28311 6.63654 5.6832V5.05135C6.63654 4.45144 6.47099 4.03018 6.13906 3.78766C5.81974 3.54514 5.32142 3.42388 4.64495 3.42388H3.05588V7.31067H4.64495ZM11.9332 13.0356H15.0727V2.73455H11.9332V0.800781H17.5239V13.0356H20.6827V14.9694H11.9332V13.0356ZM27.7785 15.1992C27.0255 15.1992 26.3491 15.078 25.7491 14.8354C25.1625 14.5928 24.6583 14.2482 24.2365 13.8015C23.8281 13.3547 23.5087 12.8123 23.2793 12.174C23.0625 11.5358 22.9541 10.8209 22.9541 10.0296C22.9541 9.23815 23.0625 8.52336 23.2793 7.88513C23.5087 7.24689 23.8281 6.70437 24.2365 6.25765C24.6583 5.81085 25.1625 5.46623 25.7491 5.22371C26.3491 4.98119 27.0255 4.85993 27.7785 4.85993C28.5188 4.85993 29.1894 4.98119 29.7894 5.22371C30.3894 5.46623 30.8936 5.81085 31.302 6.25765C31.723 6.70437 32.0423 7.24689 32.2591 7.88513C32.4886 8.52336 32.6037 9.23815 32.6037 10.0296C32.6037 10.8209 32.4886 11.5358 32.2591 12.174C32.0423 12.8123 31.723 13.3547 31.302 13.8015C30.8936 14.2482 30.3894 14.5928 29.7894 14.8354C29.1894 15.078 28.5188 15.1992 27.7785 15.1992ZM27.7785 13.3228C28.481 13.3228 29.0365 13.1122 29.4449 12.691C29.8533 12.257 30.0575 11.6251 30.0575 10.7955V9.26369C30.0575 8.43395 29.8533 7.80849 29.4449 7.38731C29.0365 6.95328 28.481 6.7363 27.7785 6.7363C27.0768 6.7363 26.5214 6.95328 26.1129 7.38731C25.7045 7.80849 25.5003 8.43395 25.5003 9.26369V10.7955C25.5003 11.6251 25.7045 12.257 26.1129 12.691C26.5214 13.1122 27.0768 13.3228 27.7785 13.3228ZM39.6423 15.1992C38.8894 15.1992 38.2129 15.078 37.6129 14.8354C37.0129 14.5928 36.502 14.2482 36.081 13.8015C35.6726 13.3547 35.3532 12.8123 35.1238 12.174C34.907 11.5358 34.7986 10.8209 34.7986 10.0296C34.7986 9.23815 34.907 8.52336 35.1238 7.88513C35.3532 7.24689 35.6726 6.70437 36.081 6.25765C36.502 5.81085 37.0062 5.46623 37.5936 5.22371C38.1936 4.98119 38.87 4.85993 39.623 4.85993C40.67 4.85993 41.5121 5.0769 42.1507 5.51085C42.7885 5.94488 43.2742 6.51924 43.6062 7.23412L41.7104 8.26806C41.5314 7.8468 41.2759 7.50857 40.944 7.25328C40.6255 6.98521 40.1852 6.85118 39.623 6.85118C38.8961 6.85118 38.3339 7.06177 37.9381 7.48303C37.5558 7.9042 37.3642 8.47865 37.3642 9.20621V10.8528C37.3642 11.5676 37.5558 12.1421 37.9381 12.576C38.3339 12.9973 38.9087 13.2079 39.6616 13.2079C40.249 13.2079 40.7146 13.0738 41.0591 12.8059C41.4171 12.5378 41.7037 12.1804 41.9213 11.7336L43.7591 12.8249C43.4272 13.527 42.923 14.1014 42.2465 14.5482C41.5826 14.9822 40.7146 15.1992 39.6423 15.1992ZM46.47 0.800781H48.9213V9.1105H49.0364L50.4717 7.54042L52.9036 5.08967H55.7565L51.8313 8.97646L56.1776 14.9694H53.2482L50.0893 10.3742L48.9213 11.4847V14.9694H46.47V0.800781ZM57.9128 13.0356H60.3633V7.02345H57.9128V5.08967H62.8145V7.78933H62.9674C63.0565 7.44471 63.1784 7.11286 63.3313 6.7937C63.4969 6.46185 63.7011 6.17462 63.9439 5.9321C64.1994 5.67681 64.5053 5.47261 64.8632 5.31942C65.2204 5.16623 65.6481 5.08967 66.1456 5.08967H67.2178V7.38731H65.1885C64.4481 7.38731 63.8674 7.60428 63.4464 8.03823C63.0246 8.47226 62.8145 9.02756 62.8145 9.70402V13.0356H66.2414V14.9694H57.9128V13.0356ZM77.3388 14.9694C76.7397 14.9694 76.2733 14.8227 75.9414 14.529C75.622 14.2227 75.4313 13.8015 75.3674 13.2654H75.2716C75.0926 13.878 74.7414 14.3567 74.2187 14.7014C73.6951 15.0332 73.0506 15.1992 72.2842 15.1992C71.2884 15.1992 70.4977 14.9375 69.9103 14.4142C69.3229 13.8908 69.0296 13.1633 69.0296 12.2314C69.0296 10.2402 70.491 9.24453 73.4145 9.24453H75.1565V8.59353C75.1565 7.96807 75.0035 7.4958 74.6968 7.17664C74.3909 6.85756 73.8926 6.69799 73.2035 6.69799C72.5783 6.69799 72.0741 6.81925 71.6909 7.06177C71.3078 7.30429 70.9826 7.61705 70.7145 8L69.317 6.81286C69.6229 6.26404 70.1145 5.80446 70.7909 5.43429C71.48 5.05135 72.3674 4.85993 73.4523 4.85993C74.7548 4.85993 75.7691 5.16623 76.4968 5.77891C77.2372 6.37891 77.6069 7.27874 77.6069 8.47865V13.1313H78.775V14.9694H77.3388ZM73.1077 13.5143C73.6951 13.5143 74.18 13.3802 74.5632 13.1122C74.959 12.8313 75.1565 12.4548 75.1565 11.9825V10.6614H73.4716C72.1313 10.6614 71.4615 11.0826 71.4615 11.9251V12.3081C71.4615 12.7037 71.6078 13.0037 71.9019 13.2079C72.1952 13.4122 72.5968 13.5143 73.1077 13.5143ZM87.1539 13.227H87.0203C86.7522 13.827 86.3817 14.3057 85.9094 14.6631C85.4497 15.0205 84.8371 15.1992 84.0716 15.1992C83.5094 15.1992 82.9926 15.097 82.5203 14.8928C82.0607 14.6759 81.6657 14.3567 81.3338 13.9355C81.0018 13.5015 80.7464 12.959 80.5674 12.3081C80.3892 11.657 80.2993 10.8976 80.2993 10.0296C80.2993 8.29353 80.6439 6.99798 81.3338 6.14269C82.0229 5.28749 82.9354 4.85993 84.0716 4.85993C84.8371 4.85993 85.4497 5.03858 85.9094 5.39598C86.3817 5.75345 86.7522 6.23211 87.0203 6.83202H87.1539V0.800781H89.6052V14.9694H87.1539V13.227ZM85.1052 13.2462C85.3859 13.2462 85.648 13.2143 85.8901 13.1505C86.1455 13.0738 86.3623 12.9717 86.5413 12.8441C86.7329 12.7037 86.88 12.5314 86.9817 12.3271C87.0968 12.1102 87.1539 11.8612 87.1539 11.5804V8.47865C87.1539 8.19781 87.0968 7.95529 86.9817 7.75109C86.88 7.53403 86.7329 7.36176 86.5413 7.23412C86.3623 7.0937 86.1455 6.9916 85.8901 6.92774C85.648 6.85118 85.3859 6.81286 85.1052 6.81286C84.3909 6.81286 83.8354 7.02984 83.4396 7.46387C83.0564 7.8979 82.8649 8.49142 82.8649 9.24453V10.8145C82.8649 11.5676 83.0564 12.1612 83.4396 12.5952C83.8354 13.0292 84.3909 13.2462 85.1052 13.2462ZM100.3 14.9694C99.7009 14.9694 99.2346 14.8227 98.9026 14.529C98.5833 14.2227 98.3925 13.8015 98.3287 13.2654H98.2329C98.0539 13.878 97.7026 14.3567 97.1799 14.7014C96.6564 15.0332 96.0119 15.1992 95.2455 15.1992C94.2497 15.1992 93.4589 14.9375 92.8715 14.4142C92.2842 13.8908 91.9909 13.1633 91.9909 12.2314C91.9909 10.2402 93.4522 9.24453 96.3757 9.24453H98.1178V8.59353C98.1178 7.96807 97.9648 7.4958 97.6581 7.17664C97.3522 6.85756 96.8539 6.69799 96.1648 6.69799C95.5396 6.69799 95.0354 6.81925 94.6522 7.06177C94.269 7.30429 93.9438 7.61705 93.6757 8L92.2783 6.81286C92.5842 6.26404 93.0758 5.80446 93.7522 5.43429C94.4413 5.05135 95.3287 4.85993 96.4136 4.85993C97.7161 4.85993 98.7303 5.16623 99.4581 5.77891C100.198 6.37891 100.568 7.27874 100.568 8.47865V13.1313H101.736V14.9694H100.3ZM96.069 13.5143C96.6564 13.5143 97.1413 13.3802 97.5245 13.1122C97.9203 12.8313 98.1178 12.4548 98.1178 11.9825V10.6614H96.4329C95.0926 10.6614 94.4228 11.0826 94.4228 11.9251V12.3081C94.4228 12.7037 94.569 13.0037 94.8631 13.2079C95.1564 13.4122 95.5581 13.5143 96.069 13.5143ZM103.835 13.0356H106.286V7.02345H103.835V5.08967H108.737V7.78933H108.89C108.979 7.44471 109.101 7.11286 109.254 6.7937C109.419 6.46185 109.624 6.17462 109.866 5.9321C110.122 5.67681 110.428 5.47261 110.786 5.31942C111.143 5.16623 111.571 5.08967 112.068 5.08967H113.14V7.38731H111.111C110.371 7.38731 109.79 7.60428 109.369 8.03823C108.947 8.47226 108.737 9.02756 108.737 9.70402V13.0356H112.164V14.9694H103.835V13.0356Z" fill="#8E8E8E"/>
</svg>
