<svg width="1200" height="1187" viewBox="0 0 1200 1187" fill="none" xmlns="http://www.w3.org/2000/svg">
<circle cx="601.5" cy="612.5" r="574" fill="#FEFEFE" fill-opacity="0.04" stroke="#336819"/>
<circle cx="601.5" cy="612.5" r="465" fill="#FEFEFE" fill-opacity="0.04" stroke="#336819"/>
<circle cx="601.5" cy="612.5" r="356" fill="#FEFEFE" fill-opacity="0.04" stroke="#336819"/>
<circle cx="601.5" cy="612.5" r="247" fill="#FEFEFE" fill-opacity="0.04" stroke="#336819"/>
<circle cx="118.5" cy="182.5" r="34.5" fill="url(#paint0_linear_28_8666)"/>
<circle cx="187.5" cy="825.5" r="34.5" fill="url(#paint1_linear_28_8666)"/>
<circle cx="1141.5" cy="272.5" r="34.5" fill="url(#paint2_linear_28_8666)"/>
<circle cx="1019.5" cy="523.5" r="34.5" fill="url(#paint3_linear_28_8666)"/>
<path d="M1041.86 61.1924L1039.09 73.7525L1049.81 80.8609L1037.25 78.0875L1030.14 88.8075L1032.91 76.2474L1022.19 69.139L1034.75 71.9124L1041.86 61.1924Z" fill="#FEFEFE"/>
<rect x="238.18" y="206.903" width="114.941" height="114.941" rx="57.4704" transform="rotate(-13.9573 238.18 206.903)" fill="url(#paint4_linear_28_8666)"/>
<rect x="238.18" y="206.903" width="114.941" height="114.941" rx="57.4704" transform="rotate(-13.9573 238.18 206.903)" stroke="#336819" stroke-width="0.601784"/>
<g clip-path="url(#clip0_28_8666)">
<path fill-rule="evenodd" clip-rule="evenodd" d="M274.916 221.173L268.14 254.474C268.114 254.598 268.128 254.727 268.18 254.843C268.233 254.958 268.321 255.054 268.432 255.116L315.837 282.289C315.971 282.366 316.131 282.388 316.281 282.351C316.432 282.313 316.562 282.219 316.645 282.088L345.814 235.886C345.883 235.78 345.916 235.654 345.908 235.527C345.9 235.4 345.852 235.28 345.771 235.182L324.193 208.928C324.123 208.84 324.028 208.773 323.921 208.737C323.814 208.701 323.698 208.696 323.588 208.724L275.36 220.71C275.249 220.736 275.149 220.794 275.07 220.876C274.991 220.958 274.937 221.061 274.916 221.173Z" fill="#50AF95"/>
<path fill-rule="evenodd" clip-rule="evenodd" d="M312.634 246.662C312.364 246.751 310.965 247.189 307.797 247.976C305.277 248.602 303.47 248.971 302.835 249.098C292.991 251.089 285.302 251.201 284.797 249.171C284.293 247.142 291.14 243.643 300.769 240.787L302.415 247.409C303.063 247.297 304.913 246.951 307.433 246.325C310.457 245.574 311.939 245.071 312.206 244.979L310.56 238.359C320.385 236.377 328.058 236.269 328.561 238.294C329.064 240.319 322.236 243.816 312.624 246.662L312.634 246.662ZM310.399 237.672L308.927 231.746L322.487 228.376L320.241 219.34L283.322 228.515L285.567 237.552L299.125 234.182L300.597 240.105C289.703 243.35 281.959 247.593 282.609 250.209C283.259 252.825 292.088 252.946 303.234 250.715L307.954 269.704L317.753 267.269L313.032 248.273C323.901 245.034 331.632 240.797 330.983 238.184C330.333 235.57 321.524 235.444 310.396 237.67L310.399 237.672Z" fill="white"/>
</g>
<g clip-path="url(#clip1_28_8666)">
<rect x="811.319" y="285.08" width="108.132" height="108.132" rx="54.0658" transform="rotate(21.2774 811.319 285.08)" fill="url(#paint5_linear_28_8666)"/>
<path d="M826.607 394.069C848.408 402.559 872.774 391.852 881.264 370.051C889.754 348.25 879.047 323.884 857.246 315.394C835.445 306.904 811.079 317.612 802.589 339.413C794.099 361.213 804.807 385.579 826.607 394.069Z" fill="#2775CA"/>
<path d="M850.32 365.172C852.553 359.436 849.877 356.129 843.313 352.626C838.652 350.054 838.178 348.361 839.072 346.068C839.965 343.775 842.18 342.938 845.456 344.214C848.407 345.363 849.664 346.986 849.525 349.763C849.499 350.319 849.863 350.837 850.355 351.028L852.979 352.05C853.636 352.306 854.319 352.006 854.575 351.349L854.639 351.184C855.387 347.32 853.521 343.386 849.88 341.592L851.412 337.659C851.667 337.002 851.367 336.318 850.612 335.839L848.153 334.881C847.496 334.625 846.813 334.925 846.333 335.681L844.866 339.449C839.693 338.191 835.301 340.255 833.705 344.354C831.598 349.763 834.045 353.171 840.61 356.67C844.882 359.276 845.974 360.834 844.953 363.458C843.931 366.082 840.936 366.99 837.82 365.777C833.56 364.118 832.787 361.742 833.252 359.092C833.343 358.37 832.978 357.852 832.487 357.661L829.702 356.576C829.045 356.32 828.361 356.621 828.106 357.278L828.041 357.443C827.102 361.798 828.573 365.768 833.663 368.693L832.131 372.627C831.875 373.283 832.176 373.967 832.931 374.447L835.39 375.404C836.047 375.66 836.73 375.36 837.21 374.604L838.742 370.671C843.975 371.762 848.596 369.597 850.32 365.172Z" fill="white"/>
<path d="M824.44 374.914C813.443 365.344 812.439 348.531 822.109 337.763C827.249 331.837 834.7 328.699 842.376 328.857C843.16 328.787 843.678 328.422 843.998 327.6L844.891 325.307C845.147 324.65 845.012 324.031 844.418 323.614C844.253 323.549 843.926 323.422 843.697 323.523C826.212 322.377 811.241 335.61 810.094 353.099C809.47 363.425 813.774 373.22 821.803 379.744C822.332 380.327 823.113 380.254 823.534 379.662C823.763 379.561 823.826 379.4 823.955 379.069L824.848 376.776C825.041 376.28 824.803 375.436 824.44 374.914ZM861.727 330.54C861.197 329.958 860.417 330.03 859.996 330.622C859.766 330.723 859.703 330.885 859.575 331.215L858.682 333.508C858.426 334.165 858.663 335.01 859.026 335.532C870.023 345.101 871.027 361.915 861.357 372.682C856.218 378.609 848.767 381.746 841.09 381.588C840.306 381.659 839.788 382.023 839.468 382.845L838.575 385.139C838.319 385.796 838.454 386.415 839.048 386.832C839.214 386.896 839.54 387.023 839.77 386.922C857.254 388.069 872.225 374.835 873.373 357.346C874.059 346.859 869.594 337.001 861.727 330.54Z" fill="white"/>
</g>
<rect x="811.479" y="285.444" width="107.568" height="107.568" rx="53.7842" transform="rotate(21.2774 811.479 285.444)" stroke="#336819" stroke-width="0.563186"/>
<g clip-path="url(#clip2_28_8666)">
<rect x="466" y="344.167" width="110" height="110" rx="55" transform="rotate(-15.3764 466 344.167)" fill="url(#paint6_linear_28_8666)"/>
<g clip-path="url(#clip3_28_8666)">
<path d="M544.874 422.532C566.707 416.526 579.537 393.959 573.532 372.126C567.526 350.293 544.959 337.463 523.126 343.468C501.293 349.474 488.463 372.041 494.468 393.874C500.474 415.707 523.041 428.537 544.874 422.532Z" fill="#1B5AFE"/>
<path fill-rule="evenodd" clip-rule="evenodd" d="M508.667 369.422L512.372 382.891C519.81 380.845 524.182 373.155 522.137 365.72L508.667 369.422Z" fill="white"/>
<path fill-rule="evenodd" clip-rule="evenodd" d="M533.264 406.172L525.805 379.056C525.774 378.942 525.742 378.828 525.714 378.714C525.686 378.599 525.658 378.484 525.633 378.369C525.608 378.253 525.583 378.138 525.562 378.024C525.54 377.908 525.519 377.794 525.501 377.68C525.484 377.566 525.465 377.449 525.447 377.335C525.429 377.22 525.415 377.105 525.403 376.99C525.389 376.875 525.377 376.759 525.367 376.646C525.355 376.53 525.348 376.416 525.34 376.303C525.333 376.189 525.325 376.075 525.321 375.961C525.317 375.847 525.313 375.732 525.312 375.62C525.312 375.508 525.311 375.392 525.311 375.28C525.31 375.168 525.313 375.055 525.319 374.941C525.322 374.828 525.328 374.714 525.335 374.603C525.341 374.489 525.348 374.378 525.359 374.267C525.369 374.155 525.379 374.044 525.392 373.931C525.405 373.818 525.419 373.709 525.433 373.597C525.446 373.484 525.463 373.374 525.481 373.264C525.498 373.153 525.518 373.042 525.536 372.932C525.556 372.821 525.578 372.713 525.601 372.601C525.626 372.492 525.65 372.384 525.675 372.275C525.699 372.166 525.727 372.056 525.755 371.95C525.784 371.843 525.812 371.734 525.843 371.626C525.875 371.519 525.907 371.412 525.939 371.307C525.972 371.203 526.007 371.095 526.042 370.99C526.078 370.885 526.114 370.78 526.154 370.677C526.193 370.571 526.232 370.468 526.272 370.365C526.312 370.263 526.355 370.159 526.399 370.058C526.441 369.955 526.485 369.854 526.532 369.753C526.579 369.652 526.623 369.551 526.674 369.452C526.722 369.354 526.772 369.252 526.82 369.153C526.871 369.054 526.922 368.955 526.974 368.859C527.025 368.763 527.08 368.663 527.135 368.57C527.191 368.473 527.246 368.376 527.301 368.283C527.357 368.189 527.416 368.095 527.475 368C527.534 367.906 527.594 367.814 527.657 367.722C527.721 367.63 527.781 367.539 527.844 367.449C527.908 367.357 527.972 367.268 528.039 367.178C528.106 367.088 528.17 366.999 528.241 366.912C528.309 366.825 528.377 366.738 528.448 366.651C528.519 366.563 528.588 366.48 528.66 366.395C528.732 366.311 528.804 366.226 528.88 366.144C528.953 366.063 529.029 365.981 529.105 365.898C529.181 365.816 529.258 365.737 529.338 365.657C529.415 365.578 529.495 365.499 529.576 365.422C529.657 365.345 529.738 365.269 529.819 365.192C529.9 365.115 529.985 365.041 530.07 364.966C530.155 364.892 530.241 364.821 530.327 364.749C530.413 364.678 530.498 364.607 530.588 364.538C530.678 364.469 530.765 364.401 530.855 364.332C530.945 364.263 531.035 364.197 531.126 364.131C531.217 364.066 531.312 364.002 531.403 363.94C531.495 363.877 531.59 363.813 531.686 363.753C531.781 363.693 531.877 363.632 531.972 363.572C532.068 363.512 532.168 363.454 532.265 363.4C532.365 363.342 532.462 363.288 532.563 363.233C532.663 363.178 532.765 363.126 532.866 363.075C532.968 363.023 533.072 362.97 533.175 362.922C533.277 362.873 533.382 362.824 533.489 362.777C533.595 362.731 533.702 362.685 533.808 362.639C533.914 362.592 534.021 362.549 534.133 362.508C534.24 362.465 534.351 362.425 534.459 362.385C534.57 362.344 534.679 362.307 534.791 362.269C534.904 362.232 535.017 362.197 535.13 362.163C535.243 362.128 535.356 362.097 535.47 362.066L548.819 358.394L552.489 371.733L539.14 375.405L546.598 402.521L533.264 406.172Z" fill="white"/>
</g>
</g>
<rect x="466.352" y="344.368" width="109.427" height="109.427" rx="54.7135" transform="rotate(-15.3764 466.352 344.368)" stroke="#336819" stroke-width="0.572917"/>
<g clip-path="url(#clip4_28_8666)">
<rect x="714" y="29.1674" width="110" height="110" rx="55" transform="rotate(-15.3764 714 29.1674)" fill="url(#paint7_linear_28_8666)"/>
<g clip-path="url(#clip5_28_8666)">
<path d="M771.461 30.0842C792.252 24.3664 813.739 36.5871 819.456 57.3753C825.173 78.1669 812.956 99.6525 792.165 105.37C771.376 111.087 749.887 98.869 744.17 78.0791C738.453 57.2909 750.672 35.801 771.461 30.0842Z" fill="#F5AC37"/>
<path d="M783.931 70.0035L798.235 66.07C798.539 65.9861 798.683 65.9465 798.596 65.5407C798.312 64.0534 797.91 62.5899 797.392 61.1652C797.314 60.8823 797.142 60.8041 796.835 60.8884L768.368 68.7169C768.016 68.8138 767.953 68.9567 768.044 69.2871L769.196 73.4745C769.344 74.0149 769.344 74.0149 769.908 73.8598L783.931 70.0035ZM794.339 56.3109C794.35 56.193 794.318 56.0761 794.249 55.9823C793.867 55.5279 793.448 55.1094 792.991 54.7339C792.277 54.0738 791.493 53.5005 790.648 53.0242C790.225 52.7123 789.764 52.4546 789.274 52.2631C786.761 51.0902 784.003 50.5294 781.232 50.6284C779.838 50.6946 778.458 50.923 777.116 51.3047L764.482 54.779C764.13 54.8759 764.121 55.0295 764.206 55.3361L766.502 63.6873C766.599 64.0396 766.625 64.1345 767.072 64.0115L794.221 56.5455C794.221 56.5455 794.444 56.4333 794.453 56.2797L794.337 56.3113L794.339 56.3109ZM798.454 71.2736C798.042 71.3395 797.639 71.4503 797.251 71.6043L771.161 78.7792C770.809 78.8761 770.69 78.9087 770.819 79.3796L773.065 87.5445C773.168 87.9205 773.194 88.0154 773.665 87.8859L785.711 84.5733C786.299 84.459 786.864 84.2599 787.395 83.9845C789.108 83.3784 790.724 82.5262 792.191 81.4502C792.731 81.0795 793.233 80.6518 793.687 80.1787L793.852 80.1335C796.272 77.8883 797.931 74.9504 798.599 71.7203C798.599 71.7203 798.665 71.3194 798.455 71.277L798.454 71.2736ZM769.631 93.5488L769.592 93.4082L768.085 87.9265L767.574 86.0683L766.053 80.5392C765.969 80.2326 765.956 80.1869 765.58 80.2903L760.474 81.6943C760.192 81.7721 760.075 81.8043 759.971 81.4282L758.742 76.9579L764.2 75.4569C764.505 75.3731 764.623 75.3405 764.513 74.9407L763.297 70.5178C763.219 70.2349 763.2 70.1654 762.824 70.2688L757.719 71.6729C757.436 71.7507 757.319 71.7828 757.215 71.4068L756.077 67.2667C756.006 67.0076 755.986 66.9381 756.363 66.8347L761.421 65.4437C761.773 65.3468 761.868 65.3207 761.745 64.8735L758.258 52.1926C758.154 51.8165 758.128 51.7216 758.599 51.5921L776.243 46.7399C777.538 46.4386 778.849 46.2293 780.171 46.1153C782.896 45.8815 785.643 46.1228 788.285 46.8192C790.041 47.293 791.727 47.9845 793.305 48.8806C794.503 49.5916 795.631 50.4074 796.683 51.3171C797.734 52.2434 798.681 53.2821 799.511 54.4113C799.66 54.7236 800.036 54.8589 800.35 54.7126L804.561 53.5545C805.101 53.4059 805.101 53.4059 805.267 53.9178L806.329 57.7766C806.432 58.1526 806.318 58.2862 805.94 58.3901L802.693 59.2831C802.364 59.3734 802.269 59.3995 802.409 59.8165C802.932 61.2142 803.328 62.6523 803.593 64.1208C803.703 64.5206 803.716 64.568 804.165 64.4446L807.88 63.423C808.102 63.5896 807.996 63.8465 808.055 64.0599C808.154 64.3261 808.229 64.6023 808.281 64.8815L809.064 67.729C809.174 68.1288 809.089 68.2795 808.735 68.3769L804.289 69.5997C803.963 69.6257 803.715 69.9068 803.729 70.2347C803.427 73.2785 802.412 76.2124 800.768 78.7928C800.166 79.7326 799.512 80.6413 798.807 81.5076C798.014 82.3087 797.253 83.1248 796.41 83.8376C794.853 85.1258 793.152 86.2277 791.342 87.128C789.616 87.9526 787.815 88.6064 785.96 89.0892L769.632 93.5794L769.625 93.5557L769.631 93.5488Z" fill="#FEFEFD"/>
</g>
</g>
<rect x="714.352" y="29.3677" width="109.427" height="109.427" rx="54.7135" transform="rotate(-15.3764 714.352 29.3677)" stroke="#336819" stroke-width="0.572917"/>
<path d="M12.5 466L14.7762 478.224L27 480.5L14.7762 482.776L12.5 495L10.2238 482.776L-2 480.5L10.2238 478.224L12.5 466Z" fill="#FEFEFE"/>
<path d="M236.251 0.401455L239.104 5.18961L244.598 4.25098L239.81 7.10427L240.749 12.5985L237.896 7.81036L232.401 8.74898L237.189 5.89569L236.251 0.401455Z" fill="#FEFEFE"/>
<rect x="-58" width="1316" height="1187" fill="url(#paint8_linear_28_8666)"/>
<defs>
<linearGradient id="paint0_linear_28_8666" x1="118.5" y1="217" x2="118.5" y2="148" gradientUnits="userSpaceOnUse">
<stop stop-color="#5E5E5E"/>
<stop offset="1" stop-color="#191919"/>
</linearGradient>
<linearGradient id="paint1_linear_28_8666" x1="187.5" y1="860" x2="187.5" y2="791" gradientUnits="userSpaceOnUse">
<stop stop-color="#5E5E5E"/>
<stop offset="1" stop-color="#191919"/>
</linearGradient>
<linearGradient id="paint2_linear_28_8666" x1="1141.5" y1="307" x2="1141.5" y2="238" gradientUnits="userSpaceOnUse">
<stop stop-color="#191919"/>
<stop offset="1" stop-color="#5E5E5E"/>
</linearGradient>
<linearGradient id="paint3_linear_28_8666" x1="985" y1="523.5" x2="1054" y2="523.5" gradientUnits="userSpaceOnUse">
<stop stop-color="#191919"/>
<stop offset="1" stop-color="#5E5E5E"/>
</linearGradient>
<linearGradient id="paint4_linear_28_8666" x1="295.586" y1="206.684" x2="295.586" y2="322.226" gradientUnits="userSpaceOnUse">
<stop stop-color="#3F413F"/>
<stop offset="1" stop-color="#222322"/>
</linearGradient>
<linearGradient id="paint5_linear_28_8666" x1="865.385" y1="285.08" x2="865.385" y2="393.211" gradientUnits="userSpaceOnUse">
<stop stop-color="#3F413F"/>
<stop offset="1" stop-color="#222322"/>
</linearGradient>
<linearGradient id="paint6_linear_28_8666" x1="521" y1="344.167" x2="521" y2="454.167" gradientUnits="userSpaceOnUse">
<stop stop-color="#3F413F"/>
<stop offset="1" stop-color="#222322"/>
</linearGradient>
<linearGradient id="paint7_linear_28_8666" x1="769" y1="29.1674" x2="769" y2="139.167" gradientUnits="userSpaceOnUse">
<stop stop-color="#3F413F"/>
<stop offset="1" stop-color="#222322"/>
</linearGradient>
<linearGradient id="paint8_linear_28_8666" x1="600" y1="-737.5" x2="600" y2="1187" gradientUnits="userSpaceOnUse">
<stop offset="0.475682" stop-color="#111111" stop-opacity="0"/>
<stop offset="0.757615" stop-color="#111111"/>
</linearGradient>
<clipPath id="clip0_28_8666">
<rect width="80.1139" height="69.691" fill="white" transform="translate(260.597 224.379) rotate(-13.9573)"/>
</clipPath>
<clipPath id="clip1_28_8666">
<rect x="811.319" y="285.08" width="108.132" height="108.132" rx="54.0658" transform="rotate(21.2774 811.319 285.08)" fill="white"/>
</clipPath>
<clipPath id="clip2_28_8666">
<rect x="466" y="344.167" width="110" height="110" rx="55" transform="rotate(-15.3764 466 344.167)" fill="white"/>
</clipPath>
<clipPath id="clip3_28_8666">
<rect width="82" height="82" fill="white" transform="translate(483.594 354.342) rotate(-15.38)"/>
</clipPath>
<clipPath id="clip4_28_8666">
<rect x="714" y="29.1674" width="110" height="110" rx="55" transform="rotate(-15.3764 714 29.1674)" fill="white"/>
</clipPath>
<clipPath id="clip5_28_8666">
<rect width="78.081" height="78.081" fill="white" transform="translate(733.818 40.4361) rotate(-15.3764)"/>
</clipPath>
</defs>
</svg>
