<svg width="646" height="600" viewBox="0 0 646 600" fill="none" xmlns="http://www.w3.org/2000/svg">
<g clip-path="url(#clip0_2_17679)">
<rect width="646" height="600" rx="10" fill="#191919"/>
<rect width="38" height="38" transform="translate(-1)" fill="#262726"/>
<rect x="37.5" y="0.5" width="37" height="37" stroke="#262726"/>
<rect x="75.5" y="0.5" width="37" height="37" stroke="#262726"/>
<rect width="38" height="38" transform="translate(113)" fill="#262726"/>
<rect x="151.5" y="0.5" width="37" height="37" stroke="#262726"/>
<rect x="189.5" y="0.5" width="37" height="37" stroke="#262726"/>
<rect x="227.5" y="0.5" width="37" height="37" stroke="#262726"/>
<rect x="265.5" y="0.5" width="37" height="37" stroke="#262726"/>
<rect x="303.5" y="0.5" width="37" height="37" stroke="#262726"/>
<rect width="38" height="38" transform="translate(341)" fill="#262726"/>
<rect x="379.5" y="0.5" width="37" height="37" stroke="#262726"/>
<rect x="417.5" y="0.5" width="37" height="37" stroke="#262726"/>
<rect x="455.5" y="0.5" width="37" height="37" stroke="#262726"/>
<rect x="493.5" y="0.5" width="37" height="37" stroke="#262726"/>
<rect width="38" height="38" transform="translate(531)" fill="#262726"/>
<rect x="569.5" y="0.5" width="37" height="37" stroke="#262726"/>
<rect x="607.5" y="0.5" width="37" height="37" stroke="#262726"/>
<rect x="-0.5" y="38.5" width="37" height="37" stroke="#262726"/>
<rect width="38" height="38" transform="translate(37 38)" fill="#262726"/>
<rect x="75.5" y="38.5" width="37" height="37" stroke="#262726"/>
<rect x="113.5" y="38.5" width="37" height="37" stroke="#262726"/>
<rect x="151.5" y="38.5" width="37" height="37" stroke="#262726"/>
<rect x="189.5" y="38.5" width="37" height="37" stroke="#262726"/>
<rect width="38" height="38" transform="translate(227 38)" fill="#262726"/>
<rect x="265.5" y="38.5" width="37" height="37" stroke="#262726"/>
<rect x="303.5" y="38.5" width="37" height="37" stroke="#262726"/>
<rect x="341.5" y="38.5" width="37" height="37" stroke="#262726"/>
<rect x="379.5" y="38.5" width="37" height="37" stroke="#262726"/>
<rect x="417.5" y="38.5" width="37" height="37" stroke="#262726"/>
<rect width="38" height="38" transform="translate(455 38)" fill="#262726"/>
<rect x="493.5" y="38.5" width="37" height="37" stroke="#262726"/>
<rect x="531.5" y="38.5" width="37" height="37" stroke="#262726"/>
<rect x="569.5" y="38.5" width="37" height="37" stroke="#262726"/>
<rect x="607.5" y="38.5" width="37" height="37" stroke="#262726"/>
<rect x="-0.5" y="76.5" width="37" height="37" stroke="#262726"/>
<rect x="37.5" y="76.5" width="37" height="37" stroke="#262726"/>
<rect x="75.5" y="76.5" width="37" height="37" stroke="#262726"/>
<rect width="38" height="38" transform="translate(113 76)" fill="#262726"/>
<rect x="151.5" y="76.5" width="37" height="37" stroke="#262726"/>
<rect x="189.5" y="76.5" width="37" height="37" stroke="#262726"/>
<rect x="227.5" y="76.5" width="37" height="37" stroke="#262726"/>
<rect x="265.5" y="76.5" width="37" height="37" stroke="#262726"/>
<rect x="303.5" y="76.5" width="37" height="37" stroke="#262726"/>
<rect width="38" height="38" transform="translate(341 76)" fill="#262726"/>
<rect x="379.5" y="76.5" width="37" height="37" stroke="#262726"/>
<rect x="417.5" y="76.5" width="37" height="37" stroke="#262726"/>
<rect x="455.5" y="76.5" width="37" height="37" stroke="#262726"/>
<rect x="493.5" y="76.5" width="37" height="37" stroke="#262726"/>
<rect x="531.5" y="76.5" width="37" height="37" stroke="#262726"/>
<rect width="38" height="38" transform="translate(569 76)" fill="#262726"/>
<rect x="607.5" y="76.5" width="37" height="37" stroke="#262726"/>
<rect x="-0.5" y="114.5" width="37" height="37" stroke="#262726"/>
<rect x="37.5" y="114.5" width="37" height="37" stroke="#262726"/>
<rect width="38" height="38" transform="translate(75 114)" fill="#262726"/>
<rect x="113.5" y="114.5" width="37" height="37" stroke="#262726"/>
<rect x="151.5" y="114.5" width="37" height="37" stroke="#262726"/>
<rect x="189.5" y="114.5" width="37" height="37" stroke="#262726"/>
<rect x="227.5" y="114.5" width="37" height="37" stroke="#262726"/>
<rect x="265.5" y="114.5" width="37" height="37" stroke="#262726"/>
<rect x="303.5" y="114.5" width="37" height="37" stroke="#262726"/>
<rect x="341.5" y="114.5" width="37" height="37" stroke="#262726"/>
<rect x="379.5" y="114.5" width="37" height="37" stroke="#262726"/>
<rect x="417.5" y="114.5" width="37" height="37" stroke="#262726"/>
<rect width="38" height="38" transform="translate(455 114)" fill="#262726"/>
<rect x="493.5" y="114.5" width="37" height="37" stroke="#262726"/>
<rect x="531.5" y="114.5" width="37" height="37" stroke="#262726"/>
<rect x="569.5" y="114.5" width="37" height="37" stroke="#262726"/>
<rect x="607.5" y="114.5" width="37" height="37" stroke="#262726"/>
<rect x="-0.5" y="152.5" width="37" height="37" stroke="#262726"/>
<rect x="37.5" y="152.5" width="37" height="37" stroke="#262726"/>
<rect x="75.5" y="152.5" width="37" height="37" stroke="#262726"/>
<rect x="113.5" y="152.5" width="37" height="37" stroke="#262726"/>
<rect x="151.5" y="152.5" width="37" height="37" stroke="#262726"/>
<rect x="189.5" y="152.5" width="37" height="37" stroke="#262726"/>
<rect x="227.5" y="152.5" width="37" height="37" stroke="#262726"/>
<rect width="38" height="38" transform="translate(265 152)" fill="#262726"/>
<rect x="303.5" y="152.5" width="37" height="37" stroke="#262726"/>
<rect x="341.5" y="152.5" width="37" height="37" stroke="#262726"/>
<rect x="379.5" y="152.5" width="37" height="37" stroke="#262726"/>
<rect x="417.5" y="152.5" width="37" height="37" stroke="#262726"/>
<rect x="455.5" y="152.5" width="37" height="37" stroke="#262726"/>
<rect x="493.5" y="152.5" width="37" height="37" stroke="#262726"/>
<rect x="531.5" y="152.5" width="37" height="37" stroke="#262726"/>
<rect x="569.5" y="152.5" width="37" height="37" stroke="#262726"/>
<rect x="607.5" y="152.5" width="37" height="37" stroke="#262726"/>
<rect x="-0.5" y="190.5" width="37" height="37" stroke="#262726"/>
<rect x="37.5" y="190.5" width="37" height="37" stroke="#262726"/>
<rect x="75.5" y="190.5" width="37" height="37" stroke="#262726"/>
<rect x="113.5" y="190.5" width="37" height="37" stroke="#262726"/>
<rect width="38" height="38" transform="translate(151 190)" fill="#262726"/>
<rect x="189.5" y="190.5" width="37" height="37" stroke="#262726"/>
<rect x="227.5" y="190.5" width="37" height="37" stroke="#262726"/>
<rect x="265.5" y="190.5" width="37" height="37" stroke="#262726"/>
<rect x="303.5" y="190.5" width="37" height="37" stroke="#262726"/>
<rect x="341.5" y="190.5" width="37" height="37" stroke="#262726"/>
<rect x="379.5" y="190.5" width="37" height="37" stroke="#262726"/>
<rect x="417.5" y="190.5" width="37" height="37" stroke="#262726"/>
<rect x="455.5" y="190.5" width="37" height="37" stroke="#262726"/>
<rect x="493.5" y="190.5" width="37" height="37" stroke="#262726"/>
<rect x="531.5" y="190.5" width="37" height="37" stroke="#262726"/>
<rect width="38" height="38" transform="translate(569 190)" fill="#262726"/>
<rect x="607.5" y="190.5" width="37" height="37" stroke="#262726"/>
<rect x="-0.5" y="228.5" width="37" height="37" stroke="#262726"/>
<rect x="37.5" y="228.5" width="37" height="37" stroke="#262726"/>
<rect x="75.5" y="228.5" width="37" height="37" stroke="#262726"/>
<rect x="113.5" y="228.5" width="37" height="37" stroke="#262726"/>
<rect x="151.5" y="228.5" width="37" height="37" stroke="#262726"/>
<rect x="189.5" y="228.5" width="37" height="37" stroke="#262726"/>
<rect x="227.5" y="228.5" width="37" height="37" stroke="#262726"/>
<rect x="265.5" y="228.5" width="37" height="37" stroke="#262726"/>
<rect x="303.5" y="228.5" width="37" height="37" stroke="#262726"/>
<rect x="341.5" y="228.5" width="37" height="37" stroke="#262726"/>
<rect x="379.5" y="228.5" width="37" height="37" stroke="#262726"/>
<rect x="417.5" y="228.5" width="37" height="37" stroke="#262726"/>
<rect x="455.5" y="228.5" width="37" height="37" stroke="#262726"/>
<rect x="493.5" y="228.5" width="37" height="37" stroke="#262726"/>
<rect x="531.5" y="228.5" width="37" height="37" stroke="#262726"/>
<rect x="569.5" y="228.5" width="37" height="37" stroke="#262726"/>
<rect x="607.5" y="228.5" width="37" height="37" stroke="#262726"/>
<rect x="-0.5" y="266.5" width="37" height="37" stroke="#262726"/>
<rect x="37.5" y="266.5" width="37" height="37" stroke="#262726"/>
<rect x="75.5" y="266.5" width="37" height="37" stroke="#262726"/>
<rect width="38" height="38" transform="translate(113 266)" fill="#262726"/>
<rect x="151.5" y="266.5" width="37" height="37" stroke="#262726"/>
<rect x="189.5" y="266.5" width="37" height="37" stroke="#262726"/>
<rect x="227.5" y="266.5" width="37" height="37" stroke="#262726"/>
<rect x="265.5" y="266.5" width="37" height="37" stroke="#262726"/>
<rect x="303.5" y="266.5" width="37" height="37" stroke="#262726"/>
<rect width="38" height="38" transform="translate(341 266)" fill="#262726"/>
<rect x="379.5" y="266.5" width="37" height="37" stroke="#262726"/>
<rect x="417.5" y="266.5" width="37" height="37" stroke="#262726"/>
<rect x="455.5" y="266.5" width="37" height="37" stroke="#262726"/>
<rect x="493.5" y="266.5" width="37" height="37" stroke="#262726"/>
<rect x="531.5" y="266.5" width="37" height="37" stroke="#262726"/>
<rect x="569.5" y="266.5" width="37" height="37" stroke="#262726"/>
<rect width="38" height="38" transform="translate(607 266)" fill="#262726"/>
<rect width="38" height="38" transform="translate(-1 304)" fill="#262726"/>
<rect x="37.5" y="304.5" width="37" height="37" stroke="#262726"/>
<rect x="75.5" y="304.5" width="37" height="37" stroke="#262726"/>
<rect x="113.5" y="304.5" width="37" height="37" stroke="#262726"/>
<rect x="151.5" y="304.5" width="37" height="37" stroke="#262726"/>
<rect x="189.5" y="304.5" width="37" height="37" stroke="#262726"/>
<rect x="227.5" y="304.5" width="37" height="37" stroke="#262726"/>
<rect width="38" height="38" transform="translate(265 304)" fill="#262726"/>
<rect x="303.5" y="304.5" width="37" height="37" stroke="#262726"/>
<rect x="341.5" y="304.5" width="37" height="37" stroke="#262726"/>
<rect x="379.5" y="304.5" width="37" height="37" stroke="#262726"/>
<rect x="417.5" y="304.5" width="37" height="37" stroke="#262726"/>
<rect x="455.5" y="304.5" width="37" height="37" stroke="#262726"/>
<rect x="493.5" y="304.5" width="37" height="37" stroke="#262726"/>
<rect x="531.5" y="304.5" width="37" height="37" stroke="#262726"/>
<rect x="569.5" y="304.5" width="37" height="37" stroke="#262726"/>
<rect x="607.5" y="304.5" width="37" height="37" stroke="#262726"/>
<rect x="-0.5" y="342.5" width="37" height="37" stroke="#262726"/>
<rect x="37.5" y="342.5" width="37" height="37" stroke="#262726"/>
<rect x="75.5" y="342.5" width="37" height="37" stroke="#262726"/>
<rect x="113.5" y="342.5" width="37" height="37" stroke="#262726"/>
<rect x="151.5" y="342.5" width="37" height="37" stroke="#262726"/>
<rect x="189.5" y="342.5" width="37" height="37" stroke="#262726"/>
<rect x="227.5" y="342.5" width="37" height="37" stroke="#262726"/>
<rect x="265.5" y="342.5" width="37" height="37" stroke="#262726"/>
<rect x="303.5" y="342.5" width="37" height="37" stroke="#262726"/>
<rect width="38" height="38" transform="translate(341 342)" fill="#262726"/>
<rect x="379.5" y="342.5" width="37" height="37" stroke="#262726"/>
<rect x="417.5" y="342.5" width="37" height="37" stroke="#262726"/>
<rect x="455.5" y="342.5" width="37" height="37" stroke="#262726"/>
<rect x="493.5" y="342.5" width="37" height="37" stroke="#262726"/>
<rect x="531.5" y="342.5" width="37" height="37" stroke="#262726"/>
<rect x="569.5" y="342.5" width="37" height="37" stroke="#262726"/>
<rect x="607.5" y="342.5" width="37" height="37" stroke="#262726"/>
<rect x="-0.5" y="380.5" width="37" height="37" stroke="#262726"/>
<rect x="37.5" y="380.5" width="37" height="37" stroke="#262726"/>
<rect x="75.5" y="380.5" width="37" height="37" stroke="#262726"/>
<rect x="113.5" y="380.5" width="37" height="37" stroke="#262726"/>
<rect x="151.5" y="380.5" width="37" height="37" stroke="#262726"/>
<rect x="189.5" y="380.5" width="37" height="37" stroke="#262726"/>
<rect x="227.5" y="380.5" width="37" height="37" stroke="#262726"/>
<rect x="265.5" y="380.5" width="37" height="37" stroke="#262726"/>
<rect x="303.5" y="380.5" width="37" height="37" stroke="#262726"/>
<rect x="341.5" y="380.5" width="37" height="37" stroke="#262726"/>
<rect x="379.5" y="380.5" width="37" height="37" stroke="#262726"/>
<rect x="417.5" y="380.5" width="37" height="37" stroke="#262726"/>
<rect width="38" height="38" transform="translate(455 380)" fill="#262726"/>
<rect x="493.5" y="380.5" width="37" height="37" stroke="#262726"/>
<rect x="531.5" y="380.5" width="37" height="37" stroke="#262726"/>
<rect x="569.5" y="380.5" width="37" height="37" stroke="#262726"/>
<rect x="607.5" y="380.5" width="37" height="37" stroke="#262726"/>
<rect x="-0.5" y="418.5" width="37" height="37" stroke="#262726"/>
<rect x="37.5" y="418.5" width="37" height="37" stroke="#262726"/>
<rect x="75.5" y="418.5" width="37" height="37" stroke="#262726"/>
<rect x="113.5" y="418.5" width="37" height="37" stroke="#262726"/>
<rect x="151.5" y="418.5" width="37" height="37" stroke="#262726"/>
<rect x="189.5" y="418.5" width="37" height="37" stroke="#262726"/>
<rect width="38" height="38" transform="translate(227 418)" fill="#262726"/>
<rect x="265.5" y="418.5" width="37" height="37" stroke="#262726"/>
<rect x="303.5" y="418.5" width="37" height="37" stroke="#262726"/>
<rect x="341.5" y="418.5" width="37" height="37" stroke="#262726"/>
<rect x="379.5" y="418.5" width="37" height="37" stroke="#262726"/>
<rect x="417.5" y="418.5" width="37" height="37" stroke="#262726"/>
<rect x="455.5" y="418.5" width="37" height="37" stroke="#262726"/>
<rect x="493.5" y="418.5" width="37" height="37" stroke="#262726"/>
<rect x="531.5" y="418.5" width="37" height="37" stroke="#262726"/>
<rect x="569.5" y="418.5" width="37" height="37" stroke="#262726"/>
<rect x="607.5" y="418.5" width="37" height="37" stroke="#262726"/>
<rect x="-0.5" y="456.5" width="37" height="37" stroke="#262726"/>
<rect x="37.5" y="456.5" width="37" height="37" stroke="#262726"/>
<rect x="75.5" y="456.5" width="37" height="37" stroke="#262726"/>
<rect x="113.5" y="456.5" width="37" height="37" stroke="#262726"/>
<rect x="151.5" y="456.5" width="37" height="37" stroke="#262726"/>
<rect x="189.5" y="456.5" width="37" height="37" stroke="#262726"/>
<rect x="227.5" y="456.5" width="37" height="37" stroke="#262726"/>
<rect x="265.5" y="456.5" width="37" height="37" stroke="#262726"/>
<rect x="303.5" y="456.5" width="37" height="37" stroke="#262726"/>
<rect width="38" height="38" transform="translate(341 456)" fill="#262726"/>
<rect x="379.5" y="456.5" width="37" height="37" stroke="#262726"/>
<rect x="417.5" y="456.5" width="37" height="37" stroke="#262726"/>
<rect x="455.5" y="456.5" width="37" height="37" stroke="#262726"/>
<rect x="493.5" y="456.5" width="37" height="37" stroke="#262726"/>
<rect x="531.5" y="456.5" width="37" height="37" stroke="#262726"/>
<rect x="569.5" y="456.5" width="37" height="37" stroke="#262726"/>
<rect x="607.5" y="456.5" width="37" height="37" stroke="#262726"/>
<rect x="-0.5" y="494.5" width="37" height="37" stroke="#262726"/>
<rect width="38" height="38" transform="translate(37 494)" fill="#262726"/>
<rect x="75.5" y="494.5" width="37" height="37" stroke="#262726"/>
<rect x="113.5" y="494.5" width="37" height="37" stroke="#262726"/>
<rect x="151.5" y="494.5" width="37" height="37" stroke="#262726"/>
<rect x="189.5" y="494.5" width="37" height="37" stroke="#262726"/>
<rect x="227.5" y="494.5" width="37" height="37" stroke="#262726"/>
<rect x="265.5" y="494.5" width="37" height="37" stroke="#262726"/>
<rect x="303.5" y="494.5" width="37" height="37" stroke="#262726"/>
<rect x="341.5" y="494.5" width="37" height="37" stroke="#262726"/>
<rect x="379.5" y="494.5" width="37" height="37" stroke="#262726"/>
<rect x="417.5" y="494.5" width="37" height="37" stroke="#262726"/>
<rect x="455.5" y="494.5" width="37" height="37" stroke="#262726"/>
<rect x="493.5" y="494.5" width="37" height="37" stroke="#262726"/>
<rect x="531.5" y="494.5" width="37" height="37" stroke="#262726"/>
<rect x="569.5" y="494.5" width="37" height="37" stroke="#262726"/>
<rect x="607.5" y="494.5" width="37" height="37" stroke="#262726"/>
<rect x="-0.5" y="532.5" width="37" height="37" stroke="#262726"/>
<rect x="37.5" y="532.5" width="37" height="37" stroke="#262726"/>
<rect x="75.5" y="532.5" width="37" height="37" stroke="#262726"/>
<rect x="113.5" y="532.5" width="37" height="37" stroke="#262726"/>
<rect x="151.5" y="532.5" width="37" height="37" stroke="#262726"/>
<rect x="189.5" y="532.5" width="37" height="37" stroke="#262726"/>
<rect x="227.5" y="532.5" width="37" height="37" stroke="#262726"/>
<rect x="265.5" y="532.5" width="37" height="37" stroke="#262726"/>
<rect x="303.5" y="532.5" width="37" height="37" stroke="#262726"/>
<rect x="341.5" y="532.5" width="37" height="37" stroke="#262726"/>
<rect x="379.5" y="532.5" width="37" height="37" stroke="#262726"/>
<rect x="417.5" y="532.5" width="37" height="37" stroke="#262726"/>
<rect x="455.5" y="532.5" width="37" height="37" stroke="#262726"/>
<rect width="38" height="38" transform="translate(493 532)" fill="#262726"/>
<rect x="531.5" y="532.5" width="37" height="37" stroke="#262726"/>
<rect x="569.5" y="532.5" width="37" height="37" stroke="#262726"/>
<rect x="607.5" y="532.5" width="37" height="37" stroke="#262726"/>
<rect x="-0.5" y="570.5" width="37" height="37" stroke="#262726"/>
<rect x="37.5" y="570.5" width="37" height="37" stroke="#262726"/>
<rect x="75.5" y="570.5" width="37" height="37" stroke="#262726"/>
<rect x="113.5" y="570.5" width="37" height="37" stroke="#262726"/>
<rect x="151.5" y="570.5" width="37" height="37" stroke="#262726"/>
<rect x="189.5" y="570.5" width="37" height="37" stroke="#262726"/>
<rect width="38" height="38" transform="translate(227 570)" fill="#262726"/>
<rect x="265.5" y="570.5" width="37" height="37" stroke="#262726"/>
<rect x="303.5" y="570.5" width="37" height="37" stroke="#262726"/>
<rect x="341.5" y="570.5" width="37" height="37" stroke="#262726"/>
<rect x="379.5" y="570.5" width="37" height="37" stroke="#262726"/>
<rect x="417.5" y="570.5" width="37" height="37" stroke="#262726"/>
<rect x="455.5" y="570.5" width="37" height="37" stroke="#262726"/>
<rect x="493.5" y="570.5" width="37" height="37" stroke="#262726"/>
<rect x="531.5" y="570.5" width="37" height="37" stroke="#262726"/>
<rect x="569.5" y="570.5" width="37" height="37" stroke="#262726"/>
<rect x="607.5" y="570.5" width="37" height="37" stroke="#262726"/>
<rect x="-13" width="671" height="617" fill="url(#paint0_radial_2_17679)"/>
<rect x="128" y="57" width="390" height="844" rx="20" fill="#191919"/>
<rect x="128.5" y="57.5" width="389" height="843" rx="19.5" stroke="#FEFEFE" stroke-opacity="0.05"/>
<path d="M178.879 76.7231C181.435 76.7231 183.66 78.541 183.66 82.8574V82.874C183.66 86.9082 181.842 89.2988 178.829 89.2988C176.629 89.2988 174.986 87.9956 174.604 86.1611L174.587 86.0698H176.695L176.72 86.1528C177.036 86.9912 177.775 87.5391 178.829 87.5391C180.73 87.5391 181.535 85.6797 181.626 83.3887C181.626 83.2974 181.634 83.2061 181.634 83.1147H181.468C181.029 84.061 179.983 84.8994 178.339 84.8994C176.04 84.8994 174.429 83.2227 174.429 80.9482V80.9316C174.429 78.4995 176.28 76.7231 178.879 76.7231ZM178.87 83.2559C180.223 83.2559 181.261 82.2764 181.261 80.9233V80.9067C181.261 79.5371 180.223 78.4663 178.895 78.4663C177.575 78.4663 176.521 79.5205 176.521 80.8569V80.8735C176.521 82.2598 177.509 83.2559 178.87 83.2559ZM187.02 81.2388C186.265 81.2388 185.701 80.6577 185.701 79.9272C185.701 79.1885 186.265 78.6157 187.02 78.6157C187.784 78.6157 188.34 79.1885 188.34 79.9272C188.34 80.6577 187.784 81.2388 187.02 81.2388ZM187.02 87.3979C186.265 87.3979 185.701 86.8252 185.701 86.0864C185.701 85.3477 186.265 84.7749 187.02 84.7749C187.784 84.7749 188.34 85.3477 188.34 86.0864C188.34 86.8252 187.784 87.3979 187.02 87.3979ZM196.192 89V86.7007H190.331V84.9492C191.883 82.2515 193.585 79.4956 195.212 77.022H198.242V84.9326H199.852V86.7007H198.242V89H196.192ZM192.323 84.9824H196.225V78.7319H196.1C194.872 80.6079 193.485 82.8242 192.323 84.8579V84.9824ZM204.408 89V79.1304H204.267L201.287 81.2388V79.2217L204.416 77.022H206.55V89H204.408Z" fill="white"/>
<path opacity="0.35" d="M464.528 80C464.528 78.0822 466.082 76.5275 468 76.5275H485C486.918 76.5275 488.472 78.0822 488.472 80V85C488.472 86.9178 486.918 88.4725 485 88.4725H468C466.082 88.4725 464.528 86.9178 464.528 85V80Z" stroke="white" stroke-width="1.05509"/>
<path opacity="0.4" d="M490 81V85.2203C490.849 84.8629 491.401 84.0314 491.401 83.1102C491.401 82.1889 490.849 81.3574 490 81Z" fill="white"/>
<path d="M466 80C466 78.8954 466.895 78 468 78H479C480.105 78 481 78.8954 481 80V85C481 86.1046 480.105 87 479 87H468C466.895 87 466 86.1046 466 85V80Z" fill="white"/>
<path fill-rule="evenodd" clip-rule="evenodd" d="M448.5 79.5875C450.967 79.5876 453.339 80.5551 455.127 82.2898C455.261 82.4237 455.477 82.4221 455.609 82.286L456.896 80.9604C456.963 80.8915 457.001 80.798 457 80.7008C456.999 80.6035 456.961 80.5105 456.893 80.4423C452.201 75.8526 444.799 75.8526 440.107 80.4423C440.039 80.5105 440.001 80.6034 440 80.7007C439.999 80.7979 440.037 80.8914 440.104 80.9604L441.391 82.286C441.523 82.4223 441.739 82.424 441.873 82.2898C443.661 80.5549 446.034 79.5875 448.5 79.5875ZM448.536 83.5894C449.891 83.5893 451.198 84.1035 452.203 85.032C452.338 85.1638 452.552 85.1609 452.685 85.0255L453.97 83.7C454.038 83.6304 454.075 83.5361 454.074 83.4381C454.073 83.3401 454.034 83.2466 453.965 83.1784C450.906 80.2739 446.169 80.2739 443.109 83.1784C443.04 83.2466 443.001 83.3401 443 83.4382C442.999 83.5362 443.037 83.6305 443.105 83.7L444.39 85.0255C444.522 85.1609 444.736 85.1638 444.872 85.032C445.876 84.1041 447.182 83.5899 448.536 83.5894ZM451.15 86.1767C451.152 86.275 451.114 86.3698 451.045 86.4386L448.822 88.7289C448.756 88.7962 448.668 88.834 448.575 88.834C448.482 88.834 448.393 88.7962 448.328 88.7289L446.105 86.4386C446.036 86.3697 445.998 86.2749 446 86.1766C446.002 86.0783 446.044 85.9853 446.115 85.9194C447.535 84.6935 449.615 84.6935 451.035 85.9194C451.106 85.9853 451.148 86.0784 451.15 86.1767Z" fill="white"/>
<path d="M424 80C424 79.4477 424.448 79 425 79H426C426.552 79 427 79.4477 427 80V88C427 88.5523 426.552 89 426 89H425C424.448 89 424 88.5523 424 88V80Z" fill="white"/>
<path d="M429 78C429 77.4477 429.448 77 430 77H431C431.552 77 432 77.4477 432 78V88C432 88.5523 431.552 89 431 89H430C429.448 89 429 88.5523 429 88V78Z" fill="white"/>
<path d="M419 83.5C419 82.9477 419.448 82.5 420 82.5H421C421.552 82.5 422 82.9477 422 83.5V88C422 88.5523 421.552 89 421 89H420C419.448 89 419 88.5523 419 88V83.5Z" fill="white"/>
<path d="M414 86C414 85.4477 414.448 85 415 85H416C416.552 85 417 85.4477 417 86V88C417 88.5523 416.552 89 416 89H415C414.448 89 414 88.5523 414 88V86Z" fill="white"/>
<path d="M153.57 131.93L147.5 138L153.57 144.07" stroke="#797D7B" stroke-width="1.5" stroke-miterlimit="10" stroke-linecap="round" stroke-linejoin="round"/>
<path d="M164.5 138H147.67" stroke="#797D7B" stroke-width="1.5" stroke-miterlimit="10" stroke-linecap="round" stroke-linejoin="round"/>
<path d="M269.091 143.5H265.148V131.864H269.17C270.326 131.864 271.318 132.097 272.148 132.562C272.981 133.025 273.621 133.689 274.068 134.557C274.515 135.424 274.739 136.462 274.739 137.67C274.739 138.883 274.513 139.924 274.062 140.795C273.616 141.667 272.97 142.335 272.125 142.801C271.284 143.267 270.273 143.5 269.091 143.5ZM267.256 141.676H268.989C269.799 141.676 270.475 141.528 271.017 141.233C271.559 140.934 271.966 140.489 272.239 139.898C272.511 139.303 272.648 138.561 272.648 137.67C272.648 136.78 272.511 136.042 272.239 135.455C271.966 134.864 271.563 134.422 271.028 134.131C270.498 133.835 269.839 133.688 269.051 133.688H267.256V141.676ZM280.514 143.67C279.639 143.67 278.884 143.489 278.247 143.125C277.615 142.758 277.128 142.239 276.787 141.568C276.446 140.894 276.276 140.1 276.276 139.188C276.276 138.29 276.446 137.502 276.787 136.824C277.132 136.142 277.613 135.612 278.23 135.233C278.848 134.85 279.573 134.659 280.406 134.659C280.944 134.659 281.452 134.746 281.929 134.92C282.41 135.091 282.834 135.356 283.202 135.716C283.573 136.076 283.865 136.534 284.077 137.091C284.289 137.644 284.395 138.303 284.395 139.068V139.699H277.241V138.312H282.423C282.42 137.919 282.334 137.568 282.168 137.261C282.001 136.951 281.768 136.706 281.469 136.528C281.173 136.35 280.829 136.261 280.435 136.261C280.014 136.261 279.645 136.364 279.327 136.568C279.009 136.769 278.76 137.034 278.582 137.364C278.408 137.689 278.319 138.047 278.315 138.438V139.648C278.315 140.155 278.408 140.591 278.594 140.955C278.779 141.314 279.039 141.591 279.372 141.784C279.705 141.973 280.096 142.068 280.543 142.068C280.842 142.068 281.113 142.027 281.355 141.943C281.598 141.856 281.808 141.729 281.986 141.562C282.164 141.396 282.298 141.189 282.389 140.943L284.31 141.159C284.188 141.667 283.957 142.11 283.616 142.489C283.279 142.864 282.848 143.155 282.321 143.364C281.795 143.568 281.192 143.67 280.514 143.67ZM286.135 146.773V134.773H288.158V136.216H288.277C288.383 136.004 288.533 135.778 288.726 135.54C288.919 135.297 289.18 135.091 289.51 134.92C289.839 134.746 290.26 134.659 290.771 134.659C291.446 134.659 292.054 134.831 292.595 135.176C293.141 135.517 293.572 136.023 293.891 136.693C294.213 137.36 294.374 138.178 294.374 139.148C294.374 140.106 294.216 140.92 293.902 141.591C293.588 142.261 293.16 142.773 292.618 143.125C292.076 143.477 291.463 143.653 290.777 143.653C290.277 143.653 289.862 143.57 289.533 143.403C289.203 143.237 288.938 143.036 288.737 142.801C288.54 142.562 288.387 142.337 288.277 142.125H288.192V146.773H286.135ZM288.152 139.136C288.152 139.701 288.232 140.195 288.391 140.619C288.554 141.044 288.786 141.375 289.089 141.614C289.396 141.848 289.768 141.966 290.203 141.966C290.658 141.966 291.038 141.845 291.345 141.602C291.652 141.356 291.883 141.021 292.038 140.597C292.197 140.169 292.277 139.682 292.277 139.136C292.277 138.595 292.199 138.114 292.044 137.693C291.889 137.273 291.658 136.943 291.351 136.705C291.044 136.466 290.661 136.347 290.203 136.347C289.764 136.347 289.391 136.462 289.084 136.693C288.777 136.924 288.544 137.248 288.385 137.665C288.23 138.081 288.152 138.572 288.152 139.136ZM299.942 143.67C299.089 143.67 298.351 143.483 297.726 143.108C297.101 142.733 296.616 142.208 296.271 141.534C295.93 140.86 295.76 140.072 295.76 139.17C295.76 138.269 295.93 137.479 296.271 136.801C296.616 136.123 297.101 135.597 297.726 135.222C298.351 134.847 299.089 134.659 299.942 134.659C300.794 134.659 301.533 134.847 302.158 135.222C302.783 135.597 303.266 136.123 303.607 136.801C303.951 137.479 304.124 138.269 304.124 139.17C304.124 140.072 303.951 140.86 303.607 141.534C303.266 142.208 302.783 142.733 302.158 143.108C301.533 143.483 300.794 143.67 299.942 143.67ZM299.953 142.023C300.415 142.023 300.802 141.896 301.112 141.642C301.423 141.384 301.654 141.04 301.805 140.608C301.961 140.176 302.038 139.695 302.038 139.165C302.038 138.631 301.961 138.148 301.805 137.716C301.654 137.28 301.423 136.934 301.112 136.676C300.802 136.419 300.415 136.29 299.953 136.29C299.48 136.29 299.086 136.419 298.771 136.676C298.461 136.934 298.228 137.28 298.072 137.716C297.921 138.148 297.845 138.631 297.845 139.165C297.845 139.695 297.921 140.176 298.072 140.608C298.228 141.04 298.461 141.384 298.771 141.642C299.086 141.896 299.48 142.023 299.953 142.023ZM312.767 137.08L310.892 137.284C310.839 137.095 310.746 136.917 310.614 136.75C310.485 136.583 310.311 136.449 310.091 136.347C309.871 136.244 309.602 136.193 309.284 136.193C308.856 136.193 308.496 136.286 308.205 136.472C307.917 136.657 307.775 136.898 307.778 137.193C307.775 137.447 307.867 137.653 308.057 137.812C308.25 137.972 308.568 138.102 309.011 138.205L310.5 138.523C311.326 138.701 311.939 138.983 312.341 139.369C312.746 139.756 312.951 140.261 312.955 140.886C312.951 141.436 312.79 141.92 312.472 142.341C312.157 142.758 311.72 143.083 311.159 143.318C310.598 143.553 309.955 143.67 309.227 143.67C308.159 143.67 307.299 143.447 306.648 143C305.996 142.549 305.608 141.922 305.483 141.119L307.489 140.926C307.58 141.32 307.773 141.617 308.068 141.818C308.364 142.019 308.748 142.119 309.222 142.119C309.71 142.119 310.102 142.019 310.398 141.818C310.697 141.617 310.847 141.369 310.847 141.074C310.847 140.824 310.75 140.617 310.557 140.455C310.367 140.292 310.072 140.167 309.67 140.08L308.182 139.767C307.345 139.593 306.725 139.299 306.324 138.886C305.922 138.47 305.723 137.943 305.727 137.307C305.723 136.769 305.869 136.303 306.165 135.909C306.464 135.511 306.879 135.205 307.409 134.989C307.943 134.769 308.559 134.659 309.256 134.659C310.278 134.659 311.083 134.877 311.67 135.312C312.261 135.748 312.627 136.337 312.767 137.08ZM314.651 143.5V134.773H316.707V143.5H314.651ZM315.685 133.534C315.359 133.534 315.079 133.426 314.844 133.21C314.609 132.991 314.491 132.727 314.491 132.42C314.491 132.11 314.609 131.847 314.844 131.631C315.079 131.411 315.359 131.301 315.685 131.301C316.014 131.301 316.295 131.411 316.526 131.631C316.76 131.847 316.878 132.11 316.878 132.42C316.878 132.727 316.76 132.991 316.526 133.21C316.295 133.426 316.014 133.534 315.685 133.534ZM323.18 134.773V136.364H318.163V134.773H323.18ZM319.402 132.682H321.459V140.875C321.459 141.152 321.5 141.364 321.584 141.511C321.671 141.655 321.785 141.754 321.925 141.807C322.065 141.86 322.22 141.886 322.391 141.886C322.519 141.886 322.637 141.877 322.743 141.858C322.853 141.839 322.936 141.822 322.993 141.807L323.339 143.415C323.23 143.453 323.072 143.494 322.868 143.54C322.667 143.585 322.421 143.612 322.129 143.619C321.614 143.634 321.15 143.557 320.737 143.386C320.324 143.212 319.997 142.943 319.754 142.58C319.516 142.216 319.398 141.761 319.402 141.216V132.682ZM338.92 135.79H336.795C336.735 135.441 336.623 135.133 336.46 134.864C336.297 134.591 336.095 134.36 335.852 134.17C335.61 133.981 335.333 133.839 335.023 133.744C334.716 133.646 334.384 133.597 334.028 133.597C333.396 133.597 332.835 133.756 332.347 134.074C331.858 134.388 331.475 134.85 331.199 135.46C330.922 136.066 330.784 136.807 330.784 137.682C330.784 138.572 330.922 139.322 331.199 139.932C331.479 140.538 331.862 140.996 332.347 141.307C332.835 141.614 333.394 141.767 334.023 141.767C334.371 141.767 334.697 141.722 335 141.631C335.307 141.536 335.581 141.398 335.824 141.216C336.07 141.034 336.277 140.811 336.443 140.545C336.614 140.28 336.731 139.977 336.795 139.636L338.92 139.648C338.841 140.201 338.669 140.72 338.403 141.205C338.142 141.689 337.799 142.117 337.375 142.489C336.951 142.856 336.455 143.144 335.886 143.352C335.318 143.557 334.688 143.659 333.994 143.659C332.972 143.659 332.059 143.422 331.256 142.949C330.453 142.475 329.82 141.792 329.358 140.898C328.896 140.004 328.665 138.932 328.665 137.682C328.665 136.428 328.898 135.356 329.364 134.466C329.83 133.572 330.464 132.888 331.267 132.415C332.07 131.941 332.979 131.705 333.994 131.705C334.642 131.705 335.244 131.795 335.801 131.977C336.358 132.159 336.854 132.426 337.29 132.778C337.725 133.127 338.083 133.555 338.364 134.062C338.648 134.566 338.833 135.142 338.92 135.79ZM340.76 143.5V134.773H342.754V136.227H342.845C343.004 135.723 343.277 135.335 343.663 135.062C344.054 134.786 344.499 134.648 344.999 134.648C345.112 134.648 345.239 134.653 345.379 134.665C345.523 134.672 345.643 134.686 345.737 134.705V136.597C345.65 136.566 345.512 136.54 345.322 136.517C345.137 136.491 344.957 136.477 344.783 136.477C344.408 136.477 344.071 136.559 343.771 136.722C343.476 136.881 343.243 137.102 343.072 137.386C342.902 137.67 342.817 137.998 342.817 138.369V143.5H340.76ZM348.648 146.773C348.367 146.773 348.108 146.75 347.869 146.705C347.634 146.663 347.447 146.614 347.307 146.557L347.784 144.955C348.083 145.042 348.35 145.083 348.585 145.08C348.82 145.076 349.027 145.002 349.205 144.858C349.386 144.718 349.54 144.483 349.665 144.153L349.841 143.682L346.676 134.773H348.858L350.869 141.364H350.96L352.977 134.773H355.165L351.67 144.557C351.508 145.019 351.292 145.415 351.023 145.744C350.754 146.078 350.424 146.331 350.034 146.506C349.648 146.684 349.186 146.773 348.648 146.773ZM356.588 146.773V134.773H358.611V136.216H358.73C358.836 136.004 358.986 135.778 359.179 135.54C359.372 135.297 359.634 135.091 359.963 134.92C360.293 134.746 360.713 134.659 361.224 134.659C361.899 134.659 362.507 134.831 363.048 135.176C363.594 135.517 364.026 136.023 364.344 136.693C364.666 137.36 364.827 138.178 364.827 139.148C364.827 140.106 364.67 140.92 364.355 141.591C364.041 142.261 363.613 142.773 363.071 143.125C362.529 143.477 361.916 143.653 361.23 143.653C360.73 143.653 360.315 143.57 359.986 143.403C359.656 143.237 359.391 143.036 359.19 142.801C358.993 142.562 358.84 142.337 358.73 142.125H358.645V146.773H356.588ZM358.605 139.136C358.605 139.701 358.685 140.195 358.844 140.619C359.007 141.044 359.24 141.375 359.543 141.614C359.849 141.848 360.221 141.966 360.656 141.966C361.111 141.966 361.491 141.845 361.798 141.602C362.105 141.356 362.336 141.021 362.491 140.597C362.651 140.169 362.73 139.682 362.73 139.136C362.73 138.595 362.652 138.114 362.497 137.693C362.342 137.273 362.111 136.943 361.804 136.705C361.497 136.466 361.115 136.347 360.656 136.347C360.217 136.347 359.844 136.462 359.537 136.693C359.23 136.924 358.997 137.248 358.838 137.665C358.683 138.081 358.605 138.572 358.605 139.136ZM370.946 134.773V136.364H365.929V134.773H370.946ZM367.168 132.682H369.224V140.875C369.224 141.152 369.266 141.364 369.349 141.511C369.437 141.655 369.55 141.754 369.69 141.807C369.83 141.86 369.986 141.886 370.156 141.886C370.285 141.886 370.402 141.877 370.509 141.858C370.618 141.839 370.702 141.822 370.759 141.807L371.105 143.415C370.995 143.453 370.838 143.494 370.634 143.54C370.433 143.585 370.187 143.612 369.895 143.619C369.38 143.634 368.916 143.557 368.503 143.386C368.09 143.212 367.762 142.943 367.52 142.58C367.281 142.216 367.164 141.761 367.168 141.216V132.682ZM376.379 143.67C375.527 143.67 374.788 143.483 374.163 143.108C373.538 142.733 373.054 142.208 372.709 141.534C372.368 140.86 372.197 140.072 372.197 139.17C372.197 138.269 372.368 137.479 372.709 136.801C373.054 136.123 373.538 135.597 374.163 135.222C374.788 134.847 375.527 134.659 376.379 134.659C377.232 134.659 377.97 134.847 378.595 135.222C379.22 135.597 379.703 136.123 380.044 136.801C380.389 137.479 380.561 138.269 380.561 139.17C380.561 140.072 380.389 140.86 380.044 141.534C379.703 142.208 379.22 142.733 378.595 143.108C377.97 143.483 377.232 143.67 376.379 143.67ZM376.391 142.023C376.853 142.023 377.239 141.896 377.55 141.642C377.86 141.384 378.091 141.04 378.243 140.608C378.398 140.176 378.476 139.695 378.476 139.165C378.476 138.631 378.398 138.148 378.243 137.716C378.091 137.28 377.86 136.934 377.55 136.676C377.239 136.419 376.853 136.29 376.391 136.29C375.917 136.29 375.523 136.419 375.209 136.676C374.898 136.934 374.665 137.28 374.51 137.716C374.358 138.148 374.283 138.631 374.283 139.165C374.283 139.695 374.358 140.176 374.51 140.608C374.665 141.04 374.898 141.384 375.209 141.642C375.523 141.896 375.917 142.023 376.391 142.023Z" fill="#FEFEFE"/>
<rect x="144" y="174" width="358" height="35" rx="6.12595" fill="#232423"/>
<path d="M190.474 188.394C190.421 187.923 190.202 187.559 189.817 187.3C189.433 187.038 188.949 186.907 188.366 186.907C187.948 186.907 187.587 186.974 187.282 187.106C186.977 187.235 186.74 187.414 186.571 187.643C186.405 187.868 186.322 188.125 186.322 188.414C186.322 188.656 186.379 188.864 186.491 189.04C186.607 189.216 186.758 189.363 186.944 189.483C187.133 189.599 187.335 189.696 187.55 189.776C187.766 189.852 187.973 189.915 188.172 189.965L189.166 190.223C189.491 190.303 189.824 190.411 190.165 190.546C190.507 190.682 190.823 190.861 191.115 191.083C191.407 191.305 191.642 191.581 191.821 191.909C192.003 192.237 192.094 192.63 192.094 193.087C192.094 193.664 191.945 194.176 191.647 194.623C191.352 195.071 190.923 195.424 190.359 195.682C189.799 195.941 189.121 196.07 188.326 196.07C187.564 196.07 186.904 195.949 186.347 195.707C185.79 195.465 185.355 195.122 185.04 194.678C184.725 194.23 184.551 193.7 184.518 193.087H186.059C186.089 193.455 186.208 193.761 186.417 194.007C186.629 194.249 186.899 194.429 187.227 194.549C187.559 194.665 187.922 194.723 188.316 194.723C188.75 194.723 189.136 194.655 189.474 194.519C189.816 194.38 190.084 194.187 190.28 193.942C190.475 193.693 190.573 193.403 190.573 193.072C190.573 192.77 190.487 192.524 190.315 192.331C190.146 192.139 189.915 191.98 189.623 191.854C189.335 191.728 189.009 191.617 188.644 191.521L187.441 191.193C186.626 190.971 185.979 190.644 185.502 190.213C185.028 189.783 184.791 189.212 184.791 188.503C184.791 187.917 184.95 187.404 185.268 186.967C185.587 186.529 186.017 186.19 186.561 185.948C187.105 185.702 187.718 185.58 188.4 185.58C189.09 185.58 189.698 185.701 190.225 185.943C190.755 186.185 191.173 186.518 191.478 186.942C191.783 187.363 191.942 187.847 191.955 188.394H190.474ZM197.102 196.055C196.35 196.055 195.702 195.894 195.158 195.573C194.618 195.248 194.2 194.792 193.905 194.206C193.614 193.616 193.468 192.925 193.468 192.132C193.468 191.35 193.614 190.661 193.905 190.064C194.2 189.468 194.611 189.002 195.138 188.667C195.669 188.332 196.288 188.165 196.998 188.165C197.428 188.165 197.846 188.236 198.25 188.379C198.655 188.521 199.018 188.745 199.339 189.05C199.661 189.355 199.914 189.751 200.1 190.238C200.285 190.722 200.378 191.31 200.378 192.003V192.53H194.308V191.417H198.922C198.922 191.025 198.842 190.679 198.683 190.377C198.524 190.073 198.3 189.832 198.012 189.657C197.727 189.481 197.392 189.393 197.008 189.393C196.59 189.393 196.225 189.496 195.914 189.701C195.606 189.903 195.367 190.169 195.198 190.497C195.032 190.822 194.949 191.175 194.949 191.556V192.426C194.949 192.936 195.039 193.37 195.218 193.728C195.4 194.086 195.654 194.36 195.978 194.549C196.303 194.734 196.683 194.827 197.117 194.827C197.399 194.827 197.656 194.787 197.888 194.708C198.12 194.625 198.32 194.502 198.489 194.34C198.658 194.177 198.787 193.977 198.877 193.738L200.284 193.992C200.171 194.406 199.969 194.769 199.677 195.081C199.389 195.389 199.026 195.629 198.589 195.801C198.154 195.97 197.659 196.055 197.102 196.055ZM204.25 196.07C203.766 196.07 203.329 195.98 202.937 195.801C202.546 195.619 202.236 195.356 202.008 195.011C201.782 194.666 201.67 194.244 201.67 193.743C201.67 193.312 201.753 192.958 201.918 192.679C202.084 192.401 202.308 192.18 202.589 192.018C202.871 191.856 203.186 191.733 203.534 191.65C203.882 191.567 204.237 191.504 204.598 191.461C205.055 191.408 205.427 191.365 205.712 191.332C205.997 191.296 206.204 191.238 206.333 191.158C206.462 191.078 206.527 190.949 206.527 190.77V190.735C206.527 190.301 206.404 189.965 206.159 189.726C205.917 189.488 205.556 189.368 205.075 189.368C204.575 189.368 204.18 189.479 203.892 189.701C203.607 189.92 203.41 190.164 203.3 190.432L201.903 190.114C202.069 189.65 202.311 189.275 202.629 188.99C202.951 188.702 203.32 188.493 203.738 188.364C204.155 188.231 204.595 188.165 205.055 188.165C205.36 188.165 205.683 188.202 206.025 188.274C206.369 188.344 206.691 188.473 206.989 188.662C207.291 188.851 207.538 189.121 207.73 189.473C207.922 189.821 208.018 190.273 208.018 190.83V195.901H206.567V194.857H206.507C206.411 195.049 206.267 195.238 206.074 195.424C205.882 195.609 205.635 195.763 205.334 195.886C205.032 196.009 204.671 196.07 204.25 196.07ZM204.573 194.877C204.984 194.877 205.335 194.796 205.627 194.633C205.922 194.471 206.146 194.259 206.298 193.997C206.454 193.732 206.532 193.448 206.532 193.147V192.162C206.479 192.215 206.376 192.265 206.224 192.311C206.074 192.354 205.904 192.393 205.712 192.426C205.519 192.456 205.332 192.484 205.15 192.51C204.967 192.533 204.815 192.553 204.692 192.57C204.404 192.606 204.141 192.668 203.902 192.754C203.667 192.84 203.478 192.964 203.335 193.127C203.196 193.286 203.126 193.498 203.126 193.763C203.126 194.131 203.262 194.409 203.534 194.598C203.806 194.784 204.152 194.877 204.573 194.877ZM209.998 195.901V188.265H211.435V189.478H211.515C211.654 189.067 211.899 188.743 212.25 188.508C212.605 188.269 213.006 188.15 213.454 188.15C213.546 188.15 213.656 188.153 213.782 188.16C213.911 188.167 214.012 188.175 214.085 188.185V189.607C214.025 189.59 213.919 189.572 213.767 189.552C213.614 189.529 213.462 189.517 213.309 189.517C212.958 189.517 212.645 189.592 212.37 189.741C212.098 189.887 211.883 190.091 211.723 190.353C211.564 190.611 211.485 190.906 211.485 191.238V195.901H209.998ZM218.315 196.055C217.575 196.055 216.939 195.888 216.405 195.553C215.875 195.215 215.467 194.749 215.182 194.156C214.897 193.563 214.755 192.883 214.755 192.117C214.755 191.342 214.901 190.658 215.192 190.064C215.484 189.468 215.895 189.002 216.425 188.667C216.956 188.332 217.58 188.165 218.3 188.165C218.88 188.165 219.397 188.273 219.851 188.488C220.305 188.7 220.671 188.999 220.949 189.383C221.231 189.768 221.399 190.217 221.452 190.73H220.005C219.925 190.372 219.743 190.064 219.458 189.806C219.176 189.547 218.798 189.418 218.324 189.418C217.91 189.418 217.547 189.527 217.236 189.746C216.927 189.961 216.687 190.27 216.515 190.671C216.342 191.068 216.256 191.539 216.256 192.083C216.256 192.64 216.341 193.12 216.51 193.524C216.679 193.929 216.918 194.242 217.226 194.464C217.537 194.686 217.904 194.797 218.324 194.797C218.606 194.797 218.861 194.746 219.09 194.643C219.322 194.537 219.516 194.386 219.672 194.191C219.831 193.995 219.942 193.76 220.005 193.485H221.452C221.399 193.979 221.238 194.419 220.969 194.807C220.701 195.195 220.341 195.5 219.891 195.722C219.443 195.944 218.918 196.055 218.315 196.055ZM224.528 191.367V195.901H223.041V185.719H224.508V189.507H224.602C224.781 189.096 225.055 188.77 225.423 188.528C225.791 188.286 226.271 188.165 226.864 188.165C227.388 188.165 227.845 188.273 228.237 188.488C228.631 188.704 228.936 189.025 229.151 189.453C229.37 189.877 229.479 190.407 229.479 191.044V195.901H227.993V191.223C227.993 190.662 227.849 190.228 227.56 189.92C227.272 189.609 226.871 189.453 226.357 189.453C226.006 189.453 225.691 189.527 225.413 189.676C225.138 189.826 224.921 190.044 224.761 190.333C224.606 190.618 224.528 190.962 224.528 191.367Z" fill="#696969"/>
<path d="M162.052 197.562C158.017 197.562 154.739 194.285 154.739 190.25C154.739 186.215 158.017 182.938 162.052 182.938C166.087 182.938 169.364 186.215 169.364 190.25C169.364 194.285 166.087 197.562 162.052 197.562ZM162.052 184.062C158.639 184.062 155.864 186.837 155.864 190.25C155.864 193.663 158.639 196.438 162.052 196.438C165.464 196.438 168.239 193.663 168.239 190.25C168.239 186.837 165.464 184.062 162.052 184.062Z" fill="#FEFEFE"/>
<path d="M168.922 199.092C168.862 199.092 168.802 199.085 168.749 199.077C168.397 199.033 167.759 198.793 167.399 197.72C167.212 197.158 167.279 196.595 167.587 196.168C167.894 195.74 168.412 195.5 169.004 195.5C169.769 195.5 170.369 195.793 170.639 196.31C170.909 196.827 170.834 197.487 170.407 198.125C169.874 198.928 169.297 199.092 168.922 199.092ZM168.472 197.368C168.599 197.757 168.779 197.952 168.899 197.967C169.019 197.983 169.244 197.84 169.477 197.503C169.694 197.18 169.709 196.947 169.657 196.842C169.604 196.737 169.394 196.625 169.004 196.625C168.772 196.625 168.599 196.7 168.502 196.827C168.412 196.955 168.397 197.15 168.472 197.368Z" fill="#FEFEFE"/>
<rect x="144" y="241" width="40" height="40" rx="20" fill="white"/>
<rect x="144" y="241" width="40" height="40" rx="20" fill="url(#paint1_linear_2_17679)"/>
<g clip-path="url(#clip1_2_17679)">
<path fill-rule="evenodd" clip-rule="evenodd" d="M155.127 249.12L150.021 259.843C150.002 259.883 149.996 259.928 150.004 259.972C150.012 260.016 150.034 260.056 150.066 260.086L163.854 273.299C163.894 273.336 163.946 273.357 164 273.357C164.054 273.357 164.106 273.336 164.146 273.299L177.934 260.087C177.966 260.056 177.988 260.017 177.996 259.973C178.004 259.929 177.998 259.884 177.979 259.844L172.873 249.12C172.857 249.084 172.83 249.054 172.797 249.033C172.764 249.011 172.725 249 172.685 249H155.317C155.277 249 155.238 249.011 155.204 249.032C155.17 249.053 155.144 249.084 155.127 249.12Z" fill="#50AF95"/>
<path fill-rule="evenodd" clip-rule="evenodd" d="M165.772 260.945C165.673 260.952 165.161 260.983 164.02 260.983C163.113 260.983 162.469 260.955 162.243 260.945C158.736 260.79 156.118 260.18 156.118 259.449C156.118 258.718 158.736 258.109 162.243 257.952V260.337C162.472 260.353 163.129 260.392 164.036 260.392C165.125 260.392 165.67 260.347 165.768 260.338V257.954C169.268 258.109 171.879 258.72 171.879 259.449C171.879 260.178 169.268 260.789 165.768 260.944L165.772 260.945ZM165.772 257.707V255.573H170.655V252.319H157.359V255.573H162.242V257.706C158.273 257.888 155.289 258.675 155.289 259.617C155.289 260.559 158.273 261.344 162.242 261.527V268.366H165.771V261.525C169.73 261.342 172.71 260.557 172.71 259.616C172.71 258.675 169.733 257.889 165.771 257.706L165.772 257.707Z" fill="white"/>
</g>
<path d="M203.666 245.818H205.207V252.515C205.207 253.228 205.04 253.859 204.705 254.409C204.371 254.956 203.9 255.387 203.293 255.702C202.687 256.013 201.976 256.169 201.161 256.169C200.348 256.169 199.639 256.013 199.033 255.702C198.426 255.387 197.955 254.956 197.621 254.409C197.286 253.859 197.119 253.228 197.119 252.515V245.818H198.655V252.391C198.655 252.851 198.756 253.261 198.958 253.619C199.164 253.977 199.454 254.258 199.828 254.464C200.203 254.666 200.647 254.767 201.161 254.767C201.678 254.767 202.123 254.666 202.498 254.464C202.876 254.258 203.164 253.977 203.363 253.619C203.565 253.261 203.666 252.851 203.666 252.391V245.818ZM212.994 248.493C212.941 248.022 212.722 247.658 212.338 247.399C211.953 247.137 211.47 247.006 210.886 247.006C210.469 247.006 210.107 247.073 209.802 247.205C209.497 247.335 209.26 247.513 209.091 247.742C208.926 247.968 208.843 248.224 208.843 248.513C208.843 248.755 208.899 248.964 209.012 249.139C209.128 249.315 209.279 249.462 209.464 249.582C209.653 249.698 209.855 249.795 210.071 249.875C210.286 249.951 210.493 250.014 210.692 250.064L211.687 250.322C212.011 250.402 212.345 250.51 212.686 250.646C213.027 250.781 213.344 250.96 213.635 251.183C213.927 251.405 214.162 251.68 214.341 252.008C214.524 252.336 214.615 252.729 214.615 253.186C214.615 253.763 214.466 254.275 214.167 254.722C213.872 255.17 213.443 255.523 212.88 255.781C212.32 256.04 211.642 256.169 210.846 256.169C210.084 256.169 209.425 256.048 208.868 255.806C208.311 255.564 207.875 255.221 207.56 254.777C207.245 254.33 207.071 253.799 207.038 253.186H208.579C208.609 253.554 208.729 253.861 208.937 254.106C209.149 254.348 209.42 254.528 209.748 254.648C210.079 254.764 210.442 254.822 210.836 254.822C211.271 254.822 211.657 254.754 211.995 254.618C212.336 254.479 212.605 254.286 212.8 254.041C212.996 253.793 213.094 253.503 213.094 253.171C213.094 252.87 213.007 252.623 212.835 252.43C212.666 252.238 212.436 252.079 212.144 251.953C211.856 251.827 211.529 251.716 211.165 251.62L209.961 251.292C209.146 251.07 208.5 250.743 208.023 250.312C207.549 249.882 207.312 249.312 207.312 248.602C207.312 248.016 207.471 247.504 207.789 247.066C208.107 246.629 208.538 246.289 209.081 246.047C209.625 245.802 210.238 245.679 210.921 245.679C211.61 245.679 212.219 245.8 212.746 246.042C213.276 246.284 213.693 246.617 213.998 247.041C214.303 247.462 214.462 247.946 214.476 248.493H212.994ZM219.747 256H216.451V245.818H219.851C220.849 245.818 221.706 246.022 222.422 246.43C223.137 246.834 223.686 247.416 224.067 248.175C224.452 248.93 224.644 249.837 224.644 250.894C224.644 251.955 224.45 252.866 224.062 253.629C223.678 254.391 223.121 254.978 222.392 255.388C221.663 255.796 220.781 256 219.747 256ZM217.987 254.658H219.662C220.438 254.658 221.083 254.512 221.596 254.22C222.11 253.925 222.494 253.499 222.75 252.942C223.005 252.382 223.132 251.7 223.132 250.894C223.132 250.095 223.005 249.418 222.75 248.861C222.498 248.304 222.122 247.881 221.621 247.593C221.121 247.305 220.499 247.161 219.757 247.161H217.987V254.658ZM225.615 247.141V245.818H233.494V247.141H230.318V256H228.786V247.141H225.615Z" fill="#FEFEFE"/>
<path d="M200.121 278.273V265.545H200.937V278.273H200.121ZM202.672 269.493C202.619 269.022 202.4 268.658 202.016 268.399C201.631 268.137 201.147 268.006 200.564 268.006C200.146 268.006 199.785 268.073 199.48 268.205C199.175 268.335 198.938 268.513 198.769 268.742C198.603 268.968 198.521 269.224 198.521 269.513C198.521 269.755 198.577 269.964 198.69 270.139C198.806 270.315 198.956 270.462 199.142 270.582C199.331 270.698 199.533 270.795 199.749 270.875C199.964 270.951 200.171 271.014 200.37 271.064L201.364 271.322C201.689 271.402 202.022 271.51 202.364 271.646C202.705 271.781 203.022 271.96 203.313 272.183C203.605 272.405 203.84 272.68 204.019 273.008C204.201 273.336 204.293 273.729 204.293 274.186C204.293 274.763 204.143 275.275 203.845 275.722C203.55 276.17 203.121 276.523 202.558 276.781C201.997 277.04 201.32 277.169 200.524 277.169C199.762 277.169 199.102 277.048 198.545 276.806C197.989 276.564 197.553 276.221 197.238 275.777C196.923 275.33 196.749 274.799 196.716 274.186H198.257C198.287 274.554 198.406 274.861 198.615 275.106C198.827 275.348 199.097 275.528 199.425 275.648C199.757 275.764 200.12 275.822 200.514 275.822C200.948 275.822 201.335 275.754 201.673 275.618C202.014 275.479 202.282 275.286 202.478 275.041C202.674 274.793 202.771 274.503 202.771 274.171C202.771 273.87 202.685 273.623 202.513 273.43C202.344 273.238 202.113 273.079 201.822 272.953C201.533 272.827 201.207 272.716 200.842 272.62L199.639 272.292C198.824 272.07 198.178 271.743 197.7 271.312C197.226 270.882 196.989 270.312 196.989 269.602C196.989 269.016 197.148 268.504 197.467 268.066C197.785 267.629 198.216 267.289 198.759 267.047C199.303 266.802 199.916 266.679 200.599 266.679C201.288 266.679 201.896 266.8 202.423 267.042C202.954 267.284 203.371 267.617 203.676 268.041C203.981 268.462 204.14 268.946 204.153 269.493H202.672ZM209.534 277.169C208.748 277.166 208.077 276.959 207.52 276.548C206.964 276.137 206.538 275.538 206.243 274.753C205.948 273.967 205.8 273.021 205.8 271.914C205.8 270.81 205.948 269.867 206.243 269.085C206.541 268.303 206.969 267.706 207.525 267.295C208.086 266.884 208.755 266.679 209.534 266.679C210.313 266.679 210.981 266.886 211.537 267.3C212.094 267.711 212.52 268.308 212.815 269.09C213.113 269.869 213.263 270.81 213.263 271.914C213.263 273.024 213.115 273.972 212.82 274.758C212.525 275.54 212.099 276.138 211.542 276.553C210.986 276.964 210.316 277.169 209.534 277.169ZM209.534 275.842C210.223 275.842 210.762 275.505 211.15 274.832C211.541 274.16 211.736 273.187 211.736 271.914C211.736 271.069 211.647 270.355 211.468 269.771C211.292 269.185 211.039 268.741 210.707 268.439C210.379 268.134 209.988 267.982 209.534 267.982C208.848 267.982 208.309 268.32 207.918 268.996C207.527 269.672 207.33 270.645 207.327 271.914C207.327 272.763 207.414 273.48 207.59 274.067C207.769 274.65 208.023 275.093 208.351 275.394C208.679 275.692 209.073 275.842 209.534 275.842Z" fill="#6B6F6D"/>
<rect x="144" y="301" width="40" height="40" rx="20" fill="white"/>
<rect x="144" y="301" width="40" height="40" rx="20" fill="url(#paint2_linear_2_17679)"/>
<path d="M164 337C172.867 337 180 329.867 180 321C180 312.133 172.867 305 164 305C155.133 305 148 312.133 148 321C148 329.867 155.133 337 164 337Z" fill="#2775CA"/>
<path d="M168.4 323.533C168.4 321.2 167 320.4 164.2 320.066C162.2 319.798 161.8 319.266 161.8 318.333C161.8 317.4 162.467 316.8 163.8 316.8C165 316.8 165.667 317.2 166 318.2C166.067 318.4 166.267 318.533 166.467 318.533H167.534C167.802 318.533 168.002 318.333 168.002 318.066V317.998C167.734 316.531 166.534 315.398 165.002 315.266V313.666C165.002 313.398 164.802 313.198 164.469 313.133H163.469C163.202 313.133 163.002 313.333 162.936 313.666V315.198C160.936 315.466 159.669 316.798 159.669 318.466C159.669 320.666 161.002 321.533 163.802 321.866C165.669 322.198 166.269 322.598 166.269 323.666C166.269 324.733 165.336 325.466 164.069 325.466C162.336 325.466 161.736 324.733 161.536 323.733C161.469 323.466 161.269 323.333 161.069 323.333H159.936C159.669 323.333 159.469 323.533 159.469 323.8V323.867C159.736 325.534 160.802 326.734 163.002 327.067V328.667C163.002 328.934 163.202 329.134 163.534 329.2H164.534C164.802 329.2 165.002 329 165.067 328.667V327.067C167.066 326.733 168.4 325.333 168.4 323.533Z" fill="white"/>
<path d="M160.6 330.533C155.4 328.666 152.733 322.866 154.667 317.733C155.667 314.933 157.867 312.8 160.6 311.8C160.867 311.667 161 311.467 161 311.133V310.2C161 309.933 160.867 309.733 160.6 309.667C160.533 309.667 160.4 309.667 160.333 309.734C154 311.734 150.533 318.467 152.533 324.802C153.733 328.534 156.6 331.402 160.333 332.602C160.6 332.734 160.866 332.602 160.933 332.334C161 332.267 161 332.202 161 332.067V331.134C161 330.933 160.8 330.667 160.6 330.533ZM167.666 309.733C167.399 309.6 167.133 309.733 167.066 310C166.999 310.067 166.999 310.133 166.999 310.267V311.2C166.999 311.467 167.199 311.733 167.399 311.867C172.599 313.734 175.266 319.534 173.331 324.667C172.331 327.467 170.131 329.6 167.399 330.6C167.131 330.733 166.999 330.933 166.999 331.267V332.2C166.999 332.467 167.131 332.667 167.399 332.733C167.466 332.733 167.599 332.733 167.666 332.666C173.999 330.666 177.466 323.933 175.466 317.598C174.266 313.8 171.333 310.933 167.666 309.733Z" fill="white"/>
<path d="M203.666 305.818H205.207V312.515C205.207 313.228 205.04 313.859 204.705 314.409C204.371 314.956 203.9 315.387 203.293 315.702C202.687 316.013 201.976 316.169 201.161 316.169C200.348 316.169 199.639 316.013 199.033 315.702C198.426 315.387 197.955 314.956 197.621 314.409C197.286 313.859 197.119 313.228 197.119 312.515V305.818H198.655V312.391C198.655 312.851 198.756 313.261 198.958 313.619C199.164 313.977 199.454 314.258 199.828 314.464C200.203 314.666 200.647 314.767 201.161 314.767C201.678 314.767 202.123 314.666 202.498 314.464C202.876 314.258 203.164 313.977 203.363 313.619C203.565 313.261 203.666 312.851 203.666 312.391V305.818ZM212.994 308.493C212.941 308.022 212.722 307.658 212.338 307.399C211.953 307.137 211.47 307.006 210.886 307.006C210.469 307.006 210.107 307.073 209.802 307.205C209.497 307.335 209.26 307.513 209.091 307.742C208.926 307.968 208.843 308.224 208.843 308.513C208.843 308.755 208.899 308.964 209.012 309.139C209.128 309.315 209.279 309.462 209.464 309.582C209.653 309.698 209.855 309.795 210.071 309.875C210.286 309.951 210.493 310.014 210.692 310.064L211.687 310.322C212.011 310.402 212.345 310.51 212.686 310.646C213.027 310.781 213.344 310.96 213.635 311.183C213.927 311.405 214.162 311.68 214.341 312.008C214.524 312.336 214.615 312.729 214.615 313.186C214.615 313.763 214.466 314.275 214.167 314.722C213.872 315.17 213.443 315.523 212.88 315.781C212.32 316.04 211.642 316.169 210.846 316.169C210.084 316.169 209.425 316.048 208.868 315.806C208.311 315.564 207.875 315.221 207.56 314.777C207.245 314.33 207.071 313.799 207.038 313.186H208.579C208.609 313.554 208.729 313.861 208.937 314.106C209.149 314.348 209.42 314.528 209.748 314.648C210.079 314.764 210.442 314.822 210.836 314.822C211.271 314.822 211.657 314.754 211.995 314.618C212.336 314.479 212.605 314.286 212.8 314.041C212.996 313.793 213.094 313.503 213.094 313.171C213.094 312.87 213.007 312.623 212.835 312.43C212.666 312.238 212.436 312.079 212.144 311.953C211.856 311.827 211.529 311.716 211.165 311.62L209.961 311.292C209.146 311.07 208.5 310.743 208.023 310.312C207.549 309.882 207.312 309.312 207.312 308.602C207.312 308.016 207.471 307.504 207.789 307.066C208.107 306.629 208.538 306.289 209.081 306.047C209.625 305.802 210.238 305.679 210.921 305.679C211.61 305.679 212.219 305.8 212.746 306.042C213.276 306.284 213.693 306.617 213.998 307.041C214.303 307.462 214.462 307.946 214.476 308.493H212.994ZM219.747 316H216.451V305.818H219.851C220.849 305.818 221.706 306.022 222.422 306.43C223.137 306.834 223.686 307.416 224.067 308.175C224.452 308.93 224.644 309.837 224.644 310.894C224.644 311.955 224.45 312.866 224.062 313.629C223.678 314.391 223.121 314.978 222.392 315.388C221.663 315.796 220.781 316 219.747 316ZM217.987 314.658H219.662C220.438 314.658 221.083 314.512 221.596 314.22C222.11 313.925 222.494 313.499 222.75 312.942C223.005 312.382 223.132 311.7 223.132 310.894C223.132 310.095 223.005 309.418 222.75 308.861C222.498 308.304 222.122 307.881 221.621 307.593C221.121 307.305 220.499 307.161 219.757 307.161H217.987V314.658ZM235.011 309.129H233.46C233.4 308.798 233.289 308.506 233.127 308.254C232.964 308.002 232.765 307.789 232.53 307.613C232.295 307.437 232.031 307.305 231.74 307.215C231.451 307.126 231.145 307.081 230.82 307.081C230.233 307.081 229.708 307.228 229.244 307.523C228.783 307.818 228.419 308.251 228.15 308.821C227.885 309.391 227.752 310.087 227.752 310.909C227.752 311.738 227.885 312.437 228.15 313.007C228.419 313.577 228.785 314.008 229.249 314.3C229.713 314.591 230.235 314.737 230.815 314.737C231.136 314.737 231.441 314.694 231.73 314.608C232.021 314.518 232.285 314.388 232.52 314.215C232.755 314.043 232.954 313.832 233.117 313.584C233.282 313.332 233.397 313.044 233.46 312.719L235.011 312.724C234.928 313.224 234.767 313.685 234.529 314.106C234.293 314.523 233.99 314.885 233.619 315.19C233.251 315.491 232.83 315.725 232.356 315.891C231.882 316.056 231.365 316.139 230.805 316.139C229.923 316.139 229.138 315.93 228.448 315.513C227.759 315.092 227.215 314.49 226.818 313.708C226.423 312.926 226.226 311.993 226.226 310.909C226.226 309.822 226.425 308.889 226.823 308.11C227.22 307.328 227.764 306.728 228.453 306.31C229.143 305.889 229.927 305.679 230.805 305.679C231.345 305.679 231.849 305.757 232.316 305.913C232.787 306.065 233.209 306.29 233.584 306.589C233.959 306.884 234.268 307.245 234.514 307.673C234.759 308.097 234.925 308.582 235.011 309.129Z" fill="#FEFEFE"/>
<path d="M200.121 338.273V325.545H200.937V338.273H200.121ZM202.672 329.493C202.619 329.022 202.4 328.658 202.016 328.399C201.631 328.137 201.147 328.006 200.564 328.006C200.146 328.006 199.785 328.073 199.48 328.205C199.175 328.335 198.938 328.513 198.769 328.742C198.603 328.968 198.521 329.224 198.521 329.513C198.521 329.755 198.577 329.964 198.69 330.139C198.806 330.315 198.956 330.462 199.142 330.582C199.331 330.698 199.533 330.795 199.749 330.875C199.964 330.951 200.171 331.014 200.37 331.064L201.364 331.322C201.689 331.402 202.022 331.51 202.364 331.646C202.705 331.781 203.022 331.96 203.313 332.183C203.605 332.405 203.84 332.68 204.019 333.008C204.201 333.336 204.293 333.729 204.293 334.186C204.293 334.763 204.143 335.275 203.845 335.722C203.55 336.17 203.121 336.523 202.558 336.781C201.997 337.04 201.32 337.169 200.524 337.169C199.762 337.169 199.102 337.048 198.545 336.806C197.989 336.564 197.553 336.221 197.238 335.777C196.923 335.33 196.749 334.799 196.716 334.186H198.257C198.287 334.554 198.406 334.861 198.615 335.106C198.827 335.348 199.097 335.528 199.425 335.648C199.757 335.764 200.12 335.822 200.514 335.822C200.948 335.822 201.335 335.754 201.673 335.618C202.014 335.479 202.282 335.286 202.478 335.041C202.674 334.793 202.771 334.503 202.771 334.171C202.771 333.87 202.685 333.623 202.513 333.43C202.344 333.238 202.113 333.079 201.822 332.953C201.533 332.827 201.207 332.716 200.842 332.62L199.639 332.292C198.824 332.07 198.178 331.743 197.7 331.312C197.226 330.882 196.989 330.312 196.989 329.602C196.989 329.016 197.148 328.504 197.467 328.066C197.785 327.629 198.216 327.289 198.759 327.047C199.303 326.802 199.916 326.679 200.599 326.679C201.288 326.679 201.896 326.8 202.423 327.042C202.954 327.284 203.371 327.617 203.676 328.041C203.981 328.462 204.14 328.946 204.153 329.493H202.672ZM209.534 337.169C208.748 337.166 208.077 336.959 207.52 336.548C206.964 336.137 206.538 335.538 206.243 334.753C205.948 333.967 205.8 333.021 205.8 331.914C205.8 330.81 205.948 329.867 206.243 329.085C206.541 328.303 206.969 327.706 207.525 327.295C208.086 326.884 208.755 326.679 209.534 326.679C210.313 326.679 210.981 326.886 211.537 327.3C212.094 327.711 212.52 328.308 212.815 329.09C213.113 329.869 213.263 330.81 213.263 331.914C213.263 333.024 213.115 333.972 212.82 334.758C212.525 335.54 212.099 336.138 211.542 336.553C210.986 336.964 210.316 337.169 209.534 337.169ZM209.534 335.842C210.223 335.842 210.762 335.505 211.15 334.832C211.541 334.16 211.736 333.187 211.736 331.914C211.736 331.069 211.647 330.355 211.468 329.771C211.292 329.185 211.039 328.741 210.707 328.439C210.379 328.134 209.988 327.982 209.534 327.982C208.848 327.982 208.309 328.32 207.918 328.996C207.527 329.672 207.33 330.645 207.327 331.914C207.327 332.763 207.414 333.48 207.59 334.067C207.769 334.65 208.023 335.093 208.351 335.394C208.679 335.692 209.073 335.842 209.534 335.842Z" fill="#6B6F6D"/>
<rect x="144" y="361" width="40" height="40" rx="20" fill="white"/>
<rect x="144" y="361" width="40" height="40" rx="20" fill="url(#paint3_linear_2_17679)"/>
<g clip-path="url(#clip2_2_17679)">
<path d="M163.995 364.995C172.832 364.995 179.995 372.159 179.995 380.995C179.995 389.832 172.832 396.995 163.995 396.995C155.159 396.995 147.995 389.832 147.995 380.995C147.995 372.159 155.159 364.995 163.995 364.995Z" fill="#F5AC37"/>
<path d="M164.585 382.125H170.665C170.794 382.125 170.855 382.125 170.865 381.955C170.914 381.337 170.914 380.714 170.865 380.095C170.865 379.975 170.805 379.925 170.675 379.925H158.575C158.425 379.925 158.385 379.975 158.385 380.115V381.895C158.385 382.125 158.385 382.125 158.625 382.125H164.585ZM170.186 377.845C170.203 377.8 170.203 377.75 170.186 377.706C170.084 377.484 169.964 377.274 169.824 377.076C169.614 376.737 169.366 376.425 169.084 376.145C168.951 375.976 168.797 375.824 168.624 375.695C167.759 374.959 166.73 374.437 165.624 374.175C165.066 374.05 164.496 373.99 163.924 373.995H158.554C158.404 373.995 158.384 374.055 158.384 374.185V377.735C158.384 377.885 158.384 377.925 158.574 377.925L170.114 377.925C170.114 377.925 170.214 377.905 170.234 377.845H170.185H170.186ZM170.186 384.205C170.016 384.186 169.845 384.186 169.675 384.205H158.585C158.435 384.205 158.385 384.205 158.385 384.405V387.876C158.385 388.035 158.385 388.076 158.585 388.076H163.705C163.95 388.095 164.195 388.077 164.434 388.026C165.177 387.973 165.908 387.812 166.605 387.546C166.859 387.458 167.103 387.344 167.335 387.206H167.404C168.605 386.582 169.58 385.601 170.194 384.397C170.194 384.397 170.264 384.246 170.186 384.206V384.205ZM156.375 389.875V389.815V387.485V386.696V384.345C156.375 384.215 156.375 384.196 156.216 384.196H154.045C153.925 384.196 153.875 384.196 153.875 384.036V382.136H156.195C156.325 382.136 156.375 382.136 156.375 381.966V380.086C156.375 379.966 156.375 379.936 156.216 379.936H154.045C153.925 379.936 153.875 379.936 153.875 379.776V378.017C153.875 377.906 153.875 377.877 154.035 377.877H156.185C156.335 377.877 156.375 377.877 156.375 377.687V372.297C156.375 372.137 156.375 372.097 156.576 372.097H164.075C164.619 372.118 165.16 372.178 165.695 372.277C166.797 372.48 167.857 372.874 168.825 373.437C169.467 373.815 170.058 374.271 170.585 374.797C170.981 375.208 171.338 375.653 171.655 376.127C171.969 376.607 172.231 377.12 172.436 377.657C172.461 377.796 172.595 377.891 172.735 377.867H174.525C174.754 377.867 174.754 377.867 174.764 378.087V379.727C174.764 379.887 174.705 379.927 174.544 379.927H173.164C173.024 379.927 172.984 379.927 172.994 380.107C173.049 380.717 173.049 381.328 172.994 381.937C172.994 382.107 172.994 382.127 173.185 382.127H174.764C174.833 382.217 174.764 382.307 174.764 382.398C174.774 382.514 174.774 382.631 174.764 382.747V383.957C174.764 384.127 174.714 384.178 174.563 384.178H172.673C172.542 384.152 172.414 384.237 172.383 384.368C171.933 385.538 171.213 386.587 170.283 387.428C169.943 387.734 169.586 388.022 169.213 388.287C168.813 388.518 168.423 388.758 168.013 388.948C167.258 389.288 166.466 389.538 165.653 389.697C164.881 389.835 164.098 389.898 163.313 389.887H156.372V389.877L156.375 389.875Z" fill="#FEFEFD"/>
</g>
<path d="M200.415 376H197.119V365.818H200.519C201.517 365.818 202.374 366.022 203.089 366.43C203.805 366.834 204.354 367.416 204.735 368.175C205.12 368.93 205.312 369.837 205.312 370.894C205.312 371.955 205.118 372.866 204.73 373.629C204.346 374.391 203.789 374.978 203.06 375.388C202.33 375.796 201.449 376 200.415 376ZM198.655 374.658H200.33C201.106 374.658 201.75 374.512 202.264 374.22C202.778 373.925 203.162 373.499 203.418 372.942C203.673 372.382 203.8 371.7 203.8 370.894C203.8 370.095 203.673 369.418 203.418 368.861C203.166 368.304 202.79 367.881 202.289 367.593C201.789 367.305 201.167 367.161 200.425 367.161H198.655V374.658ZM207.576 376H205.946L209.61 365.818H211.385L215.049 376H213.418L210.539 367.668H210.46L207.576 376ZM207.85 372.013H213.14V373.305H207.85V372.013ZM218.055 365.818V376H216.519V365.818H218.055Z" fill="#FEFEFE"/>
<path d="M200.121 398.273V385.545H200.937V398.273H200.121ZM202.672 389.493C202.619 389.022 202.4 388.658 202.016 388.399C201.631 388.137 201.147 388.006 200.564 388.006C200.146 388.006 199.785 388.073 199.48 388.205C199.175 388.335 198.938 388.513 198.769 388.742C198.603 388.968 198.521 389.224 198.521 389.513C198.521 389.755 198.577 389.964 198.69 390.139C198.806 390.315 198.956 390.462 199.142 390.582C199.331 390.698 199.533 390.795 199.749 390.875C199.964 390.951 200.171 391.014 200.37 391.064L201.364 391.322C201.689 391.402 202.022 391.51 202.364 391.646C202.705 391.781 203.022 391.96 203.313 392.183C203.605 392.405 203.84 392.68 204.019 393.008C204.201 393.336 204.293 393.729 204.293 394.186C204.293 394.763 204.143 395.275 203.845 395.722C203.55 396.17 203.121 396.523 202.558 396.781C201.997 397.04 201.32 397.169 200.524 397.169C199.762 397.169 199.102 397.048 198.545 396.806C197.989 396.564 197.553 396.221 197.238 395.777C196.923 395.33 196.749 394.799 196.716 394.186H198.257C198.287 394.554 198.406 394.861 198.615 395.106C198.827 395.348 199.097 395.528 199.425 395.648C199.757 395.764 200.12 395.822 200.514 395.822C200.948 395.822 201.335 395.754 201.673 395.618C202.014 395.479 202.282 395.286 202.478 395.041C202.674 394.793 202.771 394.503 202.771 394.171C202.771 393.87 202.685 393.623 202.513 393.43C202.344 393.238 202.113 393.079 201.822 392.953C201.533 392.827 201.207 392.716 200.842 392.62L199.639 392.292C198.824 392.07 198.178 391.743 197.7 391.312C197.226 390.882 196.989 390.312 196.989 389.602C196.989 389.016 197.148 388.504 197.467 388.066C197.785 387.629 198.216 387.289 198.759 387.047C199.303 386.802 199.916 386.679 200.599 386.679C201.288 386.679 201.896 386.8 202.423 387.042C202.954 387.284 203.371 387.617 203.676 388.041C203.981 388.462 204.14 388.946 204.153 389.493H202.672ZM209.534 397.169C208.748 397.166 208.077 396.959 207.52 396.548C206.964 396.137 206.538 395.538 206.243 394.753C205.948 393.967 205.8 393.021 205.8 391.914C205.8 390.81 205.948 389.867 206.243 389.085C206.541 388.303 206.969 387.706 207.525 387.295C208.086 386.884 208.755 386.679 209.534 386.679C210.313 386.679 210.981 386.886 211.537 387.3C212.094 387.711 212.52 388.308 212.815 389.09C213.113 389.869 213.263 390.81 213.263 391.914C213.263 393.024 213.115 393.972 212.82 394.758C212.525 395.54 212.099 396.138 211.542 396.553C210.986 396.964 210.316 397.169 209.534 397.169ZM209.534 395.842C210.223 395.842 210.762 395.505 211.15 394.832C211.541 394.16 211.736 393.187 211.736 391.914C211.736 391.069 211.647 390.355 211.468 389.771C211.292 389.185 211.039 388.741 210.707 388.439C210.379 388.134 209.988 387.982 209.534 387.982C208.848 387.982 208.309 388.32 207.918 388.996C207.527 389.672 207.33 390.645 207.327 391.914C207.327 392.763 207.414 393.48 207.59 394.067C207.769 394.65 208.023 395.093 208.351 395.394C208.679 395.692 209.073 395.842 209.534 395.842Z" fill="#6B6F6D"/>
<rect x="144" y="421" width="40" height="40" rx="20" fill="white"/>
<rect x="144" y="421" width="40" height="40" rx="20" fill="url(#paint4_linear_2_17679)"/>
<g clip-path="url(#clip3_2_17679)">
<path d="M164 457C172.837 457 180 449.837 180 441C180 432.163 172.837 425 164 425C155.163 425 148 432.163 148 441C148 449.837 155.163 457 164 457Z" fill="#1B5AFE"/>
<path fill-rule="evenodd" clip-rule="evenodd" d="M155.873 433.269V438.72C158.884 438.72 161.325 436.279 161.325 433.27L155.873 433.269Z" fill="white"/>
<path fill-rule="evenodd" clip-rule="evenodd" d="M161.325 449.643V438.668C161.325 438.622 161.325 438.576 161.326 438.53C161.327 438.483 161.329 438.437 161.331 438.391C161.334 438.345 161.336 438.299 161.34 438.254C161.344 438.208 161.348 438.163 161.353 438.119C161.358 438.074 161.363 438.028 161.368 437.983C161.373 437.938 161.38 437.893 161.387 437.849C161.394 437.804 161.402 437.759 161.409 437.715C161.417 437.671 161.426 437.627 161.435 437.584C161.444 437.54 161.453 437.497 161.463 437.453C161.473 437.41 161.483 437.366 161.495 437.324C161.506 437.282 161.518 437.238 161.53 437.196C161.541 437.154 161.554 437.111 161.568 437.069C161.581 437.027 161.595 436.985 161.609 436.944C161.623 436.901 161.637 436.86 161.652 436.819C161.668 436.779 161.683 436.738 161.7 436.697C161.716 436.656 161.733 436.616 161.75 436.575C161.766 436.534 161.784 436.494 161.802 436.455C161.82 436.415 161.839 436.375 161.857 436.336C161.876 436.296 161.896 436.258 161.916 436.218C161.937 436.179 161.957 436.141 161.978 436.103C161.998 436.064 162.02 436.026 162.042 435.989C162.063 435.952 162.085 435.913 162.108 435.876C162.131 435.839 162.154 435.802 162.177 435.766C162.2 435.73 162.225 435.693 162.249 435.657C162.273 435.621 162.298 435.586 162.323 435.551C162.349 435.515 162.374 435.481 162.4 435.446C162.426 435.411 162.452 435.377 162.479 435.344C162.506 435.309 162.533 435.276 162.561 435.243C162.589 435.209 162.616 435.176 162.646 435.144C162.674 435.112 162.703 435.079 162.731 435.047C162.761 435.015 162.79 434.983 162.82 434.952C162.849 434.921 162.88 434.889 162.911 434.86C162.941 434.829 162.972 434.798 163.003 434.769C163.034 434.739 163.066 434.71 163.098 434.681C163.13 434.651 163.162 434.623 163.195 434.595C163.228 434.567 163.26 434.539 163.293 434.512C163.327 434.483 163.36 434.457 163.394 434.43C163.429 434.403 163.462 434.376 163.498 434.35C163.533 434.325 163.567 434.299 163.603 434.274C163.639 434.248 163.674 434.224 163.709 434.199C163.745 434.175 163.781 434.151 163.818 434.128C163.854 434.105 163.891 434.082 163.928 434.059C163.965 434.035 164.002 434.014 164.041 433.992C164.078 433.97 164.116 433.948 164.155 433.928C164.193 433.907 164.232 433.887 164.27 433.867C164.308 433.846 164.348 433.827 164.388 433.808C164.427 433.788 164.467 433.771 164.507 433.753C164.546 433.735 164.586 433.717 164.627 433.7C164.668 433.683 164.708 433.667 164.749 433.65C164.79 433.634 164.831 433.618 164.872 433.603C164.913 433.587 164.955 433.573 164.996 433.559C165.037 433.545 165.079 433.531 165.121 433.518C165.163 433.506 165.206 433.493 165.248 433.48C165.29 433.467 165.334 433.456 165.376 433.445C165.419 433.434 165.462 433.424 165.505 433.413C165.549 433.403 165.592 433.394 165.636 433.385C165.679 433.376 165.724 433.367 165.768 433.36C165.811 433.352 165.856 433.344 165.901 433.338C165.946 433.331 165.99 433.325 166.035 433.319C166.08 433.312 166.125 433.307 166.171 433.303C166.216 433.298 166.262 433.294 166.306 433.291C166.353 433.287 166.397 433.284 166.443 433.282C166.49 433.279 166.536 433.278 166.582 433.276C166.628 433.275 166.674 433.275 166.72 433.275H172.123V438.674H166.72V449.649L161.325 449.643Z" fill="white"/>
</g>
<path d="M196.616 427.141V425.818H204.496V427.141H201.32V436H199.788V427.141H196.616ZM212.785 425.818H214.327V432.515C214.327 433.228 214.159 433.859 213.824 434.409C213.49 434.956 213.019 435.387 212.412 435.702C211.806 436.013 211.095 436.169 210.28 436.169C209.468 436.169 208.758 436.013 208.152 435.702C207.545 435.387 207.075 434.956 206.74 434.409C206.405 433.859 206.238 433.228 206.238 432.515V425.818H207.774V432.391C207.774 432.851 207.875 433.261 208.077 433.619C208.283 433.977 208.573 434.258 208.947 434.464C209.322 434.666 209.766 434.767 210.28 434.767C210.797 434.767 211.242 434.666 211.617 434.464C211.995 434.258 212.283 433.977 212.482 433.619C212.684 433.261 212.785 432.851 212.785 432.391V425.818ZM222.113 428.493C222.06 428.022 221.842 427.658 221.457 427.399C221.073 427.137 220.589 427.006 220.005 427.006C219.588 427.006 219.226 427.073 218.922 427.205C218.617 427.335 218.38 427.513 218.211 427.742C218.045 427.968 217.962 428.224 217.962 428.513C217.962 428.755 218.018 428.964 218.131 429.139C218.247 429.315 218.398 429.462 218.583 429.582C218.772 429.698 218.975 429.795 219.19 429.875C219.405 429.951 219.613 430.014 219.811 430.064L220.806 430.322C221.131 430.402 221.464 430.51 221.805 430.646C222.146 430.781 222.463 430.96 222.755 431.183C223.046 431.405 223.282 431.68 223.461 432.008C223.643 432.336 223.734 432.729 223.734 433.186C223.734 433.763 223.585 434.275 223.287 434.722C222.992 435.17 222.562 435.523 221.999 435.781C221.439 436.04 220.761 436.169 219.966 436.169C219.203 436.169 218.544 436.048 217.987 435.806C217.43 435.564 216.994 435.221 216.679 434.777C216.364 434.33 216.19 433.799 216.157 433.186H217.699C217.728 433.554 217.848 433.861 218.056 434.106C218.269 434.348 218.539 434.528 218.867 434.648C219.198 434.764 219.561 434.822 219.956 434.822C220.39 434.822 220.776 434.754 221.114 434.618C221.455 434.479 221.724 434.286 221.919 434.041C222.115 433.793 222.213 433.503 222.213 433.171C222.213 432.87 222.127 432.623 221.954 432.43C221.785 432.238 221.555 432.079 221.263 431.953C220.975 431.827 220.648 431.716 220.284 431.62L219.081 431.292C218.265 431.07 217.619 430.743 217.142 430.312C216.668 429.882 216.431 429.312 216.431 428.602C216.431 428.016 216.59 427.504 216.908 427.066C217.226 426.629 217.657 426.289 218.201 426.047C218.744 425.802 219.357 425.679 220.04 425.679C220.73 425.679 221.338 425.8 221.865 426.042C222.395 426.284 222.813 426.617 223.118 427.041C223.422 427.462 223.582 427.946 223.595 428.493H222.113ZM228.866 436H225.57V425.818H228.97C229.968 425.818 230.825 426.022 231.541 426.43C232.257 426.834 232.805 427.416 233.186 428.175C233.571 428.93 233.763 429.837 233.763 430.894C233.763 431.955 233.569 432.866 233.181 433.629C232.797 434.391 232.24 434.978 231.511 435.388C230.782 435.796 229.9 436 228.866 436ZM227.106 434.658H228.781C229.557 434.658 230.202 434.512 230.715 434.22C231.229 433.925 231.614 433.499 231.869 432.942C232.124 432.382 232.252 431.7 232.252 430.894C232.252 430.095 232.124 429.418 231.869 428.861C231.617 428.304 231.241 427.881 230.74 427.593C230.24 427.305 229.618 427.161 228.876 427.161H227.106V434.658Z" fill="#FEFEFE"/>
<path d="M200.121 458.273V445.545H200.937V458.273H200.121ZM202.672 449.493C202.619 449.022 202.4 448.658 202.016 448.399C201.631 448.137 201.147 448.006 200.564 448.006C200.146 448.006 199.785 448.073 199.48 448.205C199.175 448.335 198.938 448.513 198.769 448.742C198.603 448.968 198.521 449.224 198.521 449.513C198.521 449.755 198.577 449.964 198.69 450.139C198.806 450.315 198.956 450.462 199.142 450.582C199.331 450.698 199.533 450.795 199.749 450.875C199.964 450.951 200.171 451.014 200.37 451.064L201.364 451.322C201.689 451.402 202.022 451.51 202.364 451.646C202.705 451.781 203.022 451.96 203.313 452.183C203.605 452.405 203.84 452.68 204.019 453.008C204.201 453.336 204.293 453.729 204.293 454.186C204.293 454.763 204.143 455.275 203.845 455.722C203.55 456.17 203.121 456.523 202.558 456.781C201.997 457.04 201.32 457.169 200.524 457.169C199.762 457.169 199.102 457.048 198.545 456.806C197.989 456.564 197.553 456.221 197.238 455.777C196.923 455.33 196.749 454.799 196.716 454.186H198.257C198.287 454.554 198.406 454.861 198.615 455.106C198.827 455.348 199.097 455.528 199.425 455.648C199.757 455.764 200.12 455.822 200.514 455.822C200.948 455.822 201.335 455.754 201.673 455.618C202.014 455.479 202.282 455.286 202.478 455.041C202.674 454.793 202.771 454.503 202.771 454.171C202.771 453.87 202.685 453.623 202.513 453.43C202.344 453.238 202.113 453.079 201.822 452.953C201.533 452.827 201.207 452.716 200.842 452.62L199.639 452.292C198.824 452.07 198.178 451.743 197.7 451.312C197.226 450.882 196.989 450.312 196.989 449.602C196.989 449.016 197.148 448.504 197.467 448.066C197.785 447.629 198.216 447.289 198.759 447.047C199.303 446.802 199.916 446.679 200.599 446.679C201.288 446.679 201.896 446.8 202.423 447.042C202.954 447.284 203.371 447.617 203.676 448.041C203.981 448.462 204.14 448.946 204.153 449.493H202.672ZM209.534 457.169C208.748 457.166 208.077 456.959 207.52 456.548C206.964 456.137 206.538 455.538 206.243 454.753C205.948 453.967 205.8 453.021 205.8 451.914C205.8 450.81 205.948 449.867 206.243 449.085C206.541 448.303 206.969 447.706 207.525 447.295C208.086 446.884 208.755 446.679 209.534 446.679C210.313 446.679 210.981 446.886 211.537 447.3C212.094 447.711 212.52 448.308 212.815 449.09C213.113 449.869 213.263 450.81 213.263 451.914C213.263 453.024 213.115 453.972 212.82 454.758C212.525 455.54 212.099 456.138 211.542 456.553C210.986 456.964 210.316 457.169 209.534 457.169ZM209.534 455.842C210.223 455.842 210.762 455.505 211.15 454.832C211.541 454.16 211.736 453.187 211.736 451.914C211.736 451.069 211.647 450.355 211.468 449.771C211.292 449.185 211.039 448.741 210.707 448.439C210.379 448.134 209.988 447.982 209.534 447.982C208.848 447.982 208.309 448.32 207.918 448.996C207.527 449.672 207.33 450.645 207.327 451.914C207.327 452.763 207.414 453.48 207.59 454.067C207.769 454.65 208.023 455.093 208.351 455.394C208.679 455.692 209.073 455.842 209.534 455.842Z" fill="#6B6F6D"/>
</g>
<defs>
<radialGradient id="paint0_radial_2_17679" cx="0" cy="0" r="1" gradientUnits="userSpaceOnUse" gradientTransform="translate(322 201) rotate(89.9311) scale(416 323.414)">
<stop offset="0.472711" stop-color="#191919" stop-opacity="0"/>
<stop offset="1" stop-color="#191919"/>
</radialGradient>
<linearGradient id="paint1_linear_2_17679" x1="164" y1="241" x2="164" y2="281" gradientUnits="userSpaceOnUse">
<stop stop-color="#3F413F"/>
<stop offset="1" stop-color="#222322"/>
</linearGradient>
<linearGradient id="paint2_linear_2_17679" x1="164" y1="301" x2="164" y2="341" gradientUnits="userSpaceOnUse">
<stop stop-color="#3F413F"/>
<stop offset="1" stop-color="#222322"/>
</linearGradient>
<linearGradient id="paint3_linear_2_17679" x1="164" y1="361" x2="164" y2="401" gradientUnits="userSpaceOnUse">
<stop stop-color="#3F413F"/>
<stop offset="1" stop-color="#222322"/>
</linearGradient>
<linearGradient id="paint4_linear_2_17679" x1="164" y1="421" x2="164" y2="461" gradientUnits="userSpaceOnUse">
<stop stop-color="#3F413F"/>
<stop offset="1" stop-color="#222322"/>
</linearGradient>
<clipPath id="clip0_2_17679">
<rect width="646" height="600" rx="10" fill="white"/>
</clipPath>
<clipPath id="clip1_2_17679">
<rect width="28" height="24.3572" fill="white" transform="translate(150 249)"/>
</clipPath>
<clipPath id="clip2_2_17679">
<rect width="32" height="32" fill="white" transform="translate(147.995 364.995)"/>
</clipPath>
<clipPath id="clip3_2_17679">
<rect width="32" height="32" fill="white" transform="translate(148 425)"/>
</clipPath>
</defs>
</svg>
